<svg width="604" height="575" viewBox="0 0 604 575" fill="none" xmlns="http://www.w3.org/2000/svg">
<path d="M533.997 180.626C533.997 180.626 524.332 173.196 510.236 196.576C496.139 219.954 490.456 233.612 490.456 233.612C490.456 233.612 486.825 238.462 483.571 234.89C480.316 231.318 476.205 221.552 470.149 222.825C463.868 224.145 461.352 230.87 461.804 241.049C462.257 251.228 462.432 273.564 462.441 275.582C462.449 277.566 461.112 280.39 458.505 278.313C455.899 276.236 441.381 257.546 432.925 264.966C424.469 272.385 430.392 300.533 430.98 303.622C431.569 306.712 430.883 307.965 429.389 308.612C427.895 309.26 423.608 302.518 419.26 297.372C414.913 292.226 408.972 287.021 404.452 291.71C399.932 296.4 397.124 317.001 414.421 352.026L423.499 367.732L441.717 368.02C480.741 366.26 497.427 353.854 499.352 347.633C501.277 341.41 493.851 338.718 487.244 337.397C480.639 336.074 472.665 335.574 472.512 333.953C472.356 332.332 473.124 331.128 476.113 330.15C479.103 329.174 506.612 320.773 509.028 309.785C511.444 298.8 488.069 295.108 484.991 293.828C481.912 292.548 483.741 290.013 485.481 289.062C487.253 288.094 506.9 277.465 516.032 272.948C525.165 268.432 529.839 262.981 527.963 256.842C526.155 250.924 515.617 252.04 510.917 250.914C506.219 249.788 508.713 244.266 508.713 244.266C508.713 244.266 517.931 232.696 531.6 209.065C545.269 185.433 533.791 180.49 533.791 180.49" fill="#E7E8E5"/>
<path d="M521.337 201.542C521.337 201.542 521.256 201.719 521.075 202.051C520.88 202.402 520.608 202.889 520.257 203.518C519.517 204.823 518.444 206.71 517.069 209.133C514.295 214.003 510.228 221.025 505.171 229.681C495.064 246.995 480.901 270.798 465.176 297.034C449.445 323.281 435.228 347.051 425.033 364.313C419.955 372.935 415.84 379.918 412.983 384.769C411.568 387.166 410.464 389.035 409.703 390.327C409.332 390.945 409.044 391.422 408.837 391.766C408.639 392.089 408.525 392.246 408.525 392.246C408.525 392.246 408.605 392.07 408.788 391.738C408.981 391.387 409.253 390.901 409.604 390.271C410.345 388.967 411.417 387.079 412.793 384.658C415.568 379.787 419.633 372.767 424.689 364.111C434.796 346.797 448.961 322.991 464.692 296.746C480.417 270.509 494.633 246.741 504.828 229.478C509.907 220.857 514.02 213.873 516.879 209.022C518.295 206.623 519.397 204.754 520.16 203.462C520.531 202.845 520.819 202.366 521.025 202.023C521.223 201.701 521.337 201.542 521.337 201.542Z" fill="#DADBD8"/>
<path d="M475.348 236.72C475.385 236.712 475.516 237.161 475.716 237.98C475.921 238.799 476.183 239.99 476.492 241.464C477.105 244.415 477.848 248.514 478.585 253.05C479.297 257.526 479.941 261.574 480.433 264.67C480.664 266.064 480.857 267.24 481.015 268.186C481.156 269.016 481.216 269.479 481.179 269.488C481.139 269.496 481.008 269.048 480.799 268.23C480.597 267.411 480.335 266.219 480.041 264.74C479.457 261.782 478.768 257.676 478.029 253.14C477.288 248.672 476.615 244.631 476.101 241.539C475.863 240.144 475.663 238.97 475.501 238.024C475.365 237.192 475.309 236.728 475.348 236.72Z" fill="#DADBD8"/>
<path d="M482.816 269.928C482.786 269.776 491.166 267.872 501.532 265.676C511.904 263.48 520.335 261.824 520.367 261.976C520.4 262.128 512.02 264.03 501.65 266.226C491.282 268.422 482.85 270.08 482.816 269.928Z" fill="#DADBD8"/>
<path d="M456.848 309.137C456.852 309.099 457.328 309.112 458.186 309.171C459.16 309.244 460.374 309.335 461.816 309.444C464.881 309.668 469.114 309.961 473.797 310.112C478.481 310.276 482.726 310.275 485.797 310.249C487.244 310.24 488.462 310.231 489.438 310.224C490.297 310.221 490.774 310.24 490.777 310.279C490.778 310.317 490.305 310.373 489.448 310.443C488.588 310.511 487.346 310.588 485.808 310.648C482.733 310.776 478.476 310.839 473.778 310.676C469.081 310.524 464.841 310.167 461.781 309.84C460.25 309.669 459.014 309.519 458.164 309.389C457.31 309.264 456.844 309.176 456.848 309.137Z" fill="#DADBD8"/>
<path d="M443.479 280.586C443.515 280.568 443.741 280.948 444.117 281.648C444.537 282.462 445.053 283.46 445.662 284.638C446.946 287.174 448.685 290.692 450.573 294.595C452.461 298.498 454.142 302.046 455.334 304.624C455.879 305.834 456.342 306.858 456.718 307.692C457.034 308.422 457.191 308.834 457.157 308.851C457.122 308.867 456.898 308.488 456.521 307.788C456.101 306.975 455.583 305.976 454.974 304.799C453.691 302.263 451.954 298.744 450.065 294.84C448.177 290.939 446.495 287.391 445.303 284.812C444.758 283.603 444.295 282.579 443.918 281.744C443.603 281.015 443.445 280.603 443.479 280.586Z" fill="#DADBD8"/>
<path d="M416.156 312.289C416.189 312.271 416.473 312.759 416.957 313.657C417.476 314.653 418.147 315.938 418.952 317.481C420.616 320.721 422.877 325.214 425.345 330.193C427.813 335.171 430.02 339.693 431.592 342.978C432.332 344.553 432.949 345.863 433.427 346.881C433.849 347.809 434.067 348.33 434.031 348.347C433.996 348.363 433.713 347.875 433.231 346.978C432.711 345.982 432.04 344.697 431.236 343.154C429.572 339.915 427.309 335.421 424.841 330.442C422.373 325.465 420.167 320.943 418.595 317.658C417.855 316.083 417.239 314.771 416.76 313.754C416.339 312.827 416.121 312.306 416.156 312.289Z" fill="#DADBD8"/>
<path d="M433.846 347.362C433.848 347.324 434.454 347.326 435.543 347.362C436.734 347.41 438.287 347.469 440.158 347.541C444.055 347.689 449.436 347.87 455.383 347.904C461.332 347.945 466.716 347.841 470.615 347.738C472.487 347.69 474.04 347.65 475.231 347.62C476.322 347.596 476.926 347.601 476.928 347.64C476.93 347.68 476.331 347.748 475.242 347.84C474.155 347.929 472.578 348.036 470.63 348.136C466.732 348.341 461.339 348.508 455.379 348.466C449.422 348.433 444.032 348.189 440.138 347.94C438.19 347.81 436.616 347.69 435.528 347.581C434.443 347.477 433.843 347.402 433.846 347.362Z" fill="#DADBD8"/>
<path d="M51.9006 566.003L44.237 566.043L42.4121 225.358L50.0757 225.316L51.9006 566.003Z" fill="#DADBD8"/>
<path d="M70.2561 565.904L62.5926 565.945L60.7676 225.259L68.4312 225.218L70.2561 565.904Z" fill="#DADBD8"/>
<path d="M230.614 565.046L222.95 565.086L221.125 224.399L228.789 224.358L230.614 565.046Z" fill="#DADBD8"/>
<path d="M248.968 564.947L241.304 564.988L239.479 224.302L247.143 224.26L248.968 564.947Z" fill="#DADBD8"/>
<path d="M247.185 232.035L42.4537 233.133L42.4121 225.358L247.143 224.261L247.185 232.035Z" fill="#DADBD8"/>
<path d="M247.53 296.528L42.7995 297.625L42.7871 295.304L247.518 294.206L247.53 296.528Z" fill="#DADBD8"/>
<path d="M247.882 362.453L43.1512 363.551L43.1387 361.228L247.87 360.132L247.882 362.453Z" fill="#DADBD8"/>
<path d="M248.237 428.381L43.5061 429.477L43.4941 427.155L248.225 426.059L248.237 428.381Z" fill="#DADBD8"/>
<path d="M248.59 494.307L43.8582 495.406L43.8457 493.082L248.578 491.986L248.59 494.307Z" fill="#DADBD8"/>
<path d="M163.228 492.442L126.96 492.637L126.754 454.163L163.022 453.968L163.228 492.442Z" fill="#E7E8E5"/>
<path d="M199.324 492.251L163.056 492.445L162.85 453.972L199.118 453.779L199.324 492.251Z" fill="#F3F2F1"/>
<path d="M126.811 464.702C150.909 464.939 175.079 464.74 199.176 464.356C199.54 464.349 199.537 463.793 199.173 463.79C175.075 463.664 150.903 463.722 126.809 464.219C126.497 464.225 126.499 464.698 126.811 464.702Z" fill="#DADBD8"/>
<path d="M152.692 337.322L126.13 337.465L125.979 309.286L152.543 309.144L152.692 337.322Z" fill="#E7E8E5"/>
<path d="M179.131 337.183L152.567 337.324L152.416 309.147L178.98 309.004L179.131 337.183Z" fill="#F3F2F1"/>
<path d="M126.02 317.071C143.673 317.216 161.371 317.114 179.021 316.827C179.384 316.822 179.381 316.264 179.019 316.262C161.365 316.164 143.668 316.251 126.018 316.586C125.706 316.592 125.708 317.068 126.02 317.071Z" fill="#DADBD8"/>
<path d="M157.8 359.816L109.538 360.074L109.416 337.112L157.678 336.853L157.8 359.816Z" fill="#E7E8E5"/>
<path d="M205.835 359.558L157.573 359.816L157.449 336.854L205.712 336.594L205.835 359.558Z" fill="#F3F2F1"/>
<path d="M109.45 343.498C141.511 343.861 173.684 343.535 205.744 343.023C206.107 343.018 206.106 342.461 205.742 342.459C173.679 342.289 141.503 342.307 109.447 343.015C109.136 343.022 109.138 343.495 109.45 343.498Z" fill="#DADBD8"/>
<path d="M123.106 294.995L110.984 295.059L110.73 247.791L122.853 247.725L123.106 294.995Z" fill="#E7E8E5"/>
<path d="M110.748 294.939L98.6253 295.004L98.4414 260.636L110.563 260.571L110.748 294.939Z" fill="#DADBD8"/>
<path d="M142.093 294.785L123.258 294.887L123.053 256.581L141.888 256.48L142.093 294.785Z" fill="#DADBD8"/>
<path d="M147.793 294.753L141.809 294.785L141.604 256.48L147.588 256.448L147.793 294.753Z" fill="#E7E8E5"/>
<path d="M153.776 294.722L147.793 294.754L147.635 265.301L153.619 265.269L153.776 294.722Z" fill="#DADBD8"/>
<path d="M103.479 427.152L92.2637 422.554L109.076 381.548L120.292 386.147L103.479 427.152Z" fill="#DADBD8"/>
<path d="M131.043 426.97L118.921 427.035L118.668 379.767L130.789 379.702L131.043 426.97Z" fill="#E7E8E5"/>
<path d="M156.091 426.731L137.256 426.832L137.051 388.525L155.885 388.424L156.091 426.731Z" fill="#DADBD8"/>
<path d="M137.256 426.833L133.135 426.855L132.854 374.357L136.974 374.334L137.256 426.833Z" fill="#E7E8E5"/>
<path d="M133.134 426.854L131.073 426.863L130.836 382.546L132.896 382.534L133.134 426.854Z" fill="#F3F2F1"/>
<path d="M200.591 424.539L200.601 426.599L156.284 426.836L156.273 424.776L200.591 424.539Z" fill="#F3F2F1"/>
<path d="M204.388 424.519L156.079 424.777L156.014 412.523L204.323 412.263L204.388 424.519Z" fill="#E7E8E5"/>
<path d="M194.808 412.223L156.015 412.43L155.949 400.176L194.743 399.968L194.808 412.223Z" fill="#DADBD8"/>
<path d="M298.877 52.2757C300.593 44.1304 299.565 34.8597 299.647 26.5571C299.731 18.2517 300.798 9.00506 299.319 0.818389C299.123 -0.266944 297.327 -0.265611 297.129 0.818389C295.633 9.01972 296.521 18.2251 296.434 26.5571C296.349 34.8344 295.139 44.1411 296.839 52.2757C297.05 53.2837 298.665 53.2824 298.877 52.2757Z" fill="#DADBD8"/>
<path d="M225.555 116.883H372.388C372.388 116.883 358.831 51.9962 297.859 51.9962C243.627 51.9962 225.555 116.883 225.555 116.883Z" fill="#F3F2F1"/>
<path d="M603.557 566.105C603.557 566.298 468.435 566.453 301.794 566.453C135.093 566.453 0 566.298 0 566.105C0 565.915 135.093 565.758 301.794 565.758C468.435 565.758 603.557 565.915 603.557 566.105Z" fill="#17282F"/>
<path d="M408.663 565.668H189.278C180.774 565.668 173.879 558.773 173.879 550.269V194.904C173.879 186.399 180.774 179.505 189.278 179.505H408.663C417.168 179.505 424.063 186.399 424.063 194.904V550.269C424.063 558.773 417.168 565.668 408.663 565.668Z" fill="#33535F"/>
<path d="M306.636 547.71C306.636 553.412 302.339 558.035 297.038 558.035C291.735 558.035 287.438 553.412 287.438 547.71C287.438 542.009 291.735 537.386 297.038 537.386C302.339 537.386 306.636 542.009 306.636 547.71Z" fill="#17282F"/>
<path d="M335.026 194.891H262.915C262.02 194.891 261.295 194.165 261.295 193.271V192.245C261.295 191.351 262.02 190.625 262.915 190.625H335.026C335.92 190.625 336.646 191.351 336.646 192.245V193.271C336.646 194.165 335.92 194.891 335.026 194.891Z" fill="#17282F"/>
<path d="M182.41 527.465H416.815V201.665H182.41V527.465Z" fill="#17282F"/>
<path d="M355.962 493.844C355.962 493.844 356.254 493.804 356.824 493.763C357.398 493.753 358.236 493.628 359.331 493.434C360.407 493.168 361.748 492.822 363.199 492.087C364.656 491.387 366.262 490.37 367.748 488.877C369.238 487.398 370.639 485.463 371.556 483.073C372.492 480.693 372.906 477.892 372.642 474.913C372.359 471.961 371.272 468.833 369.18 466.18C367.128 463.511 364.087 461.335 360.48 460.339C359.582 460.072 358.648 459.93 357.702 459.799C356.747 459.745 355.786 459.693 354.787 459.713C352.803 459.717 350.776 459.721 348.707 459.725C344.57 459.732 340.266 459.739 335.808 459.745C326.894 459.754 317.37 459.765 307.348 459.777C287.3 459.785 265.266 459.794 242.135 459.804C239.303 459.834 236.491 460.542 234.047 461.909C231.628 463.299 229.508 465.232 228.072 467.593C226.606 469.929 225.718 472.609 225.575 475.326C225.388 478.056 225.768 480.775 226.786 483.256C227.815 485.723 229.448 487.898 231.439 489.604C233.444 491.299 235.846 492.465 238.343 493.062C240.836 493.706 243.444 493.469 246.016 493.517C248.583 493.52 251.12 493.521 253.627 493.523C273.67 493.551 291.72 493.577 306.888 493.597C322.031 493.644 334.295 493.682 342.795 493.708C347.016 493.737 350.302 493.757 352.559 493.773C353.656 493.787 354.5 493.799 355.096 493.808C355.67 493.818 355.962 493.844 355.962 493.844C355.962 493.844 355.67 493.866 355.096 493.878C354.5 493.886 353.656 493.898 352.559 493.913C350.3 493.928 347.018 493.95 342.795 493.978C334.295 494.005 322.031 494.041 306.888 494.087C291.72 494.109 273.67 494.135 253.627 494.162C251.12 494.165 248.583 494.168 246.016 494.169C244.734 494.17 243.443 494.172 242.146 494.172C241.487 494.133 240.822 494.128 240.16 494.054C239.507 493.934 238.835 493.899 238.191 493.708C235.592 493.09 233.094 491.88 231.006 490.118C228.934 488.346 227.231 486.085 226.156 483.517C225.095 480.944 224.698 478.082 224.891 475.282C225.039 472.453 225.962 469.659 227.488 467.226C228.984 464.766 231.188 462.751 233.71 461.302C236.254 459.878 239.187 459.139 242.135 459.109C265.266 459.12 287.3 459.129 307.348 459.135C317.37 459.147 326.894 459.158 335.808 459.169C340.266 459.175 344.57 459.182 348.707 459.189C350.776 459.192 352.803 459.196 354.787 459.199C355.774 459.184 356.771 459.239 357.752 459.299C358.728 459.437 359.688 459.586 360.612 459.865C364.323 460.909 367.438 463.159 369.528 465.909C371.663 468.642 372.759 471.857 373.028 474.878C373.279 477.905 372.838 480.781 371.863 483.194C370.91 485.625 369.464 487.582 367.938 489.07C366.412 490.573 364.774 491.584 363.29 492.274C361.81 492.997 360.45 493.325 359.359 493.573C358.25 493.744 357.404 493.849 356.828 493.834C356.254 493.853 355.962 493.844 355.962 493.844Z" fill="white"/>
<path d="M269.55 474.392L268.722 475.424C268.109 474.765 267.233 474.356 266.381 474.356C264.699 474.356 263.379 475.653 263.379 477.308C263.379 478.966 264.699 480.274 266.381 480.274C267.221 480.274 268.085 479.889 268.722 479.277L269.562 480.213C268.709 481.054 267.497 481.594 266.309 481.594C263.847 481.594 261.939 479.734 261.939 477.32C261.939 474.932 263.871 473.095 266.355 473.095C267.545 473.095 268.734 473.587 269.55 474.392Z" fill="white"/>
<path d="M271.564 477.332C271.564 479.001 272.944 480.322 274.588 480.322C276.234 480.322 277.576 479.001 277.576 477.332C277.576 475.665 276.234 474.367 274.588 474.367C272.932 474.367 271.564 475.665 271.564 477.332ZM279.03 477.332C279.03 479.734 277.084 481.594 274.576 481.594C272.068 481.594 270.123 479.734 270.123 477.332C270.123 474.919 272.068 473.095 274.576 473.095C277.084 473.095 279.03 474.932 279.03 477.332Z" fill="white"/>
<path d="M286.434 481.535L281.956 475.51V481.535H280.539V473.134H281.931L286.434 479.171V473.134H287.826V481.535H286.434Z" fill="white"/>
<path d="M291.46 474.406V476.83H295.278V478.09H291.46V481.535H290.043V473.134H295.684L295.674 474.406H291.46Z" fill="white"/>
<path d="M296.943 481.535V473.134H298.359V481.535H296.943Z" fill="white"/>
<path d="M303.974 477.731C305.272 477.731 306.016 477.179 306.016 476.038C306.016 474.934 305.272 474.406 303.974 474.406H301.982V477.731H303.974ZM304.358 478.991C304.238 479.003 304.108 479.003 303.974 479.003H301.982V481.535H300.566V473.134H303.974C306.124 473.134 307.36 474.178 307.36 476.002C307.36 477.347 306.737 478.295 305.62 478.727L307.505 481.535H305.896L304.358 478.991Z" fill="white"/>
<path d="M316.817 481.535L316.805 475.258L314.153 480.659H313.229L310.574 475.258V481.535H309.242V473.134H310.924L313.696 478.715L316.458 473.134H318.126V481.535H316.817Z" fill="white"/>
<path d="M321.76 474.406V476.674H325.865V477.947H321.76V480.263H326.489V481.535H320.344V473.134H326.346V474.406H321.76Z" fill="white"/>
<path d="M329.631 480.263H331.696C333.328 480.263 334.576 479.051 334.576 477.347C334.576 475.63 333.293 474.406 331.635 474.406H329.631V480.263ZM331.66 473.134C334.181 473.134 336.006 474.898 336.006 477.334C336.006 479.759 334.169 481.535 331.624 481.535H328.215V473.134H331.66Z" fill="white"/>
<path d="M209.039 315.248L386.585 313.959L391.534 434.668L207.691 432.964L209.039 315.248Z" fill="#18BA33"/>
<path d="M209.039 315.25L299.176 242.314L386.584 313.961L209.039 315.25Z" fill="#18BA33"/>
<path d="M209.039 315.25L299.176 242.314L386.584 313.961L209.039 315.25Z" fill="#2EB344"/>
<path d="M207.692 432.967C207.471 432.757 221.684 417.24 239.435 398.307C257.193 379.368 271.763 364.191 271.984 364.397C272.205 364.605 257.995 380.121 240.237 399.06C222.487 417.991 207.913 433.173 207.692 432.967Z" fill="#17282F"/>
<path d="M391.534 434.67C391.308 434.871 377.465 419.666 360.621 400.711C343.77 381.75 330.298 366.221 330.526 366.019C330.753 365.818 344.592 381.021 361.444 399.981C378.288 418.935 391.761 434.469 391.534 434.67Z" fill="#17282F"/>
<path d="M297.431 385.18L271.696 364.82C271.904 364.557 272.003 364.413 271.983 364.394C271.982 364.393 271.979 364.392 271.976 364.392C271.942 364.392 271.803 364.502 271.567 364.717L209.039 315.248L386.584 313.958L297.431 385.18Z" fill="#1B812C"/>
<path d="M271.696 364.82L271.566 364.718C271.802 364.503 271.941 364.392 271.976 364.392C271.978 364.392 271.981 364.394 271.982 364.395C272.002 364.414 271.904 364.558 271.696 364.82Z" fill="#0A1013"/>
<path d="M217.981 321.845L217.723 270.198L373.224 266.393L374.921 322.899L297.423 384.25L217.981 321.845Z" fill="#E7E8E5"/>
<path d="M299.489 289.649C280.758 289.649 264.56 303.754 262.402 322.797C261.278 332.71 264.084 342.467 270.298 350.273C276.514 358.077 285.397 362.993 295.31 364.115C305.221 365.245 314.981 362.434 322.786 356.219C330.589 350.003 335.506 341.122 336.628 331.207C337.752 321.294 334.949 311.537 328.733 303.733C322.517 295.929 313.634 291.013 303.721 289.889C302.3 289.727 300.886 289.649 299.489 289.649ZM299.592 365.691C298.122 365.691 296.642 365.609 295.16 365.441C284.893 364.278 275.693 359.186 269.256 351.102C262.818 343.021 259.914 332.914 261.077 322.647C263.48 301.451 282.677 286.157 303.872 288.565C314.138 289.727 323.338 294.819 329.776 302.902C336.213 310.985 339.117 321.09 337.954 331.358C336.792 341.626 331.698 350.825 323.616 357.262C316.7 362.77 308.302 365.691 299.592 365.691Z" fill="#18BA33"/>
<path d="M273.223 332.375L279.687 324.451L294.811 335.377L319.387 306.411L326.795 312.927L295.189 349.355L273.223 332.375Z" fill="#18BA33"/>
<path d="M466.875 384.734C467.004 385.729 468.367 386.195 469.231 385.687C470.095 385.178 470.424 384.046 470.279 383.054C470.132 382.063 469.606 381.174 469.09 380.314C470.646 381.193 472.911 380.242 473.375 378.517C473.839 376.791 472.354 374.833 470.568 374.813C471.816 374.555 473.096 374.193 474.06 373.357C475.022 372.521 475.575 371.089 475.051 369.926C474.526 368.763 472.712 368.315 471.918 369.314C472.576 368.883 473.255 368.435 473.688 367.779C474.124 367.123 474.255 366.197 473.787 365.565C473.244 364.833 472.136 364.775 471.287 365.103C470.436 365.43 469.734 366.05 468.934 366.486C467.031 367.526 464.56 367.433 462.742 366.251L457.766 370.366L466.875 384.734Z" fill="#17282F"/>
<path d="M440.292 362.166C437.524 363.024 435.391 365.638 435.111 368.524C435.008 369.578 435.164 370.721 435.851 371.526C436.679 372.493 438.112 372.758 439.353 372.484C440.596 372.209 441.685 371.485 442.711 370.732C444.153 369.67 445.637 368.341 445.847 366.561C446.051 364.816 444.848 363.089 443.233 362.394C441.62 361.698 439.713 361.92 438.128 362.682" fill="#17282F"/>
<path d="M444.617 386.791C444.101 388.532 443.486 390.28 442.41 391.745C441.337 393.209 439.73 394.373 437.921 394.537C436.112 394.703 434.153 393.672 433.593 391.943C433.292 392.977 432.436 393.857 431.382 394.085C430.329 394.313 429.132 393.816 428.636 392.86C428.141 391.904 428.478 390.572 429.417 390.044C428.349 390.647 427.018 391.255 425.96 390.632C425.501 390.361 425.185 389.891 425.021 389.384C424.482 387.708 425.524 385.952 426.676 384.621C427.826 383.291 429.197 381.976 429.485 380.241C429.716 378.848 429.193 377.457 428.852 376.087C428.47 374.56 428.31 372.947 428.658 371.411C429.008 369.875 429.913 368.421 431.286 367.649C432.658 366.876 434.509 366.901 435.724 367.903L435.95 370.173L444.617 386.791Z" fill="#17282F"/>
<path d="M465.343 413.214C465.343 413.214 468.456 446.08 465.842 450.362C463.227 454.642 431.231 499.379 431.231 499.379L431.304 499.433C430.684 499.687 430.02 499.951 429.271 500.225C428.159 500.63 426.982 500.83 425.796 500.839C424.36 500.85 422.452 500.786 421.419 500.426C420.139 499.98 418.984 501.323 419.683 502.337C420.383 503.349 423.879 504.659 428.22 504.238C432.563 503.814 427.683 508.642 425.935 510.433C424.187 512.225 419.043 518.019 419.168 518.992C419.352 520.419 420.914 520.486 422.618 518.656C424.342 516.805 429.814 511.701 430.715 512.67C431.603 513.623 422.586 522.619 422.586 522.619C422.586 522.619 420.347 524.23 421.351 525.385C423.163 527.465 432.044 517.195 432.866 516.197C433.438 515.503 434.454 516.521 433.8 517.233C433.13 517.965 424.598 525.997 426.422 528.131C427.822 529.771 433.806 519.753 436.502 519.072C439.196 518.389 431.191 526.206 432.591 527.717C433.114 528.279 433.58 528.627 437.531 523.473C439.746 520.582 443.338 514.451 446.132 509.494C450.336 504.95 491.73 459.995 492.047 451.601C492.382 442.756 493.964 412.845 493.964 412.845L465.343 413.214Z" fill="#F68260"/>
<path d="M415.965 559.506L415.586 547.305L438.437 546.452L439.18 564.296L437.766 564.44C431.473 565.026 405.732 566.975 401.468 565.854C396.714 564.604 415.965 559.506 415.965 559.506Z" fill="#18BA33"/>
<path d="M401.218 565.777C401.144 565.777 401.075 565.777 401.002 565.777C400.887 565.742 400.806 565.707 400.758 565.668H400.976C401.043 565.707 401.124 565.742 401.218 565.777Z" fill="white"/>
<path d="M401.675 565.902C401.391 565.866 401.165 565.824 401.002 565.777C401.075 565.777 401.145 565.777 401.218 565.777C401.293 565.804 401.375 565.829 401.467 565.854C401.533 565.871 401.602 565.887 401.675 565.902Z" fill="#6C7A7F"/>
<path d="M400.977 565.668H400.758C400.748 565.66 400.738 565.65 400.732 565.641C400.609 565.492 400.63 565.32 400.76 565.136C400.658 565.339 400.718 565.518 400.977 565.668Z" fill="#7D969B"/>
<path d="M419.274 565.785C419.152 565.785 419.022 565.785 418.898 565.785C426.64 565.364 434.625 564.732 437.765 564.44L439.178 564.296C434.209 564.921 426.494 565.461 419.274 565.785Z" fill="white"/>
<path d="M417.32 565.867C417.844 565.841 418.371 565.813 418.899 565.784C419.023 565.784 419.152 565.784 419.275 565.784C418.619 565.814 417.967 565.841 417.32 565.867Z" fill="#6C7A7F"/>
<path d="M405.062 562.871C405.835 562.58 406.431 562.38 406.549 562.34C406.04 562.516 405.54 562.694 405.062 562.871Z" fill="#7D969B"/>
<path d="M407.113 566.105C404.67 566.105 402.753 566.043 401.676 565.904C401.602 565.888 401.533 565.872 401.468 565.856C401.376 565.831 401.293 565.805 401.218 565.779C401.125 565.744 401.044 565.708 400.977 565.67C400.718 565.52 400.658 565.34 400.76 565.137C401.278 564.399 403.52 563.458 405.062 562.875C405.54 562.698 406.04 562.52 406.549 562.344C406.564 562.34 406.572 562.337 406.572 562.337C407.905 562.343 408.702 565.203 408.702 565.203L430.897 564.171C430.901 564.252 430.909 564.295 430.917 564.296H430.918C430.932 564.296 430.942 564.251 430.956 564.168L439.124 563.788L439.18 564.298L437.766 564.441C434.626 564.734 426.641 565.365 418.9 565.787C418.372 565.815 417.845 565.843 417.321 565.87C413.529 566.02 409.962 566.105 407.113 566.105Z" fill="#7BF890"/>
<path d="M439.481 563.757C439.482 563.766 439.349 563.786 439.09 563.814C438.753 563.849 438.382 563.885 437.965 563.924C436.838 564.018 435.453 564.13 433.818 564.262C430.316 564.522 425.472 564.815 420.117 565.023C414.758 565.231 409.906 565.311 406.394 565.324C404.753 565.318 403.364 565.312 402.234 565.309C401.814 565.3 401.444 565.294 401.104 565.286C400.845 565.278 400.709 565.268 400.709 565.259C400.709 565.249 400.845 565.24 401.104 565.23C401.444 565.222 401.814 565.212 402.234 565.202C403.364 565.182 404.752 565.157 406.392 565.128C409.902 565.066 414.75 564.954 420.105 564.746C425.458 564.538 430.301 564.275 433.805 564.067C435.442 563.967 436.829 563.885 437.957 563.818C438.376 563.797 438.746 563.776 439.086 563.758C439.345 563.747 439.481 563.747 439.481 563.757Z" fill="#17282F"/>
<path d="M408.723 565.558C408.639 565.572 408.536 564.581 407.872 563.605C407.225 562.616 406.352 562.141 406.396 562.069C406.409 562 407.405 562.393 408.103 563.452C408.812 564.501 408.793 565.572 408.723 565.558Z" fill="#17282F"/>
<path d="M415.334 561.88C415.271 561.922 414.934 561.542 414.58 561.03C414.227 560.518 413.992 560.068 414.055 560.025C414.118 559.98 414.456 560.359 414.808 560.873C415.162 561.385 415.398 561.837 415.334 561.88Z" fill="#17282F"/>
<path d="M417.148 560.831C417.099 560.889 416.729 560.662 416.322 560.322C415.914 559.984 415.625 559.662 415.673 559.604C415.723 559.544 416.092 559.772 416.5 560.11C416.906 560.449 417.196 560.772 417.148 560.831Z" fill="#17282F"/>
<path d="M418.235 558.631C418.239 558.707 417.707 558.796 417.048 558.828C416.39 558.86 415.851 558.824 415.85 558.747C415.846 558.673 416.376 558.583 417.035 558.551C417.694 558.519 418.231 558.555 418.235 558.631Z" fill="#17282F"/>
<path d="M418.578 557.094C418.607 557.16 418.035 557.446 417.263 557.53C416.491 557.622 415.87 557.471 415.883 557.4C415.892 557.32 416.499 557.342 417.232 557.255C417.964 557.175 418.551 557.019 418.578 557.094Z" fill="#17282F"/>
<path d="M414.483 559.917C414.486 559.948 413.926 560.038 413.015 559.964C412.56 559.926 412.02 559.84 411.439 559.678C411.148 559.586 410.847 559.524 410.53 559.344C410.38 559.252 410.214 559.122 410.148 558.902C410.079 558.684 410.187 558.432 410.35 558.305C411.726 557.526 413.16 558.261 413.708 558.968C414.01 559.326 414.155 559.684 414.226 559.929C414.294 560.178 414.295 560.321 414.278 560.324C414.227 560.345 414.156 559.749 413.562 559.097C413.268 558.777 412.831 558.47 412.276 558.329C411.752 558.196 411.014 558.182 410.531 558.515C410.304 558.696 410.407 558.968 410.671 559.112C410.918 559.258 411.235 559.342 411.51 559.433C412.074 559.603 412.595 559.708 413.036 559.769C413.922 559.891 414.482 559.872 414.483 559.917Z" fill="#17282F"/>
<path d="M414.106 560.003C414.086 560.021 413.854 559.653 413.898 558.99C413.921 558.665 414.025 558.275 414.258 557.902C414.506 557.567 414.821 557.104 415.453 557.107C415.794 557.137 415.974 557.519 415.93 557.767C415.913 558.026 415.806 558.251 415.706 558.433C415.502 558.807 415.266 559.114 415.046 559.349C414.603 559.815 414.245 560.001 414.229 559.974C414.201 559.939 414.511 559.699 414.898 559.219C415.09 558.979 415.298 558.677 415.479 558.314C415.67 557.997 415.786 557.434 415.415 557.382C415.046 557.359 414.685 557.741 414.471 558.042C414.253 558.367 414.138 558.715 414.093 559.013C414.003 559.614 414.154 559.99 414.106 560.003Z" fill="#17282F"/>
<path d="M438.778 557.524C438.774 557.576 438.121 557.485 437.093 557.646C436.074 557.8 434.668 558.273 433.466 559.304C432.269 560.338 431.592 561.66 431.29 562.643C430.977 563.637 430.969 564.297 430.917 564.293C430.901 564.291 430.886 564.128 430.9 563.831C430.91 563.534 430.965 563.105 431.101 562.589C431.362 561.565 432.036 560.173 433.288 559.094C434.537 558.02 436.014 557.558 437.068 557.453C437.597 557.396 438.029 557.405 438.325 557.437C438.62 557.467 438.78 557.506 438.778 557.524Z" fill="#17282F"/>
<path d="M436.048 548.107C436.124 548.103 436.293 550.2 436.424 552.792C436.556 555.384 436.6 557.488 436.522 557.492C436.446 557.496 436.278 555.399 436.146 552.806C436.016 550.215 435.97 548.109 436.048 548.107Z" fill="#17282F"/>
<path d="M427.927 562.307C427.94 562.378 426.46 562.68 424.604 562.765C422.747 562.857 421.245 562.696 421.252 562.625C421.256 562.544 422.752 562.578 424.591 562.488C426.429 562.404 427.915 562.228 427.927 562.307Z" fill="#17282F"/>
<path d="M432.406 562.13C432.462 562.185 432.295 562.452 432.155 562.799C432.012 563.145 431.944 563.454 431.866 563.453C431.792 563.454 431.735 563.096 431.899 562.694C432.062 562.293 432.354 562.077 432.406 562.13Z" fill="#17282F"/>
<path d="M434.015 559.965C434.071 560.017 433.932 560.26 433.704 560.51C433.477 560.758 433.247 560.916 433.191 560.865C433.133 560.813 433.273 560.571 433.5 560.322C433.728 560.074 433.957 559.913 434.015 559.965Z" fill="#17282F"/>
<path d="M436.392 558.914C436.377 558.993 436.073 559.001 435.743 559.133C435.408 559.256 435.177 559.452 435.116 559.402C435.052 559.361 435.232 559.029 435.644 558.873C436.056 558.714 436.411 558.844 436.392 558.914Z" fill="#17282F"/>
<path d="M438.094 558.395C438.124 558.466 437.998 558.587 437.81 558.669C437.624 558.749 437.447 558.757 437.416 558.687C437.387 558.616 437.514 558.494 437.7 558.412C437.887 558.333 438.063 558.324 438.094 558.395Z" fill="#17282F"/>
<path d="M415.884 557.402L415.814 554.649L415.9 557.384C415.89 557.389 415.885 557.394 415.884 557.402Z" fill="#20353D"/>
<path d="M415.9 557.383L415.814 554.648L436.301 555.369C436.348 556.04 436.393 556.591 436.433 556.963L418.088 557.354C418.405 557.249 418.596 557.135 418.578 557.095C418.574 557.081 418.549 557.075 418.509 557.075C418.329 557.075 417.829 557.191 417.233 557.256C416.564 557.335 416.001 557.324 415.9 557.383Z" fill="#2EB344"/>
<path d="M415.883 557.402C415.884 557.394 415.889 557.389 415.899 557.384C416 557.325 416.563 557.336 417.232 557.257C417.828 557.191 418.328 557.076 418.508 557.076C418.548 557.076 418.573 557.082 418.577 557.096C418.595 557.136 418.404 557.25 418.087 557.354L415.883 557.402Z" fill="#0F191D"/>
<path d="M438.823 555.762L438.811 555.457L438.851 555.458L438.823 555.762Z" fill="#A7A9A8"/>
<path d="M436.561 556.961C436.564 556.591 436.555 556.044 436.533 555.379L438.812 555.46L438.824 555.765L438.724 556.915L436.561 556.961Z" fill="#2EB344"/>
<path d="M436.433 556.961C436.393 556.589 436.347 556.038 436.301 555.367L436.533 555.376C436.554 556.041 436.563 556.587 436.561 556.958L436.433 556.961Z" fill="#0F191D"/>
<path d="M502.005 476.738L429.76 475.748C429.76 475.748 409.646 477.671 409.646 503.799L412.196 555.363H442.973L440.874 505.948C442.6 505.97 465.908 506.723 465.908 506.723L502.005 476.738Z" fill="#17282F"/>
<path d="M412.195 555.363C412.172 555.363 412.139 555.056 412.099 554.471C412.062 553.814 412.015 552.964 411.955 551.91C411.822 549.602 411.636 546.407 411.411 542.492C410.939 534.542 410.035 523.574 409.439 511.422C409.226 505.355 408.763 499.536 409.486 494.246C409.682 492.927 409.903 491.658 410.28 490.433C410.663 489.218 411.176 488.092 411.751 487.051C412.94 484.987 414.415 483.299 415.942 481.985C417.47 480.666 419.047 479.73 420.475 479.019C421.931 478.36 423.228 477.902 424.312 477.624C424.847 477.497 425.328 477.38 425.759 477.276C426.166 477.214 426.522 477.159 426.836 477.111C427.418 477.026 427.724 476.992 427.728 477.016C427.732 477.04 427.432 477.121 426.86 477.248C426.554 477.315 426.203 477.391 425.804 477.478C425.382 477.599 424.91 477.735 424.388 477.885C423.326 478.198 422.06 478.69 420.647 479.367C419.26 480.098 417.736 481.045 416.266 482.355C414.796 483.659 413.384 485.321 412.254 487.333C411.707 488.347 411.223 489.44 410.864 490.61C410.515 491.774 410.3 493.045 410.12 494.331C409.443 499.515 409.916 505.324 410.132 511.39C410.728 523.523 411.554 534.502 411.903 542.467C412.092 546.447 412.182 549.673 412.224 551.9C412.231 552.958 412.235 553.809 412.239 554.468C412.234 555.054 412.22 555.362 412.195 555.363Z" fill="#33535F"/>
<path d="M550.072 559.528L537.892 560.336L536.234 537.529L554.041 536.16L554.234 537.568C555.041 543.835 557.896 569.492 556.926 573.793C555.845 578.587 550.072 559.528 550.072 559.528Z" fill="#18BA33"/>
<path d="M556.517 574.625C556.428 574.625 556.333 574.59 556.234 574.525C556.293 574.552 556.349 574.566 556.402 574.566C556.626 574.566 556.805 574.328 556.926 573.793C556.941 573.729 556.954 573.659 556.968 573.586C556.918 574.117 556.844 574.445 556.74 574.535C556.672 574.597 556.596 574.625 556.517 574.625ZM553.86 570.398C553.482 569.499 553.23 568.816 553.23 568.816C553.44 569.359 553.65 569.892 553.86 570.398ZM556.386 558.021C555.682 549.811 554.665 540.918 554.234 537.568L554.041 536.159C554.917 541.57 555.806 550.269 556.386 558.021Z" fill="white"/>
<path d="M556.403 574.566C556.35 574.566 556.294 574.552 556.235 574.525C555.494 574.044 554.498 571.914 553.86 570.399C553.651 569.892 553.44 569.36 553.231 568.816C553.19 567.484 556.019 566.584 556.019 566.584L553.534 536.233L554.042 536.16L554.235 537.568C554.666 540.918 555.683 549.812 556.387 558.021C556.912 565.024 557.186 571.254 556.968 573.587C556.955 573.66 556.942 573.729 556.927 573.793C556.806 574.328 556.627 574.566 556.403 574.566Z" fill="#7BF890"/>
<path d="M553.495 535.874C553.505 535.873 553.528 536.008 553.567 536.264C553.612 536.6 553.661 536.968 553.716 537.385C553.848 538.508 554.009 539.888 554.199 541.517C554.581 545.008 555.047 549.838 555.443 555.184C555.839 560.531 556.091 565.377 556.227 568.888C556.279 570.525 556.323 571.915 556.357 573.045C556.364 573.465 556.369 573.836 556.375 574.176C556.375 574.434 556.371 574.57 556.361 574.57C556.352 574.572 556.337 574.436 556.319 574.179C556.297 573.839 556.276 573.468 556.251 573.049C556.191 571.92 556.117 570.533 556.031 568.897C555.845 565.391 555.561 560.548 555.167 555.204C554.769 549.862 554.337 545.032 554.004 541.536C553.849 539.905 553.716 538.522 553.609 537.397C553.573 536.979 553.54 536.608 553.511 536.27C553.491 536.012 553.485 535.876 553.495 535.874Z" fill="#17282F"/>
<path d="M556.375 566.555C556.392 566.637 555.407 566.776 554.453 567.473C553.487 568.155 553.044 569.045 552.969 569.002C552.9 568.991 553.257 567.982 554.292 567.248C555.316 566.502 556.387 566.484 556.375 566.555Z" fill="#17282F"/>
<path d="M552.466 560.074C552.513 560.134 552.145 560.486 551.645 560.857C551.145 561.228 550.704 561.479 550.658 561.416C550.612 561.356 550.98 561.005 551.48 560.634C551.98 560.263 552.421 560.012 552.466 560.074Z" fill="#17282F"/>
<path d="M551.354 558.299C551.416 558.346 551.202 558.723 550.878 559.142C550.554 559.561 550.241 559.862 550.182 559.816C550.121 559.769 550.334 559.392 550.658 558.972C550.982 558.554 551.296 558.251 551.354 558.299Z" fill="#17282F"/>
<path d="M549.118 557.292C549.193 557.285 549.3 557.812 549.356 558.47C549.412 559.128 549.396 559.665 549.318 559.672C549.242 559.679 549.136 559.15 549.08 558.493C549.024 557.836 549.041 557.298 549.118 557.292Z" fill="#17282F"/>
<path d="M547.571 557C547.636 556.967 547.941 557.529 548.055 558.3C548.172 559.067 548.044 559.691 547.972 559.684C547.892 559.677 547.892 559.07 547.78 558.34C547.673 557.609 547.496 557.029 547.571 557Z" fill="#17282F"/>
<path d="M550.534 560.992C550.566 560.988 550.675 561.547 550.631 562.46C550.611 562.913 550.543 563.456 550.403 564.044C550.322 564.338 550.267 564.641 550.101 564.965C550.015 565.116 549.89 565.288 549.673 565.36C549.457 565.437 549.201 565.338 549.07 565.181C548.241 563.834 548.926 562.374 549.613 561.801C549.962 561.487 550.311 561.329 550.555 561.25C550.801 561.174 550.945 561.168 550.949 561.184C550.97 561.235 550.378 561.325 549.746 561.943C549.438 562.247 549.147 562.695 549.025 563.253C548.91 563.783 548.922 564.523 549.273 564.992C549.462 565.212 549.729 565.101 549.863 564.831C550.002 564.579 550.074 564.26 550.155 563.981C550.305 563.412 550.393 562.888 550.438 562.444C550.529 561.555 550.489 560.996 550.534 560.992Z" fill="#17282F"/>
<path d="M550.635 561.368C550.653 561.388 550.295 561.632 549.629 561.612C549.304 561.6 548.911 561.509 548.531 561.291C548.185 561.056 547.713 560.755 547.693 560.126C547.712 559.783 548.087 559.588 548.337 559.624C548.596 559.632 548.825 559.731 549.011 559.826C549.393 560.016 549.707 560.242 549.948 560.452C550.431 560.879 550.628 561.23 550.603 561.247C550.569 561.275 550.319 560.973 549.825 560.604C549.577 560.42 549.268 560.224 548.901 560.055C548.575 559.876 548.011 559.78 547.969 560.152C547.961 560.523 548.353 560.869 548.663 561.072C548.997 561.279 549.348 561.381 549.645 561.416C549.961 561.452 550.213 561.424 550.384 561.396C550.54 561.371 550.628 561.345 550.635 561.368Z" fill="#17282F"/>
<path d="M547.289 536.801C547.341 536.802 547.274 537.458 547.471 538.479C547.659 539.493 548.183 540.882 549.255 542.045C550.331 543.207 551.677 543.837 552.671 544.103C553.674 544.379 554.333 544.365 554.33 544.417C554.33 544.434 554.167 544.456 553.87 544.453C553.574 544.45 553.142 544.412 552.623 544.295C551.589 544.069 550.174 543.444 549.053 542.233C547.933 541.021 547.421 539.561 547.278 538.513C547.202 537.985 547.197 537.553 547.218 537.256C547.239 536.961 547.271 536.8 547.289 536.801Z" fill="#17282F"/>
<path d="M537.971 539.86C537.964 539.784 540.056 539.541 542.64 539.319C545.227 539.096 547.328 538.977 547.335 539.055C547.341 539.131 545.249 539.372 542.665 539.594C540.079 539.817 537.977 539.936 537.971 539.86Z" fill="#17282F"/>
<path d="M552.452 547.473C552.521 547.458 552.875 548.926 553.025 550.777C553.183 552.63 553.075 554.134 553.004 554.133C552.923 554.131 552.905 552.634 552.749 550.801C552.6 548.966 552.372 547.487 552.452 547.473Z" fill="#17282F"/>
<path d="M552.117 543.007C552.169 542.947 552.441 543.105 552.794 543.234C553.145 543.364 553.455 543.42 553.457 543.5C553.462 543.574 553.105 543.643 552.698 543.493C552.291 543.344 552.065 543.06 552.117 543.007Z" fill="#17282F"/>
<path d="M549.897 541.473C549.947 541.414 550.195 541.545 550.452 541.762C550.708 541.981 550.876 542.205 550.827 542.263C550.777 542.322 550.528 542.191 550.272 541.973C550.016 541.755 549.848 541.53 549.897 541.473Z" fill="#17282F"/>
<path d="M548.762 539.136C548.84 539.145 548.859 539.448 549.003 539.775C549.137 540.104 549.342 540.329 549.294 540.393C549.257 540.457 548.917 540.289 548.747 539.883C548.574 539.477 548.688 539.117 548.762 539.136Z" fill="#17282F"/>
<path d="M548.185 537.453C548.253 537.42 548.381 537.543 548.468 537.727C548.556 537.911 548.57 538.085 548.501 538.12C548.432 538.152 548.304 538.029 548.217 537.846C548.129 537.661 548.116 537.485 548.185 537.453Z" fill="#17282F"/>
<path d="M545.223 559.852L547.952 559.67C547.957 559.679 547.964 559.685 547.971 559.686L545.223 559.852Z" fill="#A7A9A8"/>
<path d="M545.223 559.852V539.352C545.889 539.281 546.439 539.217 546.809 539.164L547.847 557.486C547.735 557.185 547.619 557.001 547.575 557.001C547.572 557.001 547.571 557.001 547.569 557.002C547.495 557.031 547.672 557.612 547.779 558.342C547.88 559.007 547.889 559.57 547.952 559.67L545.223 559.852Z" fill="#2EB344"/>
<path d="M547.972 559.684C547.965 559.683 547.959 559.677 547.953 559.667C547.891 559.567 547.881 559.005 547.78 558.34C547.673 557.609 547.496 557.029 547.571 557C547.572 556.998 547.573 556.998 547.576 556.998C547.62 556.998 547.736 557.183 547.848 557.484L547.972 559.684Z" fill="#0F191D"/>
<path d="M545.223 536.84V536.801L545.525 536.815L545.223 536.84Z" fill="#A7A9A8"/>
<path d="M545.223 539.117V536.838L545.525 536.813L546.68 536.873L546.801 539.033C546.431 539.044 545.885 539.073 545.223 539.117Z" fill="#2EB344"/>
<path d="M545.223 539.352V539.119C545.885 539.076 546.431 539.046 546.801 539.035L546.809 539.164C546.439 539.217 545.889 539.281 545.223 539.352Z" fill="#0F191D"/>
<path d="M475.37 536.974L475.386 536.996C475.386 536.996 536.938 503.385 543.913 492.446C551.105 481.168 545.974 470.579 545.974 470.579L494.174 477.489L457.338 514.388C449.306 520.753 434.838 534.04 434.838 547.143C434.838 569.574 463.834 565.909 484.649 565.957C513.11 566.021 545.043 566.152 545.043 566.152L545.123 535.579L475.37 536.974Z" fill="#17282F"/>
<path d="M460.749 543.371C460.816 543.524 464.21 542.191 468.33 540.397C472.453 538.601 475.74 537.024 475.674 536.873C475.608 536.722 472.214 538.055 468.092 539.849C463.97 541.643 460.684 543.22 460.749 543.371Z" fill="#33535F"/>
<path d="M465.592 535.876C465.586 536.041 467.997 536.253 470.974 536.351C473.954 536.448 476.373 536.392 476.378 536.226C476.384 536.063 473.973 535.851 470.994 535.752C468.017 535.656 465.597 535.711 465.592 535.876Z" fill="#33535F"/>
<path d="M490.108 482.653C490.125 482.671 489.924 482.892 489.528 483.295C489.075 483.744 488.493 484.32 487.772 485.033C486.164 486.583 483.944 488.721 481.227 491.337C475.596 496.664 467.925 503.923 459.449 511.943C455.201 515.971 451.06 519.72 447.472 523.284C443.9 526.86 440.961 530.364 438.988 533.629C436.963 536.866 435.981 539.836 435.489 541.902C435.379 542.413 435.279 542.873 435.188 543.288C435.133 543.676 435.085 544.018 435.044 544.318C434.961 544.876 434.905 545.169 434.881 545.168C434.856 545.166 434.865 544.869 434.905 544.304C434.928 543.999 434.955 543.652 434.984 543.257C435.04 542.847 435.133 542.376 435.225 541.845C435.64 539.739 436.568 536.692 438.567 533.376C440.513 530.033 443.449 526.456 447.019 522.833C450.605 519.221 454.725 515.468 458.973 511.437C467.504 503.475 475.225 496.268 480.891 490.98C483.671 488.429 485.943 486.347 487.587 484.837C488.345 484.163 488.957 483.617 489.432 483.192C489.859 482.823 490.092 482.636 490.108 482.653Z" fill="#33535F"/>
<path d="M471.618 415.864C466.113 418.836 459.242 416.386 456.86 410.599C455.566 407.455 454.521 404.888 454.521 404.888C454.521 404.888 446.572 407.706 442.522 400.422C440.246 396.328 437.038 389.335 434.664 383.994C432.656 379.475 433.141 374.244 435.949 370.175C442.469 361.943 447.638 363.323 458.002 365.007L459.541 365.256L476.222 402.251C478.496 407.295 476.486 413.238 471.618 415.864Z" fill="#F8A58D"/>
<path d="M439.749 387.598C439.97 386.968 439.641 386.277 439.01 386.054C438.379 385.831 437.687 386.162 437.466 386.793C437.243 387.422 437.574 388.114 438.205 388.337C438.835 388.559 439.526 388.229 439.749 387.598Z" fill="#17282F"/>
<path d="M436.465 386.38C436.649 386.445 437.07 385.502 438.077 384.953C439.075 384.388 440.099 384.528 440.141 384.338C440.165 384.25 439.926 384.084 439.474 384.013C439.03 383.941 438.365 383.998 437.741 384.346C437.115 384.693 436.715 385.228 436.541 385.642C436.362 386.064 436.379 386.354 436.465 386.38Z" fill="#17282F"/>
<path d="M448.515 381.653C448.18 382.231 448.376 382.97 448.956 383.306C449.533 383.641 450.273 383.443 450.609 382.863C450.944 382.286 450.745 381.546 450.167 381.211C449.588 380.877 448.849 381.074 448.515 381.653Z" fill="#17282F"/>
<path d="M447.504 381.38C447.686 381.445 448.109 380.502 449.116 379.953C450.116 379.388 451.137 379.528 451.18 379.338C451.202 379.25 450.964 379.084 450.514 379.013C450.07 378.941 449.405 378.998 448.78 379.346C448.153 379.693 447.753 380.228 447.58 380.642C447.402 381.064 447.417 381.354 447.504 381.38Z" fill="#17282F"/>
<path d="M448.364 392.076C448.328 391.994 447.635 392.204 446.544 392.612C446.264 392.726 446.024 392.778 445.929 392.646C445.796 392.512 445.745 392.175 445.709 391.787C445.609 390.979 445.508 390.16 445.401 389.303C444.925 385.784 444.396 382.952 444.217 382.975C444.039 383 444.279 385.871 444.753 389.391C444.877 390.247 444.996 391.062 445.115 391.867C445.183 392.226 445.189 392.682 445.563 393.043C445.752 393.223 446.045 393.268 446.244 393.22C446.449 393.179 446.597 393.098 446.728 393.035C447.772 392.52 448.4 392.159 448.364 392.076Z" fill="#17282F"/>
<path d="M454.453 404.786C454.453 404.786 459.292 402.662 462.546 396.909C462.546 396.909 463.134 403.406 455.461 406.695L454.453 404.786Z" fill="#F68260"/>
<path d="M462.873 373.469C462.997 373.342 468.74 369.932 470.449 376.208C471.926 381.633 465.793 382.566 465.717 382.396C465.642 382.224 462.873 373.469 462.873 373.469Z" fill="#F8A58D"/>
<path d="M466.822 379.206C466.839 379.182 466.935 379.236 467.114 379.25C467.288 379.263 467.56 379.215 467.794 379.015C468.267 378.612 468.407 377.572 468.087 376.63C467.927 376.152 467.662 375.74 467.358 375.43C467.06 375.108 466.716 374.934 466.423 374.987C466.126 375.024 465.991 375.262 465.982 375.431C465.964 375.602 466.036 375.692 466.012 375.712C466.003 375.731 465.868 375.667 465.832 375.436C465.815 375.326 465.831 375.182 465.915 375.036C466.003 374.89 466.167 374.771 466.366 374.72C466.776 374.6 467.272 374.836 467.606 375.176C467.963 375.511 468.271 375.97 468.452 376.506C468.804 377.562 468.63 378.736 467.962 379.23C467.631 379.459 467.287 379.462 467.084 379.398C466.876 379.328 466.807 379.223 466.822 379.206Z" fill="#F68260"/>
<path d="M460.211 414.966C460.211 414.966 474.547 390.914 496.709 411.156C511.169 424.364 534.767 451.584 543.197 462.253C545.087 464.646 548.043 468.276 545.974 470.515C539.655 477.353 522.431 492.655 490.543 481.239L460.327 439.118C455.158 431.911 455.111 422.222 460.211 414.966Z" fill="#18BA33"/>
<path d="M478.592 403.518L474.548 396.91L453.906 413.334L457.762 419.535L478.592 403.518Z" fill="#18BA33"/>
<path d="M461.229 418.195C461.225 418.195 461.221 418.194 461.219 418.193C461.169 418.142 460.842 417.895 460.359 417.538L474.711 406.502L477.706 404.369C477.706 404.369 461.719 418.195 461.229 418.195Z" fill="#2EB344"/>
<path d="M460.359 417.539C458.59 416.231 454.729 413.443 454.729 413.443L460.457 416.652L474.711 406.503L460.359 417.539Z" fill="#2EB344"/>
<path d="M478.757 403.44C478.735 403.406 478.366 403.609 477.722 404.006C477.078 404.405 476.162 405.006 475.046 405.772C472.814 407.302 469.811 409.529 466.503 411.984C464.25 413.652 462.127 415.184 460.313 416.44L460.578 416.426C458.65 415.382 457.038 414.526 455.903 413.944C454.766 413.361 454.107 413.052 454.081 413.1C454.057 413.148 454.67 413.548 455.763 414.208C456.857 414.868 458.433 415.789 460.334 416.877L460.465 416.953L460.599 416.865C462.453 415.648 464.603 414.136 466.857 412.465C470.089 410.032 473.013 407.833 475.294 406.116C476.29 405.369 477.142 404.73 477.853 404.197C478.458 403.744 478.781 403.474 478.757 403.44Z" fill="#17282F"/>
<path d="M390.632 466.537L386.71 464.942C386.71 464.942 384.184 464.359 380.065 462.392C378.996 461.882 378.028 461.184 377.192 460.346C376.178 459.329 374.885 457.922 374.417 456.934C373.838 455.708 372.072 455.826 371.838 457.034C371.606 458.243 373.122 461.655 376.465 464.456C379.81 467.256 372.948 467.159 370.445 467.168C367.944 467.178 360.204 467.57 359.597 468.342C358.708 469.472 359.756 470.635 362.254 470.567C364.784 470.498 372.26 470.825 372.201 472.146C372.142 473.447 359.406 473.32 359.406 473.32C359.406 473.32 356.686 472.854 356.569 474.379C356.354 477.13 369.905 476.266 371.192 476.153C372.086 476.074 372.074 477.511 371.109 477.544C370.116 477.579 358.406 477.123 358.162 479.922C357.974 482.068 369.314 479.315 371.69 480.759C374.068 482.203 362.88 481.972 362.784 484.031C362.748 484.798 362.828 485.374 369.272 484.579C375.872 483.765 393.393 478.647 393.393 478.647L390.438 466.375" fill="#F8A58D"/>
<path d="M467.228 423.324C467.228 423.324 446.146 452.392 441.261 453.527C436.374 454.664 382.041 463.199 382.041 463.199L384.758 480.934C384.758 480.934 452.204 479.047 458.745 473.087C465.289 467.127 485.013 436.819 485.013 436.819L467.228 423.324Z" fill="#F8A58D"/>
<path d="M452.389 472.574C452.366 472.599 452.531 472.812 452.95 473.062C453.363 473.299 454.057 473.555 454.943 473.484C455.815 473.431 456.894 472.929 457.542 471.92C458.205 470.959 458.437 469.453 457.719 468.224C457.374 467.619 456.819 467.128 456.165 466.924C455.521 466.727 454.83 466.776 454.271 467.072C453.094 467.691 452.919 469.162 453.477 469.931C454.075 470.746 454.999 470.696 455.431 470.516C455.907 470.316 456.018 470.022 455.991 470.013C455.954 469.975 455.783 470.194 455.361 470.295C454.973 470.396 454.211 470.324 453.833 469.703C453.45 469.115 453.65 467.968 454.521 467.563C454.942 467.352 455.489 467.322 455.986 467.483C456.479 467.641 456.917 468.025 457.199 468.522C457.789 469.527 457.625 470.775 457.078 471.623C456.543 472.503 455.666 472.962 454.895 473.065C453.293 473.268 452.426 472.465 452.389 472.574Z" fill="#F68260"/>
<path d="M491.293 432.172L471.274 466.508L448.217 447.409C448.217 447.409 464.186 421.258 471.737 413.146L491.293 432.172Z" fill="#18BA33"/>
<path d="M433.925 497.722C433.957 497.55 436.588 498.493 438.595 501.142C440.629 503.77 440.853 506.557 440.68 506.542C440.472 506.595 439.961 504.027 438.044 501.565C436.165 499.071 433.82 497.909 433.925 497.722Z" fill="#33535F"/>
<path d="M457.81 376.586C458.049 377.15 458.654 377.475 459.251 377.608C459.85 377.74 460.47 377.724 461.073 377.839C462.018 378.019 462.899 378.53 463.522 379.264C463.795 379.584 464.023 379.95 464.361 380.2C464.697 380.452 465.19 380.56 465.531 380.315C466.07 379.927 465.823 379.088 465.526 378.496C464.282 376.015 463.038 373.531 461.795 371.05L454.729 372.584L457.766 376.123" fill="#17282F"/>
<path d="M434.726 368.146C435.545 367.167 436.761 366.371 437.717 367.217C438.674 368.062 439.085 369.355 439.377 370.597C439.67 371.841 439.901 373.139 440.618 374.194C441.522 375.523 443.186 376.294 444.785 376.122C446.383 375.95 447.846 374.845 448.447 373.354C449.407 374.799 450.398 376.273 451.786 377.315C453.173 378.357 455.062 378.903 456.677 378.267C458.293 377.631 459.331 375.561 458.494 374.039C459.425 374.743 460.535 375.275 461.701 375.27C462.867 375.265 464.074 374.625 464.506 373.541C464.938 372.458 464.342 371.011 463.206 370.749C464.505 371.602 466.345 371.61 467.571 370.658C468.797 369.705 469.226 367.81 468.415 366.486C467.606 365.161 465.601 364.707 464.369 365.651C465.241 365.122 466.155 364.547 466.63 363.643C467.106 362.741 466.927 361.41 466.001 360.979C464.887 360.465 463.699 361.493 462.493 361.714C460.523 362.077 458.91 360.301 457.317 359.09C454.437 356.902 450.538 356.313 446.993 357.033C443.449 357.753 440.235 359.677 437.514 362.061C435.734 363.621 434.006 365.891 434.726 368.146Z" fill="#17282F"/>
<path d="M438.908 382.519C438.923 383.099 438.354 383.585 437.695 383.857C437.031 384.113 436.284 384.15 435.895 383.719C435.507 383.302 435.886 382.337 436.924 381.922C437.964 381.509 438.904 381.95 438.908 382.519Z" fill="#17282F"/>
<path d="M449.471 377.46C449.359 378.032 448.65 378.391 447.942 378.728C447.218 379.028 446.476 379.318 445.975 379.019C445.743 378.859 445.662 378.499 445.836 378.054C446.004 377.612 446.452 377.112 447.094 376.826C447.735 376.54 448.406 376.54 448.847 376.71C449.295 376.879 449.507 377.18 449.471 377.46Z" fill="#17282F"/>
<path d="M452.535 389.747C452.709 389.677 453.155 391.03 452.485 392.545C451.827 394.067 450.529 394.657 450.462 394.482C450.351 394.314 451.297 393.57 451.849 392.267C452.43 390.978 452.337 389.778 452.535 389.747Z" fill="#17282F"/>
<path d="M467.915 368.438C467.924 368.457 467.824 368.525 467.611 368.628C467.395 368.714 467.056 368.824 466.599 368.838C465.74 368.872 464.187 368.517 463.37 366.925L463.736 367C462.736 367.952 461.168 368.706 459.338 368.749C457.536 368.806 455.419 368.17 453.956 366.518L454.548 366.284C454.603 367.198 454.038 368.076 453.292 368.552C452.547 369.044 451.63 369.289 450.703 369.176C449.142 368.941 447.99 367.926 447.075 366.958C446.152 365.964 445.418 364.924 444.567 364.105C443.731 363.274 442.776 362.665 441.776 362.492C440.778 362.308 439.795 362.512 438.978 362.836C437.324 363.509 436.278 364.626 435.558 365.33C434.844 366.065 434.458 366.486 434.416 366.453C434.384 366.424 434.698 365.948 435.356 365.149C436.027 364.382 437.031 363.176 438.79 362.382C439.656 362.006 440.726 361.742 441.872 361.924C443.027 362.096 444.116 362.778 445.01 363.644C445.926 364.502 446.684 365.554 447.572 366.492C448.444 367.417 449.523 368.304 450.79 368.486C452.256 368.688 453.95 367.648 453.875 366.312L453.82 365.333L454.467 366.078C455.747 367.552 457.664 368.177 459.326 368.157C461.015 368.152 462.468 367.501 463.423 366.664L463.66 366.457L463.79 366.738C464.42 368.12 465.802 368.556 466.602 368.589C467.454 368.626 467.895 368.378 467.915 368.438Z" fill="#33535F"/>
<path d="M494.641 426.869C494.574 426.87 494.579 426.074 494.331 424.676C494.075 423.288 493.515 421.273 492.154 419.14C490.815 417.025 488.639 414.766 485.563 413.49C482.523 412.209 478.661 411.898 475.029 413.124C473.222 413.733 471.606 414.717 470.179 415.841C468.75 416.96 467.522 418.222 466.447 419.506C464.297 422.081 462.742 424.714 461.386 426.878C460.047 429.06 458.954 430.825 458.147 432.012C457.753 432.61 457.421 433.058 457.198 433.364C456.974 433.668 456.847 433.821 456.827 433.808C456.785 433.78 457.187 433.097 457.918 431.866C458.697 430.526 459.723 428.761 460.963 426.626C462.27 424.425 463.787 421.752 465.955 419.098C468.122 416.488 470.978 413.79 474.807 412.466C478.615 411.182 482.647 411.529 485.814 412.902C489.022 414.274 491.245 416.669 492.571 418.881C493.921 421.117 494.419 423.208 494.599 424.634C494.685 425.352 494.711 425.913 494.691 426.293C494.682 426.672 494.665 426.869 494.641 426.869Z" fill="#17282F"/>
<path d="M488.755 439.426C488.695 439.439 488.858 438.878 488.219 438.34C487.914 438.071 487.462 437.894 486.873 437.834C486.298 437.751 485.562 437.79 484.791 437.458C483.217 436.808 482.191 434.976 481.665 433.018C481.39 432.031 481.173 430.998 480.803 429.998C480.443 429.002 479.889 428.043 479.003 427.415C478.123 426.78 477.039 426.494 475.987 426.367C474.927 426.242 473.883 426.283 472.87 426.311C470.862 426.387 468.914 426.306 467.483 425.514C466.07 424.747 465.317 423.566 465.126 422.7C465.013 422.267 465.038 421.916 465.061 421.688C465.105 421.46 465.139 421.346 465.163 421.35C465.234 421.354 465.117 421.842 465.385 422.626C465.637 423.395 466.386 424.428 467.71 425.078C469.022 425.74 470.849 425.786 472.847 425.672C474.814 425.595 477.29 425.403 479.409 426.854C480.447 427.587 481.071 428.704 481.443 429.764C481.826 430.834 482.03 431.886 482.282 432.851C482.757 434.747 483.67 436.412 484.99 437.008C485.626 437.32 486.319 437.33 486.933 437.45C487.547 437.546 488.097 437.803 488.405 438.142C488.726 438.47 488.851 438.836 488.846 439.078C488.845 439.32 488.773 439.431 488.755 439.426Z" fill="#FAFAF9"/>
<path d="M480.793 450.835C480.724 450.854 480.687 450.386 480.224 449.769C479.78 449.148 478.84 448.473 477.505 448.082C476.193 447.643 474.463 447.69 472.589 447.079C471.665 446.779 470.688 446.198 470.056 445.281C469.421 444.386 469.08 443.354 468.504 442.509C467.333 440.805 465.217 440.231 463.443 439.794C461.624 439.367 459.892 438.91 458.692 437.99C457.497 437.089 456.924 435.934 456.801 435.118C456.677 434.287 456.881 433.847 456.908 433.858C456.972 433.866 456.871 434.314 457.067 435.061C457.257 435.797 457.849 436.814 458.98 437.593C460.108 438.382 461.747 438.778 463.588 439.17C464.512 439.377 465.5 439.623 466.475 440.055C467.441 440.483 468.419 441.139 469.077 442.117C469.724 443.079 470.056 444.103 470.612 444.889C471.148 445.678 471.952 446.177 472.801 446.476C474.513 447.079 476.268 447.093 477.659 447.617C479.047 448.088 480.036 448.89 480.449 449.619C480.667 449.976 480.751 450.293 480.791 450.503C480.816 450.719 480.817 450.831 480.793 450.835Z" fill="#FAFAF9"/>
<path d="M517.6 432.764C517.621 432.766 517.617 432.958 517.554 433.32C517.481 433.678 517.325 434.205 516.976 434.814C516.3 436.048 514.748 437.489 512.485 438.529C511.365 439.06 510.098 439.524 508.794 440.101C507.497 440.68 506.148 441.396 505.056 442.526C502.782 444.764 501.673 448.23 500.08 451.622C499.278 453.322 498.33 454.974 496.985 456.229C496.65 456.54 496.318 456.85 495.933 457.087C495.569 457.35 495.197 457.599 494.796 457.782C494.005 458.173 493.184 458.432 492.377 458.618C489.136 459.304 486.188 459.133 483.881 459.864C481.549 460.498 480.056 461.94 479.414 463.098C478.748 464.273 478.812 465.082 478.729 465.066C478.71 465.066 478.684 464.874 478.717 464.509C478.748 464.144 478.858 463.6 479.177 462.97C479.769 461.714 481.31 460.12 483.738 459.396C486.128 458.577 489.137 458.693 492.23 457.994C493 457.808 493.77 457.557 494.5 457.187C494.87 457.017 495.21 456.784 495.546 456.537C495.901 456.317 496.205 456.026 496.516 455.737C497.758 454.569 498.666 452.994 499.454 451.323C501.022 448.002 502.16 444.445 504.605 442.074C505.79 440.874 507.236 440.137 508.565 439.573C509.905 439.006 511.174 438.573 512.284 438.082C514.505 437.129 516.03 435.806 516.745 434.673C517.477 433.54 517.524 432.744 517.6 432.764Z" fill="#FAFAF9"/>
<path d="M531.034 449.261C531.034 449.261 531.007 450.111 530.184 451.341C529.395 452.58 527.711 454.001 525.318 455.029C522.943 456.116 519.854 456.617 516.918 458.197C515.456 458.984 514.154 460.165 513.283 461.744C512.383 463.305 511.812 465.133 511.031 466.956C509.482 470.657 506.682 473.528 503.69 475.244C500.683 476.987 497.499 477.563 494.907 477.49C492.298 477.425 490.242 476.823 488.911 476.265C488.24 475.994 487.74 475.733 487.411 475.542C487.083 475.351 486.918 475.241 486.928 475.218C486.958 475.164 487.662 475.54 489.007 476.013C490.346 476.485 492.374 476.999 494.911 476.999C497.435 477.006 500.49 476.399 503.367 474.69C506.235 473.005 508.903 470.242 510.395 466.681C511.156 464.905 511.738 463.051 512.692 461.404C513.62 459.733 515.072 458.435 516.611 457.635C519.707 456.02 522.8 455.581 525.126 454.578C527.483 453.63 529.136 452.326 529.964 451.185C530.822 450.053 530.954 449.23 531.034 449.261Z" fill="#FAFAF9"/>
<path d="M543.131 462.299C543.203 462.439 540.758 463.053 537.764 465.551C536.296 466.804 534.728 468.54 533.539 470.798C532.932 471.915 532.5 473.187 531.942 474.51C531.387 475.808 530.615 477.225 529.267 478.125C527.934 479.02 526.392 479.308 524.984 479.47C523.562 479.631 522.208 479.676 520.951 479.886C518.422 480.282 516.228 481.075 514.484 481.92C510.988 483.643 509.271 485.435 509.183 485.319C509.156 485.292 509.552 484.825 510.387 484.1C511.22 483.377 512.51 482.412 514.263 481.481C516.016 480.561 518.25 479.698 520.848 479.253C522.147 479.022 523.523 478.96 524.904 478.796C526.278 478.631 527.704 478.341 528.878 477.551C530.055 476.767 530.768 475.503 531.318 474.237C531.866 472.965 532.326 471.653 532.974 470.494C534.24 468.168 535.904 466.41 537.454 465.172C539.02 463.941 540.464 463.204 541.49 462.796C542.006 462.593 542.41 462.452 542.694 462.381C542.974 462.304 543.124 462.275 543.131 462.299Z" fill="#FAFAF9"/>
<path d="M489.593 437.606C489.542 437.478 491.062 437.306 492.641 435.684C493.422 434.891 494.182 433.774 494.774 432.416C495.366 431.062 495.77 429.454 496.201 427.758C496.633 426.062 497.086 424.422 497.785 423.023C498.478 421.628 499.376 420.51 500.289 419.755C501.204 419 502.108 418.611 502.748 418.467C503.393 418.318 503.76 418.354 503.761 418.388C503.806 418.519 502.269 418.58 500.613 420.126C499.794 420.878 498.988 421.964 498.36 423.3C497.732 424.638 497.304 426.239 496.874 427.93C496.444 429.624 496.014 431.264 495.357 432.68C494.704 434.09 493.857 435.242 492.982 436.038C492.106 436.836 491.229 437.275 490.6 437.462C489.966 437.65 489.598 437.639 489.593 437.606Z" fill="#FAFAF9"/>
<path d="M485.779 413.662C485.603 413.633 486.036 411.647 487.685 409.861C489.319 408.061 491.256 407.453 491.301 407.625C491.391 407.811 489.709 408.654 488.197 410.33C486.663 411.985 485.972 413.734 485.779 413.662Z" fill="#FAFAF9"/>
<path d="M476.424 399.956C476.5 400.015 475.694 401.208 474.333 403.089C473.63 404.02 472.889 405.171 471.824 406.348C471.284 406.921 470.626 407.491 469.796 407.853C468.962 408.223 468.021 408.295 467.126 408.291C466.226 408.287 465.374 408.233 464.588 408.337C463.806 408.439 463.074 408.703 462.441 409.06C461.156 409.775 460.31 410.871 459.873 411.891C458.998 413.991 459.469 415.493 459.328 415.488C459.29 415.499 459.138 415.159 459.06 414.497C458.984 413.841 458.995 412.844 459.418 411.707C459.829 410.579 460.721 409.325 462.121 408.507C462.812 408.095 463.621 407.788 464.497 407.663C465.37 407.539 466.257 407.593 467.128 407.595C467.996 407.6 468.821 407.532 469.528 407.228C470.241 406.927 470.842 406.433 471.362 405.905C472.386 404.827 473.198 403.677 473.944 402.792C475.406 400.985 476.348 399.897 476.424 399.956Z" fill="#FAFAF9"/>
<path d="M484.011 472.18L481.475 468.645C481.481 468.635 481.485 468.63 481.492 468.621L484.019 472.144L484.011 472.18Z" fill="#C3C5C2"/>
<path d="M481.474 468.645L478.783 464.894C478.785 464.882 478.787 464.869 478.79 464.854L481.491 468.621C481.485 468.63 481.481 468.635 481.474 468.645Z" fill="#CC6B4D"/>
<path d="M484.017 472.145L481.49 468.622L478.789 464.855C478.842 464.543 478.954 463.907 479.413 463.099C480.054 461.94 481.548 460.499 483.88 459.864C484.874 459.55 485.988 459.402 487.192 459.281L484.017 472.145Z" fill="#2FDB4B"/>
<path d="M478.7 464.781L475.158 459.845L475.176 459.819L478.701 464.734C478.701 464.751 478.7 464.767 478.7 464.781Z" fill="#CC6B4D"/>
<path d="M478.701 464.734L475.176 459.819L488.734 439.329C488.738 439.392 488.738 439.427 488.753 439.427H488.754H488.756C488.772 439.427 488.825 439.345 488.841 439.171L489.866 437.62C490.038 437.603 490.286 437.559 490.6 437.465C491.212 437.284 492.06 436.863 492.913 436.104L487.337 458.694C486.042 458.845 484.825 459.024 483.737 459.397C481.309 460.121 479.768 461.716 479.176 462.972C478.857 463.601 478.746 464.145 478.716 464.51C478.708 464.594 478.704 464.669 478.701 464.734Z" fill="#2FDB4B"/>
<path d="M488.753 439.426C488.738 439.426 488.738 439.391 488.734 439.328L488.841 439.17C488.825 439.344 488.772 439.426 488.756 439.426H488.754H488.753Z" fill="#BFC0BE"/>
<path d="M478.784 464.895L478.701 464.78C478.701 464.765 478.703 464.749 478.703 464.733C478.705 464.668 478.709 464.593 478.717 464.509C478.748 464.144 478.859 463.6 479.177 462.971C479.769 461.714 481.311 460.12 483.739 459.396C484.827 459.023 486.044 458.844 487.339 458.693L487.193 459.281C485.989 459.401 484.876 459.549 483.881 459.864C481.549 460.499 480.056 461.94 479.415 463.099C478.956 463.906 478.844 464.542 478.79 464.854C478.788 464.869 478.785 464.883 478.784 464.895Z" fill="#BFC0BE"/>
<path d="M490 437.418L494.128 431.179L493.159 435.11C492.988 435.318 492.816 435.51 492.641 435.687C491.581 436.775 490.549 437.211 490 437.418Z" fill="#2FDB4B"/>
<path d="M489.867 437.617L490.001 437.416C490.55 437.209 491.582 436.773 492.642 435.685C492.817 435.508 492.989 435.316 493.159 435.108L492.914 436.101C492.061 436.86 491.213 437.281 490.601 437.463C490.287 437.556 490.039 437.6 489.867 437.617Z" fill="#BFC0BE"/>
<path d="M538.028 566.145C537.838 566.145 537.682 559.332 537.682 550.929C537.682 542.523 537.838 535.71 538.028 535.71C538.22 535.71 538.376 542.523 538.376 550.929C538.376 559.332 538.22 566.145 538.028 566.145Z" fill="#33535F"/>
<path d="M87.2285 490.585C91.2435 490.76 94.9946 492.973 97.6181 496.019C100.24 499.063 101.833 502.876 102.838 506.768C104.783 514.298 103.472 523.15 101.265 530.605C93.1588 527.631 88.2186 518.914 85.991 514.336C82.4686 507.099 80.4973 491.883 87.2285 490.585Z" fill="#18BA33"/>
<path d="M112.887 539.809C110.353 536.103 110.337 530.979 112.399 526.992C114.461 523.005 118.383 520.15 122.686 518.868C124.675 518.277 126.979 518.041 128.696 519.208C130.3 520.301 130.979 522.42 130.754 524.349C130.53 526.275 129.537 528.033 128.37 529.584C124.371 534.903 119.524 539.317 112.887 539.809Z" fill="#18BA33"/>
<path d="M113.567 564.918C113.528 564.923 113.41 564.364 113.217 563.354C113.009 562.239 112.741 560.798 112.418 559.066C111.807 555.46 110.832 550.334 111.652 544.681C112.44 539.054 114.724 534.257 117.099 531.402C118.269 529.957 119.385 528.936 120.211 528.31C120.609 527.98 120.962 527.779 121.185 527.624C121.413 527.475 121.538 527.407 121.549 527.422C121.637 527.524 119.638 528.733 117.413 531.647C115.162 534.514 112.986 539.228 112.209 544.762C111.403 550.298 112.299 555.378 112.811 559.002C113.086 560.821 113.309 562.297 113.434 563.319C113.56 564.343 113.604 564.912 113.567 564.918Z" fill="#17282F"/>
<path d="M89.7527 502.04C89.7703 502.032 89.8807 502.247 90.0746 502.659C90.287 503.13 90.5594 503.731 90.897 504.476C91.6022 506.059 92.5922 508.362 93.7922 511.216C96.1932 516.926 99.4 524.86 102.743 533.702C106.084 542.547 108.928 550.62 110.904 556.49C111.892 559.424 112.672 561.807 113.191 563.46C113.43 564.243 113.624 564.874 113.775 565.366C113.903 565.804 113.961 566.038 113.943 566.043C113.925 566.05 113.831 565.828 113.668 565.403C113.491 564.919 113.264 564.299 112.982 563.53C112.379 561.832 111.547 559.488 110.528 556.62C108.456 550.785 105.555 542.74 102.216 533.902C98.8751 525.067 95.7298 517.114 93.4235 511.367C92.2907 508.543 91.3656 506.235 90.6943 504.562C90.3974 503.8 90.1574 503.184 89.9698 502.703C89.8094 502.276 89.7344 502.048 89.7527 502.04Z" fill="#17282F"/>
<path d="M104.058 548.229C99.3316 540.027 90.4258 534.388 80.9921 533.622C78.59 533.426 75.6946 533.806 74.604 535.957C73.5118 538.109 74.9258 540.681 76.5482 542.469C83.2988 549.907 94.803 552.579 104.141 548.877" fill="#18BA33"/>
<path d="M84.5977 540.087C84.6008 540.049 85.1352 540.075 86.1024 540.155C86.5868 540.192 87.1789 540.242 87.8565 540.374C88.5331 540.506 89.3201 540.586 90.1571 540.827C90.9992 541.042 91.9289 541.256 92.8899 541.613C93.8711 541.911 94.8768 542.341 95.9341 542.799C98.0211 543.768 100.234 545.033 102.336 546.668C104.424 548.325 106.183 550.172 107.611 551.978C108.296 552.904 108.952 553.782 109.461 554.673C110.025 555.529 110.441 556.389 110.833 557.165C111.254 557.927 111.499 558.682 111.772 559.314C112.048 559.947 112.219 560.518 112.355 560.983C112.635 561.913 112.771 562.43 112.734 562.441C112.614 562.48 112.053 560.401 110.478 557.346C110.069 556.59 109.638 555.753 109.065 554.921C108.547 554.054 107.888 553.201 107.202 552.299C105.776 550.539 104.038 548.739 101.988 547.113C99.9232 545.506 97.7587 544.25 95.7164 543.27C94.682 542.806 93.6977 542.366 92.7372 542.054C91.7967 541.685 90.8847 541.45 90.0587 541.214C86.732 540.342 84.5841 540.21 84.5977 540.087Z" fill="#17282F"/>
</svg>
