<svg width="77" height="27" viewBox="0 0 77 27" fill="none" xmlns="http://www.w3.org/2000/svg">
<path d="M76.4307 13.2553H73.5269C71.6512 13.2553 70.623 14.6654 70.623 17.1086V25.8622H65.0099V13.2553H62.6618C60.7861 13.2553 59.7579 14.6654 59.7579 17.1086V25.8622H54.1448V8.55047H59.7579V11.1891C60.6888 9.12287 61.9115 8.55047 63.7872 8.55047H70.623V11.1891C71.5539 9.12287 72.7766 8.55047 74.6523 8.55047H76.528L76.4307 13.2553ZM52.8249 18.5326H41.2095C41.4874 20.5151 42.71 21.5482 44.6691 21.5482C46.1696 21.5482 47.1978 20.892 47.5729 19.8589L52.5331 21.269C51.3104 24.2846 48.3232 26.0716 44.6691 26.0716C38.5835 26.0716 35.777 21.269 35.777 17.1365C35.777 13.0878 38.2084 8.28521 44.294 8.28521C50.7547 8.28521 52.9082 13.1855 52.9082 16.8433C52.9221 17.681 52.9221 18.1557 52.8249 18.5326ZM47.4896 15.2378C47.3923 13.73 46.2669 12.4177 44.4051 12.4177C42.6267 12.4177 41.5985 13.1716 41.2234 15.2378H47.4896ZM26.0373 25.8622H30.9141L37.0969 8.63424H31.4698L28.4687 18.7002L25.4676 8.53651H19.8545L26.0373 25.8622ZM3.18172 25.8622H8.71152V13.2553H14.0468V25.8622H19.5766V8.55047H8.71152V7.51735C8.71152 6.38651 9.55905 5.63261 10.7678 5.63261H14.0468V0.927734H9.93419C5.90493 0.927734 3.19561 3.46865 3.19561 7.1404V8.55047H0V13.2553H3.18172V25.8622Z" fill="#18BA33"/>
</svg>
