<svg width="265" height="80" viewBox="0 0 265 80" fill="none" xmlns="http://www.w3.org/2000/svg">
<path d="M253.55 79.4806C254.99 79.4821 256.417 79.1991 257.748 78.6479C259.079 78.0966 260.289 77.2879 261.308 76.2679C262.327 75.2479 263.136 74.0366 263.689 72.7031C264.241 71.3696 264.526 69.94 264.528 68.4961C264.529 67.0521 264.247 65.622 263.697 64.2874C263.147 62.9528 262.341 61.7399 261.324 60.7178C260.306 59.6957 259.098 58.8846 257.768 58.3307C256.438 57.7768 255.012 57.4909 253.572 57.4895C250.663 57.4865 247.873 58.6422 245.814 60.7022C243.755 62.7622 242.597 65.5578 242.594 68.474C242.591 71.3902 243.744 74.1881 245.798 76.2523C247.853 78.3164 250.641 79.4777 253.55 79.4806ZM242.572 38.5373H233.203C227.185 38.5373 223.945 43.0681 223.945 50.6048V77.8561H206.199V38.5373H198.66C192.631 38.5373 189.402 43.0681 189.402 50.6048V77.8561H171.657V23.9944H189.402V32.172C192.312 25.8288 196.302 23.9944 202.221 23.9944H223.956V32.172C226.866 25.8288 230.845 23.9944 236.763 23.9944H242.572V38.5373ZM167.777 55.1246H130.754C131.724 61.1583 135.493 64.6062 141.842 64.6062C146.582 64.6062 149.91 62.6723 150.99 59.2244L166.697 63.6448C162.828 73.0159 153.25 78.7181 141.842 78.7181C122.576 78.7181 113.747 63.7442 113.747 50.9253C113.747 38.3273 121.495 23.2429 140.751 23.2429C161.208 23.2429 167.986 38.5373 167.986 49.8533C167.986 52.3287 167.876 53.9421 167.766 55.1246H167.777ZM150.56 44.6815C150.12 40.0402 146.791 35.7304 140.762 35.7304C135.163 35.7304 131.834 38.2168 130.754 44.6815H150.56ZM82.7531 77.8451H98.3603L117.836 23.9833H99.9805L90.5016 55.3345L80.8243 23.9833H63.0458L82.7421 77.8451H82.7531ZM10.008 77.8451H27.6652V38.5262H44.4627V77.8451H61.9987V23.9833H27.6652V20.646C27.6652 16.9771 30.2554 14.7227 34.3445 14.7227H44.4627V0.17981H31.4127C18.6051 0.17981 9.99695 8.04801 9.99695 19.574V23.9944H0V38.5373H10.008V77.8561V77.8451Z" fill="#17B532"/>
</svg>
