<svg width="19" height="20" viewBox="0 0 19 20" fill="none" xmlns="http://www.w3.org/2000/svg">
<path d="M17.9002 7.0332L14.1965 6.97694C13.336 6.96387 12.571 6.42589 12.2676 5.6205L10.7284 1.53371C10.3347 0.533034 8.9608 0.533034 8.56909 1.53371L7.02983 5.6205C6.72648 6.42589 5.96148 6.96387 5.10095 6.97694L1.39728 7.0332C0.335522 7.09678 -0.0959393 8.47267 0.727218 9.16369L3.9148 12.0142C4.50985 12.5463 4.75082 13.3703 4.53621 14.1392L3.46909 17.9625C3.19073 19.0062 4.28628 19.8674 5.18897 19.3138L8.61968 17.3783C9.25843 17.018 10.0391 17.0178 10.678 17.378L14.1085 19.3117C15.0112 19.8654 16.1067 19.0042 15.8284 17.9604L14.7613 14.1372C14.5466 13.3683 14.7876 12.5443 15.3827 12.0121L18.5702 9.16166C19.3934 8.47064 18.9619 7.09471 17.9002 7.0332Z" fill="#18BA33"/>
</svg>
