<svg width="298" height="89" viewBox="0 0 298 89" fill="none" xmlns="http://www.w3.org/2000/svg">
<g clip-path="url(#clip0_3863_84368)">
<path d="M81.546 56.2083C76.7029 56.2083 72.1648 54.159 68.0417 50.8229L69.0457 46.1135L69.0893 45.939C69.9833 40.9247 72.8196 32.5081 81.546 32.5081C88.0903 32.5081 93.4136 37.8284 93.4136 44.369C93.3914 50.8881 88.0688 56.2083 81.546 56.2083ZM81.546 20.4949C70.3977 20.4949 61.7592 27.7336 58.2472 39.638C52.8803 31.5925 48.8224 21.934 46.4448 13.8013H34.4462V45.0013C34.4462 51.1499 29.4285 56.1641 23.2765 56.1641C17.1244 56.1641 12.1073 51.1499 12.1073 45.0013V13.8013H0.107559V45.0013C0.0639064 57.7783 10.47 68.2652 23.2538 68.2652C36.0381 68.2652 46.4442 57.7783 46.4442 45.0013V39.7689C48.7782 44.6308 51.6359 49.5362 55.1049 53.8972L47.7526 88.4327H60.0352L65.3579 63.3812C70.0264 66.3683 75.3933 68.2437 81.5454 68.2437C94.6999 68.2437 105.412 57.4729 105.412 44.3254C105.412 31.1999 94.7004 20.4949 81.546 20.4949Z" fill="#6FDA44"/>
<path d="M142.04 21.847L149.785 53.0471L158.315 21.847H168.481L155.37 66.9357H145.203L137.154 35.5391L129.125 66.9136H118.96L105.848 21.8255H116.014L124.544 53.0255L132.288 21.8255H142.04L142.04 21.847ZM192.805 20.4952C179.607 20.4952 168.917 31.2002 168.917 44.3693C168.917 57.5605 179.628 68.2439 192.805 68.2439C206.004 68.2439 216.715 57.5605 216.715 44.3693C216.715 31.1786 206.004 20.4952 192.805 20.4952ZM192.805 58.4324C185.039 58.4324 178.756 52.153 178.756 44.3914C178.756 36.6292 185.06 30.3503 192.805 30.3503C200.571 30.3503 206.854 36.6292 206.854 44.3914C206.854 52.1315 200.571 58.4324 192.805 58.4324ZM245.751 31.9418C238.923 31.9418 233.404 37.4796 233.404 44.282V66.9136H223.172V21.847H233.404V28.7803C233.404 28.7803 237.767 21.8249 246.733 21.8249H249.874V31.9418H245.751ZM280.089 42.6253C287.353 38.5261 292.284 30.7424 292.284 21.8249H282.052C282.052 29.3469 275.944 35.4518 268.418 35.4518H267.043V0.0874023H256.812V66.913H267.043V45.6775H268.265C269.269 45.6775 270.578 46.3319 271.167 47.1382L285.695 66.9136H297.956L280.089 42.6253Z" fill="#031B07"/>
</g>
<defs>
<clipPath id="clip0_3863_84368">
<rect width="298" height="89" fill="white"/>
</clipPath>
</defs>
</svg>
