<svg width="188" height="41" viewBox="0 0 188 41" fill="none" xmlns="http://www.w3.org/2000/svg">
<path d="M59.851 25.2345V22.3806H64.5613V30.7759C62.2934 31.1406 60.4537 31.3229 59.0422 31.3229C56.5205 31.3229 54.7839 30.6491 53.8323 29.3014C52.8966 27.9537 52.4287 25.8133 52.4287 22.8801C52.4287 19.9469 52.9204 17.8302 53.9037 16.5301C54.887 15.23 56.5602 14.5799 58.9232 14.5799C60.3982 14.5799 61.9921 14.7464 63.7049 15.0793L64.5613 15.2458L64.4662 17.7906C62.563 17.5845 61.0009 17.4814 59.7797 17.4814C58.5743 17.4814 57.7258 17.6241 57.2342 17.9095C56.7425 18.1949 56.3778 18.726 56.1399 19.5029C55.9178 20.264 55.8068 21.5799 55.8068 23.4508C55.8068 25.3059 56.0368 26.606 56.4967 27.3512C56.9566 28.0964 57.9082 28.469 59.3515 28.469L61.326 28.3739V25.2345H59.851Z" fill="#031B07"/>
<path d="M68.0186 20.5018C68.8592 19.4078 70.2628 18.8608 72.2294 18.8608C74.196 18.8608 75.5995 19.4078 76.4401 20.5018C77.2807 21.5799 77.7009 23.102 77.7009 25.0681C77.7009 29.238 75.8771 31.3229 72.2294 31.3229C68.5816 31.3229 66.7578 29.238 66.7578 25.0681C66.7578 23.102 67.1781 21.5799 68.0186 20.5018ZM70.4689 27.7555C70.802 28.3263 71.3888 28.6117 72.2294 28.6117C73.0699 28.6117 73.6488 28.3263 73.966 27.7555C74.2991 27.1847 74.4656 26.2889 74.4656 25.0681C74.4656 23.8472 74.2991 22.9593 73.966 22.4044C73.6488 21.8495 73.0699 21.572 72.2294 21.572C71.3888 21.572 70.802 21.8495 70.4689 22.4044C70.1518 22.9593 69.9932 23.8472 69.9932 25.0681C69.9932 26.2889 70.1518 27.1847 70.4689 27.7555Z" fill="#031B07"/>
<path d="M80.68 20.5018C81.5206 19.4078 82.9242 18.8608 84.8908 18.8608C86.8574 18.8608 88.2609 19.4078 89.1015 20.5018C89.9421 21.5799 90.3623 23.102 90.3623 25.0681C90.3623 29.238 88.5385 31.3229 84.8908 31.3229C81.243 31.3229 79.4192 29.238 79.4192 25.0681C79.4192 23.102 79.8395 21.5799 80.68 20.5018ZM83.1303 27.7555C83.4634 28.3263 84.0502 28.6117 84.8908 28.6117C85.7313 28.6117 86.3102 28.3263 86.6274 27.7555C86.9604 27.1847 87.127 26.2889 87.127 25.0681C87.127 23.8472 86.9604 22.9593 86.6274 22.4044C86.3102 21.8495 85.7313 21.572 84.8908 21.572C84.0502 21.572 83.4634 21.8495 83.1303 22.4044C82.8131 22.9593 82.6545 23.8472 82.6545 25.0681C82.6545 26.2889 82.8131 27.1847 83.1303 27.7555Z" fill="#031B07"/>
<path d="M102.81 14.3896V31.0375H99.6456V30.5381C98.5355 31.0613 97.5759 31.3229 96.7671 31.3229C95.0384 31.3229 93.8331 30.8235 93.1511 29.8246C92.4691 28.8257 92.1282 27.2481 92.1282 25.0918C92.1282 22.9197 92.5326 21.3421 93.3414 20.3591C94.1661 19.3602 95.4032 18.8608 97.0526 18.8608C97.5601 18.8608 98.2658 18.9401 99.1698 19.0986L99.6218 19.1937V14.3896H102.81ZM99.2888 28.1836L99.6218 28.1122V21.8574C98.7496 21.6989 97.9724 21.6196 97.2905 21.6196C96.0058 21.6196 95.3635 22.7611 95.3635 25.0443C95.3635 26.281 95.5063 27.1609 95.7917 27.6842C96.0772 28.2074 96.5451 28.469 97.1953 28.469C97.8614 28.469 98.5592 28.3739 99.2888 28.1836Z" fill="#031B07"/>
<path d="M108.134 24.7351V31.0375H106.303V14.5799H112.393C114.137 14.5799 115.446 14.9842 116.318 15.7928C117.206 16.6014 117.65 17.8619 117.65 19.5743C117.65 22.1111 116.643 23.7045 114.629 24.3546L117.793 31.0375H115.771L112.797 24.7351H108.134ZM112.416 23.1179C114.653 23.1179 115.771 21.9684 115.771 19.6694C115.771 17.3546 114.645 16.1971 112.393 16.1971H108.134V23.1179H112.416Z" fill="#031B07"/>
<path d="M128.532 29.563L129.222 29.4916L129.269 30.8948C127.461 31.1485 125.915 31.2753 124.631 31.2753C122.918 31.2753 121.704 30.7838 120.991 29.8008C120.277 28.8019 119.92 27.2561 119.92 25.1632C119.92 20.9933 121.578 18.9084 124.892 18.9084C126.494 18.9084 127.691 19.3602 128.484 20.264C129.277 21.1519 129.674 22.555 129.674 24.4735L129.579 25.8291H121.728C121.728 27.1451 121.966 28.1202 122.442 28.7544C122.918 29.3886 123.742 29.7057 124.916 29.7057C126.105 29.7057 127.311 29.6581 128.532 29.563ZM127.89 24.4021C127.89 22.9435 127.652 21.9129 127.176 21.3104C126.716 20.7079 125.955 20.4067 124.892 20.4067C123.845 20.4067 123.052 20.7238 122.513 21.358C121.99 21.9922 121.72 23.0069 121.704 24.4021H127.89Z" fill="#031B07"/>
<path d="M131.151 19.1462H133.054L135.837 29.4916H136.717L139.596 19.1462H141.428L138.073 31.0375H134.505L131.151 19.1462Z" fill="#031B07"/>
<path d="M143.722 31.0375V19.1462H145.506V31.0375H143.722ZM143.722 16.4587V14.3896H145.506V16.4587H143.722Z" fill="#031B07"/>
<path d="M157.014 29.563L157.704 29.4916L157.752 30.8948C155.944 31.1485 154.397 31.2753 153.113 31.2753C151.4 31.2753 150.187 30.7838 149.473 29.8008C148.759 28.8019 148.403 27.2561 148.403 25.1632C148.403 20.9933 150.06 18.9084 153.375 18.9084C154.976 18.9084 156.174 19.3602 156.967 20.264C157.76 21.1519 158.156 22.555 158.156 24.4735L158.061 25.8291H150.211C150.211 27.1451 150.448 28.1202 150.924 28.7544C151.4 29.3886 152.225 29.7057 153.398 29.7057C154.588 29.7057 155.793 29.6581 157.014 29.563ZM156.372 24.4021C156.372 22.9435 156.134 21.9129 155.658 21.3104C155.198 20.7079 154.437 20.4067 153.375 20.4067C152.328 20.4067 151.535 20.7238 150.996 21.358C150.472 21.9922 150.203 23.0069 150.187 24.4021H156.372Z" fill="#031B07"/>
<path d="M159.845 19.1462H161.629L164.032 29.4916H164.413L167.244 19.384H169.099L171.93 29.4916H172.335L174.714 19.1462H176.498L173.667 31.0375H170.693L168.172 21.7385L165.65 31.0375H162.676L159.845 19.1462Z" fill="#031B07"/>
<path d="M182.584 20.5018C180.855 20.5018 179.99 21.1043 179.99 22.3093C179.99 22.8642 180.189 23.2606 180.585 23.4984C180.982 23.7204 181.886 23.9582 183.297 24.2119C184.709 24.4497 185.708 24.7906 186.295 25.2345C186.882 25.6785 187.175 26.5109 187.175 27.7317C187.175 28.9526 186.778 29.8484 185.985 30.4192C185.208 30.9899 184.066 31.2753 182.56 31.2753C181.576 31.2753 180.419 31.1643 179.086 30.9424L178.373 30.8235L178.468 29.2776C180.276 29.5471 181.64 29.6819 182.56 29.6819C183.48 29.6819 184.177 29.5392 184.653 29.2538C185.145 28.9526 185.391 28.4611 185.391 27.7793C185.391 27.0817 185.185 26.6139 184.772 26.3761C184.36 26.1224 183.456 25.8846 182.06 25.6626C180.665 25.4407 179.673 25.1156 179.086 24.6875C178.5 24.2595 178.206 23.4667 178.206 22.3093C178.206 21.1519 178.611 20.2957 179.42 19.7407C180.244 19.1858 181.267 18.9084 182.488 18.9084C183.456 18.9084 184.669 19.0193 186.128 19.2413L186.794 19.3602L186.747 20.8823C184.986 20.6286 183.599 20.5018 182.584 20.5018Z" fill="#031B07"/>
<path fill-rule="evenodd" clip-rule="evenodd" d="M30.8883 13.5572L40.8829 13.7005C43.3488 13.8353 44.3508 16.8515 42.4391 18.3662L33.8661 25.6022C33.2054 26.1598 32.9371 27.0554 33.1822 27.8844L36.0712 37.6539C36.7177 39.9418 34.1733 41.8296 32.0769 40.616L23.7533 36.1874C24.4297 35.9391 25.0709 35.6399 25.6768 35.2899C26.743 34.7106 27.6005 33.9692 28.2495 33.0655C28.8984 32.185 29.2229 31.1424 29.2229 29.9375C29.2461 28.7327 28.8173 27.7827 27.9366 27.0876C27.0559 26.3925 25.6189 26.0449 23.6257 26.0449H21.505C20.5547 26.0449 19.8363 25.9986 19.3495 25.9059C18.8628 25.8132 18.6195 25.5699 18.6195 25.176C18.6195 24.9211 18.6774 24.701 18.7933 24.5157C18.9323 24.3303 19.0946 24.1681 19.28 24.0291L20.0448 24.0986H20.7749C22.4437 24.0986 23.9502 23.809 25.2944 23.2297C26.6387 22.6505 27.7048 21.8047 28.4928 20.6926C29.2809 19.5804 29.6749 18.2481 29.6749 16.6957C29.6749 16.1628 29.6169 15.6878 29.501 15.2707C29.3852 14.8305 29.2113 14.4366 28.9796 14.089C29.6785 13.9915 30.3148 13.8142 30.8883 13.5572ZM28.4636 12.2583C28.4521 12.2325 28.441 12.2063 28.4305 12.1799L24.2267 1.64517C23.3124 -0.548391 20.1216 -0.548391 19.2118 1.64517L15.008 12.1799C14.6819 12.9971 13.8961 13.5379 13.0162 13.5505L2.55563 13.7005C0.089757 13.8399 -0.912293 16.8559 0.999452 18.3707L9.57247 25.6067C10.2331 26.1643 10.5014 27.0599 10.2563 27.8889L7.36732 37.6584C6.72083 39.9462 9.26521 41.8341 11.3617 40.6205L17.9911 37.0904C17.2353 37.0721 16.4945 37.0164 15.7687 36.9234C14.888 36.8307 14.1 36.6569 13.4046 36.402C12.7325 36.1472 12.1994 35.788 11.8054 35.3246C11.4114 34.8844 11.2144 34.3283 11.2144 33.6564C11.2376 32.8222 11.5389 32.1619 12.1183 31.6753C12.6746 31.1887 13.4162 30.9454 14.3433 30.9454C14.9923 30.9454 15.5485 31.0497 16.0121 31.2582C16.4988 31.4899 16.8928 31.7796 17.1941 32.1271C16.9623 32.3125 16.7885 32.5094 16.6726 32.718C16.5799 32.9265 16.5335 33.1698 16.5335 33.4478C16.5335 34.0271 16.8001 34.4326 17.3331 34.6643C17.8662 34.9191 18.631 35.0466 19.6277 35.0466C20.3461 35.0466 21.0415 34.9307 21.7136 34.699C22.3857 34.4905 22.942 34.1429 23.3823 33.6564C23.8227 33.1698 24.0429 32.5442 24.0429 31.7796C24.066 31.0613 23.7416 30.6095 23.0694 30.4241C22.4205 30.2619 21.3543 30.1808 19.871 30.1808C18.6195 30.1808 17.5881 30.0881 16.7769 29.9028C15.9889 29.6942 15.3979 29.3814 15.0039 28.9644C14.633 28.5473 14.436 28.0144 14.4128 27.3656C14.436 26.5778 14.691 25.848 15.1777 25.176C15.6876 24.5041 16.3018 23.9364 17.0202 23.473C16.1395 23.1023 15.4442 22.5578 14.9343 21.8395C14.4476 21.098 14.2042 20.1712 14.2042 19.0591C14.2042 17.4371 14.6098 16.0933 15.421 15.0274C16.2322 13.9384 17.31 13.1275 18.6542 12.5945C20.0217 12.0385 21.505 11.7604 23.1042 11.7604C23.8922 11.7604 24.5296 11.8068 25.0163 11.8994C25.5262 11.9921 25.9666 12.0964 26.3374 12.2122C26.7314 12.3049 27.1486 12.3513 27.5889 12.3513C27.9115 12.3513 28.203 12.3203 28.4636 12.2583ZM23.3128 21.3877C22.8261 21.9901 22.1539 22.2913 21.2964 22.2913C20.5084 22.2913 19.929 22.048 19.5581 21.5615C19.1873 21.0749 19.0019 20.4261 19.0019 19.6151C19.0019 18.92 19.0714 18.2249 19.2105 17.5298C19.3495 16.8115 19.5581 16.1512 19.8363 15.5488C20.1376 14.9463 20.5084 14.4713 20.9487 14.1238C21.4123 13.7531 21.9569 13.5677 22.5827 13.5677C23.3939 13.5677 23.9617 13.8573 24.2862 14.4366C24.6339 15.0158 24.8193 15.7109 24.8425 16.5219C24.8193 17.3792 24.6802 18.2597 24.4253 19.1633C24.1935 20.0438 23.8227 20.7852 23.3128 21.3877Z" fill="#18BA33"/>
</svg>
