<svg width="20" height="17" viewBox="0 0 20 17" fill="none" xmlns="http://www.w3.org/2000/svg">
<path d="M1 4.50977L8.89 9.76977C9.21866 9.98904 9.6049 10.1061 10 10.1061C10.3951 10.1061 10.7813 9.98904 11.11 9.76977L19 4.50977M3 15.5098H17C17.5304 15.5098 18.0391 15.2991 18.4142 14.924C18.7893 14.5489 19 14.0402 19 13.5098V3.50977C19 2.97933 18.7893 2.47062 18.4142 2.09555C18.0391 1.72048 17.5304 1.50977 17 1.50977H3C2.46957 1.50977 1.96086 1.72048 1.58579 2.09555C1.21071 2.47062 1 2.97933 1 3.50977V13.5098C1 14.0402 1.21071 14.5489 1.58579 14.924C1.96086 15.2991 2.46957 15.5098 3 15.5098Z" stroke="#031B07" stroke-width="1.5" stroke-linecap="round" stroke-linejoin="round"/>
</svg>
