<svg width="24" height="25" viewBox="0 0 24 25" fill="none" xmlns="http://www.w3.org/2000/svg">
<path d="M3 5.50977C3 4.97933 3.21071 4.47062 3.58579 4.09555C3.96086 3.72048 4.46957 3.50977 5 3.50977H8.28C8.48979 3.50992 8.69422 3.57606 8.86436 3.69882C9.03449 3.82157 9.1617 3.99472 9.228 4.19377L10.726 8.68677C10.8019 8.9151 10.7929 9.16316 10.7007 9.38541C10.6085 9.60767 10.4393 9.78922 10.224 9.89677L7.967 11.0268C9.07332 13.4753 11.0345 15.4364 13.483 16.5428L14.613 14.2858C14.7205 14.0705 14.9021 13.9013 15.1244 13.809C15.3466 13.7168 15.5947 13.7079 15.823 13.7838L20.316 15.2818C20.5152 15.3481 20.6885 15.4755 20.8112 15.6458C20.934 15.8161 21.0001 16.0208 21 16.2308V19.5098C21 20.0402 20.7893 20.5489 20.4142 20.924C20.0391 21.2991 19.5304 21.5098 19 21.5098H18C9.716 21.5098 3 14.7938 3 6.50977V5.50977Z" stroke="#031B07" stroke-width="1.5" stroke-linecap="round" stroke-linejoin="round"/>
</svg>
