<svg width="66" height="52" viewBox="0 0 66 52" fill="none" xmlns="http://www.w3.org/2000/svg">
<path d="M28 16.5H38V35.5H28V16.5Z" fill="#FF5F00"/>
<path d="M28.5276 26C28.5276 22.3264 30.2905 19.068 33 16.9597C31.0087 15.4264 28.495 14.5 25.7528 14.5C19.256 14.5 14 19.643 14 26C14 32.3569 19.256 37.5 25.7526 37.5C28.4949 37.5 31.0086 36.5736 33 35.0402C30.2905 32.9638 28.5276 29.6736 28.5276 26Z" fill="#EB001B"/>
<path d="M51.9999 26C51.9999 32.3569 46.7439 37.5 40.2473 37.5C37.5051 37.5 34.9914 36.5736 33 35.0402C35.7422 32.932 37.4725 29.6736 37.4725 26C37.4725 22.3264 35.7095 19.068 33 16.9597C34.9912 15.4264 37.5051 14.5 40.2473 14.5C46.7439 14.5 52 19.675 52 26H51.9999Z" fill="#F79E1B"/>
</svg>
