<svg width="39" height="37" viewBox="0 0 39 37" fill="none" xmlns="http://www.w3.org/2000/svg">
<path fill-rule="evenodd" clip-rule="evenodd" d="M27.7342 12.4039L36.7055 12.5297C38.9194 12.6481 39.8191 15.2964 38.1027 16.6265L30.5473 22.8631C29.8702 23.422 29.5949 24.3329 29.849 25.1733L32.3855 33.5619C32.9659 35.5708 30.6815 37.2285 28.7993 36.1628L21.327 32.2748C21.9347 32.0566 22.5106 31.7938 23.055 31.4863C24.0122 30.9777 24.7821 30.3267 25.3647 29.5333C25.9474 28.7602 26.2387 27.8447 26.2387 26.7867C26.2595 25.7288 25.8746 24.8947 25.0838 24.2843C24.2931 23.674 23.003 23.3688 21.2134 23.3688H19.3094C18.4562 23.3688 17.8112 23.3281 17.3742 23.2468C16.9372 23.1654 16.7187 22.9518 16.7187 22.6059C16.7187 22.3821 16.7707 22.1888 16.8748 22.0261C16.9996 21.8633 17.1453 21.7209 17.3118 21.5988L17.9984 21.6599H18.6539C20.1522 21.6599 21.5047 21.4056 22.7116 20.8969C23.9185 20.3883 24.8757 19.6458 25.5832 18.6692C26.2907 17.6927 26.6445 16.5228 26.6445 15.1598C26.6445 14.6918 26.5925 14.2748 26.4884 13.9086C26.3844 13.522 26.2283 13.1762 26.0202 12.871C26.6479 12.7854 27.2192 12.6297 27.7342 12.4039ZM25.5669 11.2612C25.5291 11.1916 25.4948 11.1194 25.4644 11.0449L21.7512 1.94454C20.9303 0.0184865 18.0656 0.0184865 17.2488 1.94454L13.5356 11.0449C13.2054 11.8542 12.4234 12.3877 11.5494 12.3999L2.2945 12.5297C0.0805856 12.6521 -0.819076 15.3003 0.897329 16.6304L8.45271 22.867C9.12983 23.426 9.40516 24.3368 9.15103 25.1772L6.61453 33.5659C6.03411 35.5747 8.3185 37.2324 10.2007 36.1667L16.1526 33.0673C15.4748 33.0511 14.8103 33.0023 14.1592 32.9206C13.3685 32.8393 12.661 32.6867 12.0367 32.4629C11.4333 32.2391 10.9547 31.9238 10.6009 31.5169C10.2472 31.1303 10.0703 30.642 10.0703 30.052C10.0911 29.3196 10.3616 28.7398 10.8819 28.3126C11.3813 27.8853 12.0471 27.6717 12.8795 27.6717C13.4621 27.6717 13.9615 27.7633 14.3777 27.9464C14.8147 28.1498 15.1685 28.4041 15.439 28.7093C15.2309 28.8721 15.0748 29.045 14.9708 29.2281C14.8875 29.4112 14.8459 29.6248 14.8459 29.8689C14.8459 30.3776 15.0852 30.7336 15.5638 30.937C16.0424 31.1608 16.7291 31.2727 17.6239 31.2727C18.269 31.2727 18.8932 31.171 19.4967 30.9676C20.1001 30.7845 20.5995 30.4793 20.9949 30.052C21.3903 29.6248 21.588 29.0755 21.588 28.4041C21.6088 27.7734 21.3174 27.3767 20.714 27.214C20.1313 27.0716 19.1741 27.0003 17.8424 27.0003C16.7187 27.0003 15.7927 26.919 15.0644 26.7562C14.3569 26.5731 13.8263 26.2985 13.4725 25.9323C13.1396 25.566 12.9627 25.0981 12.9419 24.5285C12.9627 23.8368 13.1916 23.1959 13.6286 22.6059C14.0864 22.0159 14.6378 21.5175 15.2829 21.1106C14.4922 20.7851 13.8679 20.307 13.4101 19.6763C12.9731 19.0252 12.7546 18.2115 12.7546 17.2349C12.7546 15.8108 13.1188 14.6308 13.8471 13.6949C14.5754 12.7387 15.543 12.0267 16.7499 11.5588C17.9776 11.0705 19.3094 10.8263 20.7452 10.8263C21.4527 10.8263 22.0249 10.867 22.4619 10.9484C22.9197 11.0298 23.3151 11.1213 23.648 11.2231C24.0018 11.3044 24.3763 11.3451 24.7717 11.3451C25.0654 11.3451 25.3304 11.3172 25.5669 11.2612ZM20.9325 19.2795C20.4955 19.8085 19.892 20.073 19.1221 20.073C18.4146 20.073 17.8944 19.8594 17.5615 19.4321C17.2285 19.0049 17.0621 18.4352 17.0621 17.7232C17.0621 17.1128 17.1245 16.5025 17.2493 15.8922C17.3742 15.2615 17.5615 14.6817 17.8112 14.1527C18.0817 13.6237 18.4146 13.2067 18.81 12.9015C19.2262 12.576 19.7152 12.4132 20.277 12.4132C21.0053 12.4132 21.5151 12.6675 21.8064 13.1762C22.1186 13.6848 22.2851 14.2951 22.3059 15.0072C22.2851 15.7599 22.1602 16.533 21.9313 17.3265C21.7232 18.0996 21.3903 18.7506 20.9325 19.2795Z" fill="#18BA33"/>
</svg>
