<svg width="104" height="29" viewBox="0 0 104 29" fill="none" xmlns="http://www.w3.org/2000/svg">
<path d="M28.5104 19.4827C25.6098 19.4827 23.6896 17.3362 23.1531 16.5036C23.8402 11.2399 25.8514 9.5763 28.5104 9.5763C31.1365 9.57476 33.1758 11.5864 33.1758 14.5288C33.1758 17.4711 31.1365 19.4827 28.5104 19.4827ZM28.5104 6.34416C23.7806 6.34416 21.1373 9.2957 20.3733 12.3331C19.5136 10.7845 18.8767 8.71459 18.3826 6.78881H11.8409V14.5763C11.8409 17.4006 10.4965 19.4904 7.86883 19.4904C5.24118 19.4904 3.73518 17.4006 3.73518 14.5763L3.76499 6.78881H0V14.5763C0 16.8501 0.768684 18.9108 2.17271 20.3812C3.61753 21.9007 5.58944 22.6934 7.87354 22.6934C12.4229 22.6934 15.5965 19.3555 15.5965 14.5763V9.34324C16.0671 11.0651 17.2029 14.3739 19.3615 17.2764L17.3409 28.2991H21.1718L22.5052 20.4916C22.9434 20.8407 23.4098 21.1545 23.8998 21.43C25.185 22.2058 26.6555 22.6393 28.1653 22.6873C28.1653 22.6873 28.3974 22.6965 28.5198 22.6965C33.2104 22.6965 36.9393 19.2236 36.9393 14.5303C36.9393 9.83695 33.2009 6.34416 28.5104 6.34416ZM82.6776 8.45241V6.78881H78.9832V22.2012H82.7325V16.1632C82.7325 12.4481 83.0871 9.77869 88.2922 10.1267V6.60022C85.8622 6.43156 83.9718 6.91454 82.6776 8.45241ZM56.6364 6.78881L53.9241 17.5662L51.0235 6.78881H46.2513L43.3413 17.5662L40.6321 6.78881H36.831L40.996 22.2104H45.5046L48.6421 11.2583L51.7451 22.2104H56.2537L60.6603 6.78881H56.6364ZM68.9072 19.4919C66.2403 19.4919 64.237 17.4803 64.237 14.5288C64.237 11.5772 66.2481 9.57476 68.9072 9.57476C71.5348 9.57476 73.5773 11.5864 73.5773 14.5288C73.5773 17.4711 71.5411 19.4919 68.9134 19.4919H68.9072ZM68.9072 6.34416C64.1868 6.34416 60.4877 9.84615 60.4877 14.5288C60.4877 19.2114 64.1868 22.6842 68.9072 22.6842C73.5977 22.6842 77.3266 19.2114 77.3266 14.5288C77.3266 9.84615 73.6134 6.34416 68.9134 6.34416H68.9072ZM93.6588 14.6238H94.5279L99.7644 22.2089H104L97.976 13.802C100.897 12.7088 102.858 9.85535 102.858 6.78728H99.1228C99.1228 10.116 96.3837 11.3733 93.6651 11.3733V0.700195H89.9001V22.2104H93.6494L93.6588 14.6238Z" fill="#18BA33"/>
</svg>
