<svg width="73" height="73" viewBox="0 0 73 73" fill="none" xmlns="http://www.w3.org/2000/svg">
<g clip-path="url(#clip0_3863_83014)">
<path d="M72.6665 36.5C72.6665 56.3823 56.5488 72.5 36.6665 72.5C16.7843 72.5 0.666504 56.3823 0.666504 36.5C0.666504 16.6177 16.7843 0.5 36.6665 0.5C56.5488 0.5 72.6665 16.6177 72.6665 36.5Z" fill="#E8FCEC"/>
<path d="M35.7657 36.9406C41.2333 36.9406 45.6657 32.5082 45.6657 27.0406C45.6657 21.573 41.2333 17.1406 35.7657 17.1406C30.2981 17.1406 25.8657 21.573 25.8657 27.0406C25.8657 32.5082 30.2981 36.9406 35.7657 36.9406Z" fill="#17B532"/>
<path fill-rule="evenodd" clip-rule="evenodd" d="M38.3299 54.0622C36.4597 52.0534 35.3149 49.3606 35.3149 46.4014C35.3149 43.372 36.5155 40.6198 38.4667 38.5966C37.5847 38.5282 36.6829 38.4922 35.7649 38.4922C29.7853 38.4922 24.4915 39.988 21.2047 42.229C18.6973 43.939 17.3149 46.1116 17.3149 48.3922V51.0022C17.3149 51.814 17.6371 52.5934 18.2113 53.1658C18.7855 53.74 19.5631 54.0622 20.3749 54.0622H38.3299Z" fill="#17B532"/>
<path fill-rule="evenodd" clip-rule="evenodd" d="M46.5657 36.9492C41.3493 36.9492 37.1157 41.1828 37.1157 46.3992C37.1157 51.6156 41.3493 55.8492 46.5657 55.8492C51.7821 55.8492 56.0157 51.6156 56.0157 46.3992C56.0157 41.1828 51.7821 36.9492 46.5657 36.9492ZM42.2169 47.9724L44.9169 49.7724C45.4515 50.1288 46.1661 50.0586 46.6197 49.6032L51.1197 45.1032C51.6471 44.5776 51.6471 43.7208 51.1197 43.1952C50.5941 42.6678 49.7373 42.6678 49.2117 43.1952L45.4929 46.9122L43.7145 45.726C43.0953 45.312 42.2565 45.4812 41.8425 46.1004C41.4285 46.7196 41.5977 47.5584 42.2169 47.9724Z" fill="#17B532"/>
</g>
<defs>
<clipPath id="clip0_3863_83014">
<rect width="72" height="72" fill="white" transform="translate(0.666504 0.5)"/>
</clipPath>
</defs>
</svg>
