<svg width="9" height="17" viewBox="0 0 9 17" fill="none" xmlns="http://www.w3.org/2000/svg">
<path fill-rule="evenodd" clip-rule="evenodd" d="M0.21967 9.03033L0.75 8.5L0.21967 7.96967C-0.0732236 8.26256 -0.0732237 8.73744 0.21967 9.03033ZM1.81066 8.5L8.28033 2.03033C8.57322 1.73744 8.57322 1.26256 8.28033 0.96967C7.98744 0.676777 7.51256 0.676777 7.21967 0.96967L0.21967 7.96967C0.219637 7.9697 0.21967 7.96967 0.75 8.5C0.21967 9.03033 0.219637 9.0303 0.21967 9.03033L7.21967 16.0303C7.51256 16.3232 7.98744 16.3232 8.28033 16.0303C8.57322 15.7374 8.57322 15.2626 8.28033 14.9697L1.81066 8.5Z" fill="#676879"/>
</svg>
