<svg width="33" height="32" viewBox="0 0 33 32" fill="none" xmlns="http://www.w3.org/2000/svg">
<g clip-path="url(#clip0_3561_62063)">
<circle cx="16.5" cy="16" r="16" fill="#E8FCEC"/>
<g clip-path="url(#clip1_3561_62063)">
<path d="M20.8363 13.3047L17.8398 23.293L25.8305 13.3047H20.8363Z" fill="#18BA33"/>
<path d="M12.1582 13.3047H7.16406L15.1547 23.293L12.1582 13.3047Z" fill="#18BA33"/>
<path d="M25.6444 12.2008L21.6662 8.22266C21.5637 8.1201 21.4246 8.0625 21.2795 8.0625H19.2539L20.8058 12.2008H25.6444Z" fill="#18BA33"/>
<path d="M12.1902 12.2008L13.742 8.0625H11.7164C11.5714 8.0625 11.4322 8.1201 11.3297 8.22266L7.35156 12.2008H12.1902Z" fill="#18BA33"/>
<path d="M19.6878 13.3047H13.3086L16.4982 23.9367L19.6878 13.3047Z" fill="#18BA33"/>
<path d="M13.3594 12.2008H19.6296L18.0777 8.0625H14.9113L13.3594 12.2008Z" fill="#18BA33"/>
</g>
</g>
<defs>
<clipPath id="clip0_3561_62063">
<rect width="32" height="32" fill="white" transform="translate(0.5)"/>
</clipPath>
<clipPath id="clip1_3561_62063">
<rect width="18.6667" height="18.6667" fill="white" transform="translate(7.16406 6.66406)"/>
</clipPath>
</defs>
</svg>
