<svg width="33" height="32" viewBox="0 0 33 32" fill="none" xmlns="http://www.w3.org/2000/svg">
<g clip-path="url(#clip0_3561_62026)">
<circle cx="16.5" cy="16" r="16" fill="#E8FCEC"/>
<g clip-path="url(#clip1_3561_62026)">
<path d="M24.485 10.2564C23.7393 10.2564 23.1353 10.914 23.1353 11.723C23.1353 12.2493 23.3901 12.7074 23.7737 12.9678C22.9631 14.1845 21.8193 15.5975 20.6402 16.0068C19.0886 16.5459 17.642 13.2329 16.9299 11.264C17.4578 11.0654 17.8423 10.5231 17.8423 9.87992C17.8423 9.07092 17.2391 8.41406 16.4958 8.41406C15.7541 8.41406 15.1501 9.07089 15.1501 9.87992C15.1501 10.5231 15.5338 11.0646 16.0624 11.264C15.352 13.2329 13.9069 16.5459 12.353 16.0068C11.1755 15.5975 10.0293 14.1845 9.22028 12.9678C9.60235 12.7075 9.85786 12.2501 9.85786 11.723C9.85786 10.914 9.2531 10.2564 8.50976 10.2564C7.76801 10.2564 7.16406 10.914 7.16406 11.723C7.16406 12.5344 7.76801 13.1913 8.50976 13.1913C8.52498 13.1913 8.53538 13.1872 8.54982 13.1857L10.3681 21.6323H22.6259L24.445 13.1857C24.4578 13.1865 24.4706 13.1913 24.4859 13.1913C25.2268 13.1913 25.8307 12.5344 25.8307 11.723C25.8299 10.914 25.226 10.2564 24.485 10.2564Z" fill="#18BA33"/>
<path d="M22.5633 21.9297H10.4297V23.5774H22.5633V21.9297Z" fill="#18BA33"/>
</g>
</g>
<defs>
<clipPath id="clip0_3561_62026">
<rect width="32" height="32" fill="white" transform="translate(0.5)"/>
</clipPath>
<clipPath id="clip1_3561_62026">
<rect width="18.6667" height="18.6667" fill="white" transform="translate(7.16406 6.66406)"/>
</clipPath>
</defs>
</svg>
