<svg width="72" height="73" viewBox="0 0 72 73" fill="none" xmlns="http://www.w3.org/2000/svg">
<g clip-path="url(#clip0_3863_83193)">
<path d="M72 36.5C72 56.3823 55.8823 72.5 36 72.5C16.1177 72.5 0 56.3823 0 36.5C0 16.6177 16.1177 0.5 36 0.5C55.8823 0.5 72 16.6177 72 36.5Z" fill="#E8FCEC"/>
<path d="M52.2316 45.6018L50.3027 21.2926C50.1829 19.7264 48.8578 18.5 47.2874 18.5H43.4766V24.1461C43.4766 24.8453 42.9107 25.4113 42.2114 25.4113C41.5131 25.4113 40.9462 24.8453 40.9462 24.1461V18.5H29.3066V24.1461C29.3066 24.8453 28.7398 25.4113 28.0414 25.4113C27.3422 25.4113 26.7762 24.8453 26.7762 24.1461V18.5H22.9655C21.395 18.5 20.0699 19.7264 19.9502 21.2893L18.0204 45.6052C17.8711 47.5527 18.5467 49.491 19.8734 50.9232C21.2002 52.3553 23.0811 53.1777 25.0337 53.1777H45.2192C47.1719 53.1777 49.0527 52.3553 50.3795 50.9231C51.7062 49.4909 52.3818 47.5527 52.2316 45.6018ZM40.8265 33.2224L34.283 39.7659C34.0359 40.0131 33.7119 40.137 33.3881 40.137C33.0642 40.137 32.7404 40.0131 32.4932 39.7659L29.4264 36.6992C28.9322 36.2049 28.9322 35.4044 29.4264 34.9102C29.9207 34.4159 30.722 34.4159 31.2154 34.9102L33.3882 37.0821L39.0376 31.4327C39.531 30.9392 40.3323 30.9392 40.8266 31.4327C41.3208 31.9269 41.3208 32.7281 40.8265 33.2224Z" fill="#17B532"/>
</g>
<defs>
<clipPath id="clip0_3863_83193">
<rect width="72" height="72" fill="white" transform="translate(0 0.5)"/>
</clipPath>
</defs>
</svg>
