<svg width="20" height="16" viewBox="0 0 20 16" fill="none" xmlns="http://www.w3.org/2000/svg">
<path fill-rule="evenodd" clip-rule="evenodd" d="M10.2882 0.00481888L10.002 0C5.86108 0 2.12926 2.92308 0.0609149 7.70583C-0.020305 7.89364 -0.020305 8.10636 0.0609149 8.29416L0.204239 8.61679C2.24638 13.0931 5.77544 15.8644 9.71179 15.9952L9.998 16C14.1389 16 17.8707 13.0769 19.9391 8.29416C20.0213 8.10399 20.0202 7.88839 19.9361 7.69904L19.7968 7.38563C17.7497 2.90091 14.2192 0.135466 10.2882 0.00481888ZM10.0093 1.48944L10.2483 1.49458L10.5153 1.50847C13.7125 1.73486 16.6529 4.10555 18.4293 7.99913L18.42 8.02315C16.599 12.0005 13.5573 14.3853 10.2592 14.505L10.0043 14.5088L9.74724 14.5054L9.48092 14.4915C6.38303 14.2721 3.52669 12.0344 1.73946 8.35972L1.57031 7.99913L1.72689 7.66621C3.61149 3.77317 6.69179 1.49029 10.0093 1.48944ZM9.99889 4.11346C7.83849 4.11346 6.08789 5.85313 6.08789 8.0002C6.08789 10.1465 7.83868 11.8859 9.99889 11.8859C12.1592 11.8859 13.9109 10.1463 13.9109 8.0002C13.9109 5.85325 12.1594 4.11346 9.99889 4.11346ZM9.99889 5.60378C11.3311 5.60378 12.4109 6.6764 12.4109 8.0002C12.4109 9.32312 11.3309 10.3956 9.99889 10.3956C8.6671 10.3956 7.58789 9.32339 7.58789 8.0002C7.58789 6.67614 8.66699 5.60378 9.99889 5.60378Z" fill="#676B68"/>
</svg>
