<svg width="20" height="21" viewBox="0 0 20 21" fill="none" xmlns="http://www.w3.org/2000/svg">
<path d="M19.4555 8.65425C19.5785 9.31325 19.6455 10.0023 19.6455 10.7213C19.6455 16.3453 15.8815 20.3442 10.1965 20.3442C8.9037 20.3446 7.62344 20.0903 6.42894 19.5957C5.23443 19.1012 4.14908 18.3761 3.2349 17.4619C2.32072 16.5477 1.59563 15.4624 1.10107 14.2679C0.606499 13.0733 0.352145 11.7931 0.35254 10.5003C0.352145 9.20741 0.606499 7.92716 1.10107 6.73265C1.59563 5.53814 2.32072 4.45279 3.2349 3.53861C4.14908 2.62443 5.23443 1.89935 6.42894 1.40478C7.62344 0.91021 8.9037 0.655856 10.1965 0.65625C12.8545 0.65625 15.0755 1.63425 16.7795 3.22225L14.0045 5.99725V5.99025C12.9715 5.00625 11.6605 4.50125 10.1965 4.50125C6.94854 4.50125 4.30854 7.24525 4.30854 10.4943C4.30854 13.7423 6.94854 16.4923 10.1965 16.4923C13.1435 16.4923 15.1495 14.8073 15.5615 12.4933H10.1965V8.65425H19.4565H19.4555Z" fill="#031B07"/>
</svg>
