<svg width="73" height="73" viewBox="0 0 73 73" fill="none" xmlns="http://www.w3.org/2000/svg">
<g clip-path="url(#clip0_3863_83025)">
<path d="M72.333 36.5C72.333 56.3823 56.2153 72.5 36.333 72.5C16.4508 72.5 0.333008 56.3823 0.333008 36.5C0.333008 16.6177 16.4508 0.5 36.333 0.5C56.2153 0.5 72.333 16.6177 72.333 36.5Z" fill="#E8FCEC"/>
<path fill-rule="evenodd" clip-rule="evenodd" d="M54.9834 49.4726C54.1405 43.0453 52.1983 28.2307 51.4436 22.4726C51.1792 20.4569 49.4611 18.9492 47.4277 18.9492C42.3806 18.9492 30.6186 18.9492 25.5715 18.9492C23.5385 18.9492 21.8205 20.4569 21.5561 22.4726C20.8009 28.2307 18.8587 43.0453 18.0158 49.4726C17.8642 50.6286 18.2185 51.7942 18.9874 52.6703C19.7564 53.5468 20.8657 54.0492 22.0317 54.0492H50.9679C52.1339 54.0492 53.2433 53.5468 54.0122 52.6703C54.7812 51.7942 55.135 50.6286 54.9834 49.4726ZM28.3951 25.7009C28.3951 30.1713 32.0243 33.8009 36.4951 33.8009C40.9654 33.8009 44.5951 30.1713 44.5951 25.7009C44.5951 24.9557 43.9898 24.3509 43.2451 24.3509C42.4999 24.3509 41.8951 24.9557 41.8951 25.7009C41.8951 28.6813 39.4754 31.1009 36.4951 31.1009C33.5147 31.1009 31.0951 28.6813 31.0951 25.7009C31.0951 24.9557 30.4898 24.3509 29.7451 24.3509C28.9999 24.3509 28.3951 24.9557 28.3951 25.7009Z" fill="#17B532"/>
</g>
<defs>
<clipPath id="clip0_3863_83025">
<rect width="72" height="72" fill="white" transform="translate(0.333008 0.5)"/>
</clipPath>
</defs>
</svg>
