<svg width="32" height="32" viewBox="0 0 32 32" fill="none" xmlns="http://www.w3.org/2000/svg">
<g clip-path="url(#clip0_3561_61988)">
<circle cx="15.8801" cy="15.8801" r="15.8801" fill="#E8FCEC"/>
<path d="M12.1614 13.973C12.1614 14.9924 11.3325 15.8205 10.3131 15.8205C9.29366 15.8205 8.46875 14.992 8.46875 13.973C8.46875 12.9535 9.29366 12.125 10.3131 12.125C11.3325 12.125 12.1614 12.9535 12.1614 13.973Z" fill="#18BA33"/>
<path d="M15.4402 15.2632C16.982 15.2632 18.2319 14.0133 18.2319 12.4714C18.2319 10.9296 16.982 9.67969 15.4402 9.67969C13.8983 9.67969 12.6484 10.9296 12.6484 12.4714C12.6484 14.0133 13.8983 15.2632 15.4402 15.2632Z" fill="#18BA33"/>
<path d="M20.5709 12.125C21.5903 12.125 22.4189 12.9535 22.4189 13.973C22.4189 14.9924 21.5903 15.8205 20.5709 15.8205C19.5515 15.8205 18.7266 14.992 18.7266 13.973C18.7266 12.9535 19.5515 12.125 20.5709 12.125Z" fill="#18BA33"/>
<path d="M24.4497 18.3791V19.597C24.4497 19.7483 24.3561 19.8852 24.2156 19.9349C23.4523 20.2126 22.663 20.3996 21.8561 20.4976V20.4904V18.7833C21.8601 17.9439 21.547 17.1374 20.9844 16.5135C21.3158 16.4602 21.6328 16.3409 21.9177 16.1641C23.0341 16.4303 24.4425 17.043 24.4497 18.3791Z" fill="#18BA33"/>
<path d="M21.1327 18.7814V20.4885C21.1327 20.7914 20.9418 21.0652 20.6576 21.1657C17.2863 22.376 13.5968 22.376 10.2255 21.1657C9.94092 21.0652 9.75 20.7914 9.75 20.4885V18.7814C9.7536 16.7609 11.8933 15.8387 13.5756 15.4453C14.7175 16.1658 16.1692 16.1622 17.3111 15.4453C18.9926 15.8452 21.1252 16.7562 21.1327 18.7814Z" fill="#18BA33"/>
<path d="M9.89895 16.5135C9.337 17.1367 9.02721 17.9439 9.02721 18.7833V20.4904V20.4979C8.22391 20.4003 7.43142 20.2137 6.67134 19.9356C6.52725 19.8852 6.43359 19.7483 6.43359 19.597V18.3791C6.4372 17.043 7.85288 16.4303 8.96597 16.1641C9.25055 16.3402 9.56755 16.4591 9.89895 16.5135Z" fill="#18BA33"/>
</g>
<defs>
<clipPath id="clip0_3561_61988">
<rect width="32" height="32" fill="white"/>
</clipPath>
</defs>
</svg>
