<svg width="270" height="84" viewBox="0 0 270 84" fill="none" xmlns="http://www.w3.org/2000/svg">
<g filter="url(#filter0_d_3863_85253)">
<rect x="6" y="6" width="250" height="54" rx="8" fill="#031B07"/>
<path d="M24.1136 19.2727V28H23.0568V19.2727H24.1136ZM29.011 21.4545V22.3068H25.4826V21.4545H29.011ZM26.5394 28V20.5511C26.5394 20.1761 26.6275 19.8636 26.8036 19.6136C26.9798 19.3636 27.2085 19.1761 27.4897 19.0511C27.771 18.9261 28.0678 18.8636 28.3803 18.8636C28.6275 18.8636 28.8292 18.8835 28.9854 18.9233C29.1417 18.9631 29.2582 19 29.3349 19.0341L29.0451 19.9034C28.994 19.8864 28.9229 19.8651 28.832 19.8395C28.744 19.8139 28.6275 19.8011 28.4826 19.8011C28.1502 19.8011 27.9102 19.8849 27.7624 20.0526C27.6175 20.2202 27.5451 20.4659 27.5451 20.7898V28H26.5394ZM34.4432 30.4545C34.2727 30.4545 34.1207 30.4403 33.9872 30.4119C33.8537 30.3864 33.7614 30.3608 33.7102 30.3352L33.9659 29.4489C34.2102 29.5114 34.4261 29.5341 34.6136 29.517C34.8011 29.5 34.9673 29.4162 35.1122 29.2656C35.2599 29.1179 35.3949 28.8778 35.517 28.5455L35.7045 28.0341L33.2841 21.4545H34.375L36.1818 26.6705H36.25L38.0568 21.4545H39.1477L36.3693 28.9545C36.2443 29.2926 36.0895 29.5724 35.9048 29.794C35.7202 30.0185 35.5057 30.1847 35.2614 30.2926C35.0199 30.4006 34.7472 30.4545 34.4432 30.4545ZM42.8999 28.1364C42.3089 28.1364 41.7905 27.9957 41.3445 27.7145C40.9013 27.4332 40.5547 27.0398 40.3047 26.5341C40.0575 26.0284 39.9339 25.4375 39.9339 24.7614C39.9339 24.0795 40.0575 23.4844 40.3047 22.9759C40.5547 22.4673 40.9013 22.0724 41.3445 21.7912C41.7905 21.5099 42.3089 21.3693 42.8999 21.3693C43.4908 21.3693 44.0078 21.5099 44.451 21.7912C44.897 22.0724 45.2436 22.4673 45.4908 22.9759C45.7408 23.4844 45.8658 24.0795 45.8658 24.7614C45.8658 25.4375 45.7408 26.0284 45.4908 26.5341C45.2436 27.0398 44.897 27.4332 44.451 27.7145C44.0078 27.9957 43.4908 28.1364 42.8999 28.1364ZM42.8999 27.233C43.3487 27.233 43.718 27.1179 44.0078 26.8878C44.2976 26.6577 44.5121 26.3551 44.6513 25.9801C44.7905 25.6051 44.8601 25.1989 44.8601 24.7614C44.8601 24.3239 44.7905 23.9162 44.6513 23.5384C44.5121 23.1605 44.2976 22.8551 44.0078 22.6222C43.718 22.3892 43.3487 22.2727 42.8999 22.2727C42.451 22.2727 42.0817 22.3892 41.7919 22.6222C41.5021 22.8551 41.2876 23.1605 41.1484 23.5384C41.0092 23.9162 40.9396 24.3239 40.9396 24.7614C40.9396 25.1989 41.0092 25.6051 41.1484 25.9801C41.2876 26.3551 41.5021 26.6577 41.7919 26.8878C42.0817 27.1179 42.451 27.233 42.8999 27.233ZM51.5259 25.3239V21.4545H52.5316V28H51.5259V26.892H51.4577C51.3043 27.2244 51.0657 27.5071 50.7418 27.7401C50.418 27.9702 50.0089 28.0852 49.5146 28.0852C49.1055 28.0852 48.7418 27.9957 48.4237 27.8168C48.1055 27.6349 47.8555 27.3622 47.6737 26.9986C47.4918 26.6321 47.4009 26.1705 47.4009 25.6136V21.4545H48.4066V25.5455C48.4066 26.0227 48.5401 26.4034 48.8072 26.6875C49.0771 26.9716 49.4208 27.1136 49.8384 27.1136C50.0884 27.1136 50.3427 27.0497 50.6012 26.9219C50.8626 26.794 51.0813 26.598 51.2575 26.3338C51.4364 26.0696 51.5259 25.733 51.5259 25.3239ZM58.7543 19.2727V28H57.7486V19.2727H58.7543ZM63.3406 28.1364C62.7099 28.1364 62.1658 27.9972 61.7085 27.7188C61.2539 27.4375 60.9031 27.0455 60.6559 26.5426C60.4116 26.0369 60.2894 25.4489 60.2894 24.7784C60.2894 24.108 60.4116 23.517 60.6559 23.0057C60.9031 22.4915 61.2468 22.0909 61.6871 21.804C62.1303 21.5142 62.6474 21.3693 63.2383 21.3693C63.5792 21.3693 63.9158 21.4261 64.2482 21.5398C64.5806 21.6534 64.8832 21.8381 65.1559 22.0938C65.4286 22.3466 65.646 22.6818 65.8079 23.0994C65.9698 23.517 66.0508 24.0312 66.0508 24.642V25.0682H61.0053V24.1989H65.0281C65.0281 23.8295 64.9542 23.5 64.8065 23.2102C64.6616 22.9205 64.4542 22.6918 64.1843 22.5241C63.9173 22.3565 63.6019 22.2727 63.2383 22.2727C62.8377 22.2727 62.4911 22.3722 62.1985 22.571C61.9087 22.767 61.6857 23.0227 61.5295 23.3381C61.3732 23.6534 61.2951 23.9915 61.2951 24.3523V24.9318C61.2951 25.4261 61.3803 25.8452 61.5508 26.1889C61.7241 26.5298 61.9641 26.7898 62.271 26.9688C62.5778 27.1449 62.9343 27.233 63.3406 27.233C63.6048 27.233 63.8434 27.196 64.0565 27.1222C64.2724 27.0455 64.4585 26.9318 64.6147 26.7812C64.771 26.6278 64.8917 26.4375 64.9769 26.2102L65.9485 26.483C65.8462 26.8125 65.6744 27.1023 65.4329 27.3523C65.1914 27.5994 64.8931 27.7926 64.538 27.9318C64.1829 28.0682 63.7837 28.1364 63.3406 28.1364ZM69.5067 28.1534C69.092 28.1534 68.7156 28.0753 68.3775 27.919C68.0394 27.7599 67.771 27.5312 67.5721 27.233C67.3732 26.9318 67.2738 26.5682 67.2738 26.142C67.2738 25.767 67.3477 25.4631 67.4954 25.2301C67.6431 24.9943 67.8406 24.8097 68.0877 24.6761C68.3349 24.5426 68.6076 24.4432 68.9059 24.3778C69.207 24.3097 69.5096 24.2557 69.8136 24.2159C70.2113 24.1648 70.5337 24.1264 70.7809 24.1009C71.0309 24.0724 71.2127 24.0256 71.3263 23.9602C71.4428 23.8949 71.5011 23.7812 71.5011 23.6193V23.5852C71.5011 23.1648 71.386 22.8381 71.1559 22.6051C70.9286 22.3722 70.5835 22.2557 70.1204 22.2557C69.6403 22.2557 69.2638 22.3608 68.9911 22.571C68.7184 22.7812 68.5266 23.0057 68.4158 23.2443L67.4613 22.9034C67.6317 22.5057 67.859 22.196 68.1431 21.9744C68.43 21.75 68.7425 21.5937 69.0806 21.5057C69.4215 21.4148 69.7567 21.3693 70.0863 21.3693C70.2965 21.3693 70.538 21.3949 70.8107 21.446C71.0863 21.4943 71.3519 21.5952 71.6076 21.7486C71.8661 21.902 72.0806 22.1335 72.2511 22.4432C72.4215 22.7528 72.5067 23.1676 72.5067 23.6875V28H71.5011V27.1136H71.4499C71.3817 27.2557 71.2681 27.4077 71.109 27.5696C70.9499 27.7315 70.7383 27.8693 70.4741 27.983C70.2099 28.0966 69.8874 28.1534 69.5067 28.1534ZM69.6602 27.25C70.0579 27.25 70.3931 27.1719 70.6658 27.0156C70.9414 26.8594 71.1488 26.6577 71.288 26.4105C71.43 26.1634 71.5011 25.9034 71.5011 25.6307V24.7102C71.4585 24.7614 71.3647 24.8082 71.2198 24.8509C71.0778 24.8906 70.913 24.9261 70.7255 24.9574C70.5408 24.9858 70.3604 25.0114 70.1843 25.0341C70.011 25.054 69.8704 25.071 69.7624 25.0852C69.5011 25.1193 69.2567 25.1747 69.0295 25.2514C68.805 25.3253 68.6232 25.4375 68.484 25.5881C68.3477 25.7358 68.2795 25.9375 68.2795 26.1932C68.2795 26.5426 68.4087 26.8068 68.6673 26.9858C68.9286 27.1619 69.2596 27.25 69.6602 27.25ZM79.4602 21.4545L77.0398 28H76.017L73.5966 21.4545H74.6875L76.4943 26.6705H76.5625L78.3693 21.4545H79.4602ZM83.2976 28.1364C82.6669 28.1364 82.1229 27.9972 81.6655 27.7188C81.2109 27.4375 80.8601 27.0455 80.6129 26.5426C80.3686 26.0369 80.2464 25.4489 80.2464 24.7784C80.2464 24.108 80.3686 23.517 80.6129 23.0057C80.8601 22.4915 81.2038 22.0909 81.6442 21.804C82.0874 21.5142 82.6044 21.3693 83.1953 21.3693C83.5362 21.3693 83.8729 21.4261 84.2053 21.5398C84.5376 21.6534 84.8402 21.8381 85.1129 22.0938C85.3857 22.3466 85.603 22.6818 85.7649 23.0994C85.9268 23.517 86.0078 24.0312 86.0078 24.642V25.0682H80.9624V24.1989H84.9851C84.9851 23.8295 84.9112 23.5 84.7635 23.2102C84.6186 22.9205 84.4112 22.6918 84.1413 22.5241C83.8743 22.3565 83.5589 22.2727 83.1953 22.2727C82.7947 22.2727 82.4482 22.3722 82.1555 22.571C81.8658 22.767 81.6428 23.0227 81.4865 23.3381C81.3303 23.6534 81.2521 23.9915 81.2521 24.3523V24.9318C81.2521 25.4261 81.3374 25.8452 81.5078 26.1889C81.6811 26.5298 81.9212 26.7898 82.228 26.9688C82.5348 27.1449 82.8913 27.233 83.2976 27.233C83.5618 27.233 83.8004 27.196 84.0135 27.1222C84.2294 27.0455 84.4155 26.9318 84.5717 26.7812C84.728 26.6278 84.8487 26.4375 84.9339 26.2102L85.9055 26.483C85.8033 26.8125 85.6314 27.1023 85.3899 27.3523C85.1484 27.5994 84.8501 27.7926 84.495 27.9318C84.1399 28.0682 83.7408 28.1364 83.2976 28.1364ZM93.7592 21.4545V22.3068H90.3672V21.4545H93.7592ZM91.3558 19.8864H92.3615V26.125C92.3615 26.4091 92.4027 26.6222 92.4851 26.7642C92.5703 26.9034 92.6783 26.9972 92.8089 27.0455C92.9425 27.0909 93.0831 27.1136 93.2308 27.1136C93.3416 27.1136 93.4325 27.108 93.5036 27.0966C93.5746 27.0824 93.6314 27.071 93.674 27.0625L93.8786 27.9659C93.8104 27.9915 93.7152 28.017 93.593 28.0426C93.4709 28.071 93.3161 28.0852 93.1286 28.0852C92.8445 28.0852 92.5661 28.0241 92.2933 27.902C92.0234 27.7798 91.799 27.5938 91.62 27.3438C91.4439 27.0938 91.3558 26.7784 91.3558 26.3977V19.8864ZM96.4183 24.0625V28H95.4126V19.2727H96.4183V22.4773H96.5036C96.657 22.1392 96.8871 21.8707 97.1939 21.6719C97.5036 21.4702 97.9155 21.3693 98.4297 21.3693C98.8757 21.3693 99.2663 21.4588 99.6016 21.6378C99.9368 21.8139 100.197 22.0852 100.381 22.4517C100.569 22.8153 100.663 23.2784 100.663 23.8409V28H99.657V23.9091C99.657 23.3892 99.522 22.9872 99.2521 22.7031C98.9851 22.4162 98.6143 22.2727 98.1399 22.2727C97.8104 22.2727 97.5149 22.3423 97.2536 22.4815C96.995 22.6207 96.7905 22.8239 96.6399 23.0909C96.4922 23.358 96.4183 23.6818 96.4183 24.0625ZM105.247 28.1364C104.616 28.1364 104.072 27.9972 103.615 27.7188C103.16 27.4375 102.809 27.0455 102.562 26.5426C102.318 26.0369 102.196 25.4489 102.196 24.7784C102.196 24.108 102.318 23.517 102.562 23.0057C102.809 22.4915 103.153 22.0909 103.593 21.804C104.037 21.5142 104.554 21.3693 105.145 21.3693C105.485 21.3693 105.822 21.4261 106.154 21.5398C106.487 21.6534 106.789 21.8381 107.062 22.0938C107.335 22.3466 107.552 22.6818 107.714 23.0994C107.876 23.517 107.957 24.0312 107.957 24.642V25.0682H102.912V24.1989H106.934C106.934 23.8295 106.86 23.5 106.713 23.2102C106.568 22.9205 106.36 22.6918 106.091 22.5241C105.824 22.3565 105.508 22.2727 105.145 22.2727C104.744 22.2727 104.397 22.3722 104.105 22.571C103.815 22.767 103.592 23.0227 103.436 23.3381C103.279 23.6534 103.201 23.9915 103.201 24.3523V24.9318C103.201 25.4261 103.287 25.8452 103.457 26.1889C103.63 26.5298 103.87 26.7898 104.177 26.9688C104.484 27.1449 104.841 27.233 105.247 27.233C105.511 27.233 105.75 27.196 105.963 27.1222C106.179 27.0455 106.365 26.9318 106.521 26.7812C106.677 26.6278 106.798 26.4375 106.883 26.2102L107.855 26.483C107.752 26.8125 107.581 27.1023 107.339 27.3523C107.098 27.5994 106.799 27.7926 106.444 27.9318C106.089 28.0682 105.69 28.1364 105.247 28.1364ZM115.777 21.4545V22.3068H112.248V21.4545H115.777ZM113.305 28V20.5511C113.305 20.1761 113.393 19.8636 113.569 19.6136C113.745 19.3636 113.974 19.1761 114.255 19.0511C114.537 18.9261 114.833 18.8636 115.146 18.8636C115.393 18.8636 115.595 18.8835 115.751 18.9233C115.907 18.9631 116.024 19 116.1 19.0341L115.811 19.9034C115.76 19.8864 115.689 19.8651 115.598 19.8395C115.51 19.8139 115.393 19.8011 115.248 19.8011C114.916 19.8011 114.676 19.8849 114.528 20.0526C114.383 20.2202 114.311 20.4659 114.311 20.7898V28H113.305ZM117.186 28V21.4545H118.192V28H117.186ZM117.697 20.3636C117.501 20.3636 117.332 20.2969 117.19 20.1634C117.051 20.0298 116.982 19.8693 116.982 19.6818C116.982 19.4943 117.051 19.3338 117.19 19.2003C117.332 19.0668 117.501 19 117.697 19C117.893 19 118.061 19.0668 118.2 19.2003C118.342 19.3338 118.413 19.4943 118.413 19.6818C118.413 19.8693 118.342 20.0298 118.2 20.1634C118.061 20.2969 117.893 20.3636 117.697 20.3636ZM122.778 28.1364C122.147 28.1364 121.603 27.9972 121.146 27.7188C120.691 27.4375 120.341 27.0455 120.093 26.5426C119.849 26.0369 119.727 25.4489 119.727 24.7784C119.727 24.108 119.849 23.517 120.093 23.0057C120.341 22.4915 120.684 22.0909 121.125 21.804C121.568 21.5142 122.085 21.3693 122.676 21.3693C123.017 21.3693 123.353 21.4261 123.686 21.5398C124.018 21.6534 124.321 21.8381 124.593 22.0938C124.866 22.3466 125.083 22.6818 125.245 23.0994C125.407 23.517 125.488 24.0312 125.488 24.642V25.0682H120.443V24.1989H124.466C124.466 23.8295 124.392 23.5 124.244 23.2102C124.099 22.9205 123.892 22.6918 123.622 22.5241C123.355 22.3565 123.039 22.2727 122.676 22.2727C122.275 22.2727 121.929 22.3722 121.636 22.571C121.346 22.767 121.123 23.0227 120.967 23.3381C120.811 23.6534 120.733 23.9915 120.733 24.3523V24.9318C120.733 25.4261 120.818 25.8452 120.988 26.1889C121.162 26.5298 121.402 26.7898 121.708 26.9688C122.015 27.1449 122.372 27.233 122.778 27.233C123.042 27.233 123.281 27.196 123.494 27.1222C123.71 27.0455 123.896 26.9318 124.052 26.7812C124.208 26.6278 124.329 26.4375 124.414 26.2102L125.386 26.483C125.284 26.8125 125.112 27.1023 124.87 27.3523C124.629 27.5994 124.331 27.7926 123.975 27.9318C123.62 28.0682 123.221 28.1364 122.778 28.1364ZM128.024 19.2727V28H127.018V19.2727H128.024ZM132.337 28.1364C131.792 28.1364 131.31 27.9986 130.893 27.723C130.475 27.4446 130.148 27.0526 129.913 26.5469C129.677 26.0384 129.559 25.4375 129.559 24.7443C129.559 24.0568 129.677 23.4602 129.913 22.9545C130.148 22.4489 130.477 22.0582 130.897 21.7827C131.317 21.5071 131.803 21.3693 132.354 21.3693C132.781 21.3693 133.117 21.4403 133.364 21.5824C133.614 21.7216 133.805 21.8807 133.935 22.0597C134.069 22.2358 134.173 22.3807 134.246 22.4943H134.332V19.2727H135.337V28H134.366V26.9943H134.246C134.173 27.1136 134.067 27.2642 133.931 27.446C133.795 27.625 133.6 27.7855 133.347 27.9276C133.094 28.0668 132.758 28.1364 132.337 28.1364ZM132.474 27.233C132.877 27.233 133.218 27.1278 133.496 26.9176C133.775 26.7045 133.987 26.4105 134.131 26.0355C134.276 25.6577 134.349 25.2216 134.349 24.7273C134.349 24.2386 134.278 23.8111 134.136 23.4446C133.994 23.0753 133.783 22.7884 133.505 22.5838C133.227 22.3764 132.883 22.2727 132.474 22.2727C132.048 22.2727 131.692 22.3821 131.408 22.6009C131.127 22.8168 130.915 23.1108 130.773 23.483C130.634 23.8523 130.565 24.267 130.565 24.7273C130.565 25.1932 130.636 25.6165 130.778 25.9972C130.923 26.375 131.136 26.6761 131.417 26.9006C131.701 27.1222 132.053 27.233 132.474 27.233ZM140.83 28V19.2727H141.836V22.4943H141.921C141.995 22.3807 142.097 22.2358 142.228 22.0597C142.362 21.8807 142.552 21.7216 142.799 21.5824C143.049 21.4403 143.387 21.3693 143.813 21.3693C144.364 21.3693 144.85 21.5071 145.271 21.7827C145.691 22.0582 146.019 22.4489 146.255 22.9545C146.491 23.4602 146.609 24.0568 146.609 24.7443C146.609 25.4375 146.491 26.0384 146.255 26.5469C146.019 27.0526 145.692 27.4446 145.275 27.723C144.857 27.9986 144.376 28.1364 143.83 28.1364C143.41 28.1364 143.073 28.0668 142.82 27.9276C142.567 27.7855 142.373 27.625 142.237 27.446C142.1 27.2642 141.995 27.1136 141.921 26.9943H141.802V28H140.83ZM141.819 24.7273C141.819 25.2216 141.891 25.6577 142.036 26.0355C142.181 26.4105 142.393 26.7045 142.671 26.9176C142.95 27.1278 143.29 27.233 143.694 27.233C144.114 27.233 144.465 27.1222 144.746 26.9006C145.031 26.6761 145.244 26.375 145.386 25.9972C145.531 25.6165 145.603 25.1932 145.603 24.7273C145.603 24.267 145.532 23.8523 145.39 23.483C145.251 23.1108 145.039 22.8168 144.755 22.6009C144.474 22.3821 144.12 22.2727 143.694 22.2727C143.285 22.2727 142.941 22.3764 142.663 22.5838C142.384 22.7884 142.174 23.0753 142.032 23.4446C141.89 23.8111 141.819 24.2386 141.819 24.7273ZM149.153 19.2727V28H148.147V19.2727H149.153ZM152.921 28.1534C152.506 28.1534 152.13 28.0753 151.792 27.919C151.453 27.7599 151.185 27.5312 150.986 27.233C150.787 26.9318 150.688 26.5682 150.688 26.142C150.688 25.767 150.762 25.4631 150.909 25.2301C151.057 24.9943 151.255 24.8097 151.502 24.6761C151.749 24.5426 152.022 24.4432 152.32 24.3778C152.621 24.3097 152.924 24.2557 153.228 24.2159C153.625 24.1648 153.948 24.1264 154.195 24.1009C154.445 24.0724 154.627 24.0256 154.74 23.9602C154.857 23.8949 154.915 23.7812 154.915 23.6193V23.5852C154.915 23.1648 154.8 22.8381 154.57 22.6051C154.343 22.3722 153.998 22.2557 153.534 22.2557C153.054 22.2557 152.678 22.3608 152.405 22.571C152.132 22.7812 151.941 23.0057 151.83 23.2443L150.875 22.9034C151.046 22.5057 151.273 22.196 151.557 21.9744C151.844 21.75 152.157 21.5937 152.495 21.5057C152.836 21.4148 153.171 21.3693 153.5 21.3693C153.711 21.3693 153.952 21.3949 154.225 21.446C154.5 21.4943 154.766 21.5952 155.022 21.7486C155.28 21.902 155.495 22.1335 155.665 22.4432C155.836 22.7528 155.921 23.1676 155.921 23.6875V28H154.915V27.1136H154.864C154.796 27.2557 154.682 27.4077 154.523 27.5696C154.364 27.7315 154.152 27.8693 153.888 27.983C153.624 28.0966 153.301 28.1534 152.921 28.1534ZM153.074 27.25C153.472 27.25 153.807 27.1719 154.08 27.0156C154.355 26.8594 154.563 26.6577 154.702 26.4105C154.844 26.1634 154.915 25.9034 154.915 25.6307V24.7102C154.873 24.7614 154.779 24.8082 154.634 24.8509C154.492 24.8906 154.327 24.9261 154.14 24.9574C153.955 24.9858 153.775 25.0114 153.598 25.0341C153.425 25.054 153.284 25.071 153.176 25.0852C152.915 25.1193 152.671 25.1747 152.444 25.2514C152.219 25.3253 152.037 25.4375 151.898 25.5881C151.762 25.7358 151.694 25.9375 151.694 26.1932C151.694 26.5426 151.823 26.8068 152.081 26.9858C152.343 27.1619 152.674 27.25 153.074 27.25ZM158.762 24.0625V28H157.756V21.4545H158.728V22.4773H158.813C158.967 22.1449 159.2 21.8778 159.512 21.6761C159.825 21.4716 160.228 21.3693 160.722 21.3693C161.165 21.3693 161.553 21.4602 161.886 21.642C162.218 21.821 162.477 22.0938 162.661 22.4602C162.846 22.8239 162.938 23.2841 162.938 23.8409V28H161.933V23.9091C161.933 23.3949 161.799 22.9943 161.532 22.7074C161.265 22.4176 160.898 22.2727 160.433 22.2727C160.112 22.2727 159.825 22.3423 159.572 22.4815C159.322 22.6207 159.124 22.8239 158.979 23.0909C158.835 23.358 158.762 23.6818 158.762 24.0625ZM165.713 25.6136L165.696 24.3693H165.901L168.765 21.4545H170.009L166.958 24.5398H166.873L165.713 25.6136ZM164.776 28V19.2727H165.782V28H164.776ZM168.935 28L166.378 24.7614L167.094 24.0625L170.213 28H168.935ZM172.803 26.8068L172.735 27.267C172.687 27.5909 172.613 27.9375 172.513 28.3068C172.417 28.6761 172.316 29.0241 172.211 29.3509C172.106 29.6776 172.019 29.9375 171.951 30.1307H171.184C171.221 29.9489 171.269 29.7088 171.329 29.4105C171.388 29.1122 171.448 28.7784 171.508 28.4091C171.57 28.0426 171.621 27.6676 171.661 27.2841L171.712 26.8068H172.803ZM178.689 30.4545C178.519 30.4545 178.367 30.4403 178.233 30.4119C178.1 30.3864 178.007 30.3608 177.956 30.3352L178.212 29.4489C178.456 29.5114 178.672 29.5341 178.86 29.517C179.047 29.5 179.213 29.4162 179.358 29.2656C179.506 29.1179 179.641 28.8778 179.763 28.5455L179.951 28.0341L177.53 21.4545H178.621L180.428 26.6705H180.496L182.303 21.4545H183.394L180.615 28.9545C180.49 29.2926 180.336 29.5724 180.151 29.794C179.966 30.0185 179.752 30.1847 179.507 30.2926C179.266 30.4006 178.993 30.4545 178.689 30.4545ZM187.146 28.1364C186.555 28.1364 186.037 27.9957 185.591 27.7145C185.147 27.4332 184.801 27.0398 184.551 26.5341C184.304 26.0284 184.18 25.4375 184.18 24.7614C184.18 24.0795 184.304 23.4844 184.551 22.9759C184.801 22.4673 185.147 22.0724 185.591 21.7912C186.037 21.5099 186.555 21.3693 187.146 21.3693C187.737 21.3693 188.254 21.5099 188.697 21.7912C189.143 22.0724 189.49 22.4673 189.737 22.9759C189.987 23.4844 190.112 24.0795 190.112 24.7614C190.112 25.4375 189.987 26.0284 189.737 26.5341C189.49 27.0398 189.143 27.4332 188.697 27.7145C188.254 27.9957 187.737 28.1364 187.146 28.1364ZM187.146 27.233C187.595 27.233 187.964 27.1179 188.254 26.8878C188.544 26.6577 188.758 26.3551 188.897 25.9801C189.037 25.6051 189.106 25.1989 189.106 24.7614C189.106 24.3239 189.037 23.9162 188.897 23.5384C188.758 23.1605 188.544 22.8551 188.254 22.6222C187.964 22.3892 187.595 22.2727 187.146 22.2727C186.697 22.2727 186.328 22.3892 186.038 22.6222C185.748 22.8551 185.534 23.1605 185.395 23.5384C185.255 23.9162 185.186 24.3239 185.186 24.7614C185.186 25.1989 185.255 25.6051 185.395 25.9801C185.534 26.3551 185.748 26.6577 186.038 26.8878C186.328 27.1179 186.697 27.233 187.146 27.233ZM195.772 25.3239V21.4545H196.778V28H195.772V26.892H195.704C195.55 27.2244 195.312 27.5071 194.988 27.7401C194.664 27.9702 194.255 28.0852 193.761 28.0852C193.352 28.0852 192.988 27.9957 192.67 27.8168C192.352 27.6349 192.102 27.3622 191.92 26.9986C191.738 26.6321 191.647 26.1705 191.647 25.6136V21.4545H192.653V25.5455C192.653 26.0227 192.786 26.4034 193.053 26.6875C193.323 26.9716 193.667 27.1136 194.085 27.1136C194.335 27.1136 194.589 27.0497 194.847 26.9219C195.109 26.794 195.327 26.598 195.504 26.3338C195.683 26.0696 195.772 25.733 195.772 25.3239ZM198.62 28V21.4545H199.591V22.4432H199.659C199.779 22.1193 199.995 21.8565 200.307 21.6548C200.62 21.4531 200.972 21.3523 201.364 21.3523C201.438 21.3523 201.53 21.3537 201.641 21.3565C201.752 21.3594 201.836 21.3636 201.892 21.3693V22.392C201.858 22.3835 201.78 22.3707 201.658 22.3537C201.539 22.3338 201.412 22.3239 201.279 22.3239C200.961 22.3239 200.676 22.3906 200.426 22.5241C200.179 22.6548 199.983 22.8366 199.838 23.0696C199.696 23.2997 199.625 23.5625 199.625 23.858V28H198.62ZM209.119 28.1364C208.505 28.1364 207.977 27.9915 207.533 27.7017C207.09 27.4119 206.749 27.0128 206.511 26.5043C206.272 25.9957 206.153 25.4148 206.153 24.7614C206.153 24.0966 206.275 23.5099 206.519 23.0014C206.766 22.4901 207.11 22.0909 207.55 21.804C207.994 21.5142 208.511 21.3693 209.102 21.3693C209.562 21.3693 209.977 21.4545 210.346 21.625C210.715 21.7955 211.018 22.0341 211.254 22.3409C211.489 22.6477 211.636 23.0057 211.692 23.4148H210.687C210.61 23.1165 210.44 22.8523 210.175 22.6222C209.914 22.3892 209.562 22.2727 209.119 22.2727C208.727 22.2727 208.383 22.375 208.087 22.5795C207.795 22.7812 207.566 23.0668 207.401 23.4361C207.239 23.8026 207.158 24.233 207.158 24.7273C207.158 25.233 207.238 25.6733 207.397 26.0483C207.559 26.4233 207.786 26.7145 208.079 26.9219C208.374 27.1293 208.721 27.233 209.119 27.233C209.38 27.233 209.617 27.1875 209.83 27.0966C210.043 27.0057 210.224 26.875 210.371 26.7045C210.519 26.5341 210.624 26.3295 210.687 26.0909H211.692C211.636 26.4773 211.495 26.8253 211.271 27.1349C211.049 27.4418 210.755 27.6861 210.388 27.8679C210.025 28.0469 209.602 28.1364 209.119 28.1364ZM214.168 19.2727V28H213.163V19.2727H214.168ZM216.01 28V21.4545H217.016V28H216.01ZM216.522 20.3636C216.326 20.3636 216.157 20.2969 216.015 20.1634C215.875 20.0298 215.806 19.8693 215.806 19.6818C215.806 19.4943 215.875 19.3338 216.015 19.2003C216.157 19.0668 216.326 19 216.522 19C216.718 19 216.885 19.0668 217.025 19.2003C217.167 19.3338 217.238 19.4943 217.238 19.6818C217.238 19.8693 217.167 20.0298 217.025 20.1634C216.885 20.2969 216.718 20.3636 216.522 20.3636ZM221.602 28.1364C220.972 28.1364 220.428 27.9972 219.97 27.7188C219.516 27.4375 219.165 27.0455 218.918 26.5426C218.673 26.0369 218.551 25.4489 218.551 24.7784C218.551 24.108 218.673 23.517 218.918 23.0057C219.165 22.4915 219.509 22.0909 219.949 21.804C220.392 21.5142 220.909 21.3693 221.5 21.3693C221.841 21.3693 222.178 21.4261 222.51 21.5398C222.842 21.6534 223.145 21.8381 223.418 22.0938C223.69 22.3466 223.908 22.6818 224.07 23.0994C224.232 23.517 224.312 24.0312 224.312 24.642V25.0682H219.267V24.1989H223.29C223.29 23.8295 223.216 23.5 223.068 23.2102C222.923 22.9205 222.716 22.6918 222.446 22.5241C222.179 22.3565 221.864 22.2727 221.5 22.2727C221.099 22.2727 220.753 22.3722 220.46 22.571C220.17 22.767 219.947 23.0227 219.791 23.3381C219.635 23.6534 219.557 23.9915 219.557 24.3523V24.9318C219.557 25.4261 219.642 25.8452 219.812 26.1889C219.986 26.5298 220.226 26.7898 220.533 26.9688C220.839 27.1449 221.196 27.233 221.602 27.233C221.866 27.233 222.105 27.196 222.318 27.1222C222.534 27.0455 222.72 26.9318 222.876 26.7812C223.033 26.6278 223.153 26.4375 223.239 26.2102L224.21 26.483C224.108 26.8125 223.936 27.1023 223.695 27.3523C223.453 27.5994 223.155 27.7926 222.8 27.9318C222.445 28.0682 222.045 28.1364 221.602 28.1364ZM226.848 24.0625V28H225.842V21.4545H226.814V22.4773H226.899C227.053 22.1449 227.286 21.8778 227.598 21.6761C227.911 21.4716 228.314 21.3693 228.808 21.3693C229.251 21.3693 229.639 21.4602 229.972 21.642C230.304 21.821 230.563 22.0938 230.747 22.4602C230.932 22.8239 231.024 23.2841 231.024 23.8409V28H230.018V23.9091C230.018 23.3949 229.885 22.9943 229.618 22.7074C229.351 22.4176 228.984 22.2727 228.518 22.2727C228.197 22.2727 227.911 22.3423 227.658 22.4815C227.408 22.6207 227.21 22.8239 227.065 23.0909C226.92 23.358 226.848 23.6818 226.848 24.0625ZM235.708 21.4545V22.3068H232.316V21.4545H235.708ZM233.305 19.8864H234.311V26.125C234.311 26.4091 234.352 26.6222 234.434 26.7642C234.52 26.9034 234.627 26.9972 234.758 27.0455C234.892 27.0909 235.032 27.1136 235.18 27.1136C235.291 27.1136 235.382 27.108 235.453 27.0966C235.524 27.0824 235.581 27.071 235.623 27.0625L235.828 27.9659C235.76 27.9915 235.664 28.017 235.542 28.0426C235.42 28.071 235.265 28.0852 235.078 28.0852C234.794 28.0852 234.515 28.0241 234.243 27.902C233.973 27.7798 233.748 27.5938 233.569 27.3438C233.393 27.0938 233.305 26.7784 233.305 26.3977V19.8864ZM24.4034 47L22.4091 40.4545H23.4659L24.8807 45.4659H24.9489L26.3466 40.4545H27.4205L28.8011 45.4489H28.8693L30.2841 40.4545H31.3409L29.3466 47H28.358L26.9261 41.9716H26.8239L25.392 47H24.4034ZM32.6705 47V40.4545H33.6761V47H32.6705ZM33.1818 39.3636C32.9858 39.3636 32.8168 39.2969 32.6747 39.1634C32.5355 39.0298 32.4659 38.8693 32.4659 38.6818C32.4659 38.4943 32.5355 38.3338 32.6747 38.2003C32.8168 38.0668 32.9858 38 33.1818 38C33.3778 38 33.5455 38.0668 33.6847 38.2003C33.8267 38.3338 33.8977 38.4943 33.8977 38.6818C33.8977 38.8693 33.8267 39.0298 33.6847 39.1634C33.5455 39.2969 33.3778 39.3636 33.1818 39.3636ZM36.5238 38.2727V47H35.5181V38.2727H36.5238ZM39.3714 38.2727V47H38.3658V38.2727H39.3714ZM47.2305 49.5909C46.7447 49.5909 46.3271 49.5284 45.9776 49.4034C45.6282 49.2812 45.337 49.1193 45.104 48.9176C44.8739 48.7188 44.6907 48.5057 44.5543 48.2784L45.3555 47.7159C45.4464 47.8352 45.5614 47.9716 45.7006 48.125C45.8398 48.2812 46.0302 48.4162 46.2717 48.5298C46.516 48.6463 46.8356 48.7045 47.2305 48.7045C47.7589 48.7045 48.195 48.5767 48.5387 48.321C48.8825 48.0653 49.0543 47.6648 49.0543 47.1193V45.7898H48.9691C48.8952 45.9091 48.7901 46.0568 48.6538 46.233C48.5202 46.4062 48.3271 46.5611 48.0742 46.6974C47.8242 46.831 47.4862 46.8977 47.06 46.8977C46.5316 46.8977 46.0572 46.7727 45.6367 46.5227C45.2191 46.2727 44.8881 45.9091 44.6438 45.4318C44.4023 44.9545 44.2816 44.375 44.2816 43.6932C44.2816 43.0227 44.3995 42.4389 44.6353 41.9418C44.8711 41.4418 45.1992 41.0554 45.6197 40.7827C46.0401 40.5071 46.5259 40.3693 47.0771 40.3693C47.5032 40.3693 47.8413 40.4403 48.0913 40.5824C48.3441 40.7216 48.5373 40.8807 48.6708 41.0597C48.8072 41.2358 48.9123 41.3807 48.9862 41.4943H49.0884V40.4545H50.06V47.1875C50.06 47.75 49.9322 48.2074 49.6765 48.5597C49.4237 48.9148 49.0827 49.1747 48.6538 49.3395C48.2276 49.5071 47.7532 49.5909 47.2305 49.5909ZM47.1964 45.9943C47.5998 45.9943 47.9407 45.902 48.2191 45.7173C48.4975 45.5327 48.7092 45.267 48.854 44.9205C48.9989 44.5739 49.0714 44.1591 49.0714 43.6761C49.0714 43.2045 49.0004 42.7884 48.8583 42.4276C48.7163 42.0668 48.506 41.7841 48.2276 41.5795C47.9492 41.375 47.6055 41.2727 47.1964 41.2727C46.7702 41.2727 46.4151 41.3807 46.131 41.5966C45.8498 41.8125 45.6381 42.1023 45.4961 42.4659C45.3569 42.8295 45.2873 43.233 45.2873 43.6761C45.2873 44.1307 45.3583 44.5327 45.5004 44.8821C45.6452 45.2287 45.8583 45.5014 46.1396 45.7003C46.4237 45.8963 46.7759 45.9943 47.1964 45.9943ZM51.9009 47V40.4545H52.9066V47H51.9009ZM52.4123 39.3636C52.2163 39.3636 52.0472 39.2969 51.9052 39.1634C51.766 39.0298 51.6964 38.8693 51.6964 38.6818C51.6964 38.4943 51.766 38.3338 51.9052 38.2003C52.0472 38.0668 52.2163 38 52.4123 38C52.6083 38 52.7759 38.0668 52.9151 38.2003C53.0572 38.3338 53.1282 38.4943 53.1282 38.6818C53.1282 38.8693 53.0572 39.0298 52.9151 39.1634C52.7759 39.2969 52.6083 39.3636 52.4123 39.3636ZM60.1009 40.4545L57.6804 47H56.6577L54.2372 40.4545H55.3281L57.1349 45.6705H57.2031L59.0099 40.4545H60.1009ZM63.9382 47.1364C63.3075 47.1364 62.7635 46.9972 62.3061 46.7188C61.8516 46.4375 61.5007 46.0455 61.2536 45.5426C61.0092 45.0369 60.8871 44.4489 60.8871 43.7784C60.8871 43.108 61.0092 42.517 61.2536 42.0057C61.5007 41.4915 61.8445 41.0909 62.2848 40.804C62.728 40.5142 63.245 40.3693 63.8359 40.3693C64.1768 40.3693 64.5135 40.4261 64.8459 40.5398C65.1783 40.6534 65.4808 40.8381 65.7536 41.0938C66.0263 41.3466 66.2436 41.6818 66.4055 42.0994C66.5675 42.517 66.6484 43.0312 66.6484 43.642V44.0682H61.603V43.1989H65.6257C65.6257 42.8295 65.5518 42.5 65.4041 42.2102C65.2592 41.9205 65.0518 41.6918 64.782 41.5241C64.5149 41.3565 64.1996 41.2727 63.8359 41.2727C63.4354 41.2727 63.0888 41.3722 62.7962 41.571C62.5064 41.767 62.2834 42.0227 62.1271 42.3381C61.9709 42.6534 61.8928 42.9915 61.8928 43.3523V43.9318C61.8928 44.4261 61.978 44.8452 62.1484 45.1889C62.3217 45.5298 62.5618 45.7898 62.8686 45.9688C63.1754 46.1449 63.532 46.233 63.9382 46.233C64.2024 46.233 64.4411 46.196 64.6541 46.1222C64.87 46.0455 65.0561 45.9318 65.2124 45.7812C65.3686 45.6278 65.4893 45.4375 65.5746 45.2102L66.5462 45.483C66.4439 45.8125 66.272 46.1023 66.0305 46.3523C65.7891 46.5994 65.4908 46.7926 65.1357 46.9318C64.7805 47.0682 64.3814 47.1364 63.9382 47.1364ZM72.5589 43.0625V47H71.5533V38.2727H72.5589V41.4773H72.6442C72.7976 41.1392 73.0277 40.8707 73.3345 40.6719C73.6442 40.4702 74.0561 40.3693 74.5703 40.3693C75.0163 40.3693 75.407 40.4588 75.7422 40.6378C76.0774 40.8139 76.3374 41.0852 76.522 41.4517C76.7095 41.8153 76.8033 42.2784 76.8033 42.8409V47H75.7976V42.9091C75.7976 42.3892 75.6626 41.9872 75.3928 41.7031C75.1257 41.4162 74.755 41.2727 74.2805 41.2727C73.951 41.2727 73.6555 41.3423 73.3942 41.4815C73.1357 41.6207 72.9311 41.8239 72.7805 42.0909C72.6328 42.358 72.5589 42.6818 72.5589 43.0625ZM78.6431 47V40.4545H79.6488V47H78.6431ZM79.1545 39.3636C78.9585 39.3636 78.7894 39.2969 78.6474 39.1634C78.5082 39.0298 78.4386 38.8693 78.4386 38.6818C78.4386 38.4943 78.5082 38.3338 78.6474 38.2003C78.7894 38.0668 78.9585 38 79.1545 38C79.3505 38 79.5181 38.0668 79.6573 38.2003C79.7994 38.3338 79.8704 38.4943 79.8704 38.6818C79.8704 38.8693 79.7994 39.0298 79.6573 39.1634C79.5181 39.2969 79.3505 39.3636 79.1545 39.3636ZM86.1271 41.9205L85.2237 42.1761C85.1669 42.0256 85.0831 41.8793 84.9723 41.7372C84.8643 41.5923 84.7166 41.473 84.5291 41.3793C84.3416 41.2855 84.1016 41.2386 83.8089 41.2386C83.4084 41.2386 83.0746 41.331 82.8075 41.5156C82.5433 41.6974 82.4112 41.929 82.4112 42.2102C82.4112 42.4602 82.5021 42.6577 82.6839 42.8026C82.8658 42.9474 83.1499 43.0682 83.5362 43.1648L84.5078 43.4034C85.093 43.5455 85.5291 43.7628 85.8161 44.0554C86.103 44.3452 86.2464 44.7187 86.2464 45.1761C86.2464 45.5511 86.1385 45.8864 85.9226 46.1818C85.7095 46.4773 85.4112 46.7102 85.0277 46.8807C84.6442 47.0511 84.1982 47.1364 83.6896 47.1364C83.022 47.1364 82.4695 46.9915 82.032 46.7017C81.5945 46.4119 81.3175 45.9886 81.201 45.4318L82.1555 45.1932C82.2464 45.5455 82.4183 45.8097 82.6712 45.9858C82.9268 46.1619 83.2607 46.25 83.6726 46.25C84.1413 46.25 84.5135 46.1506 84.7891 45.9517C85.0675 45.75 85.2067 45.5085 85.2067 45.2273C85.2067 45 85.1271 44.8097 84.968 44.6562C84.8089 44.5 84.5646 44.3835 84.2351 44.3068L83.1442 44.0511C82.5447 43.9091 82.1044 43.6889 81.8232 43.3906C81.5447 43.0895 81.4055 42.7131 81.4055 42.2614C81.4055 41.892 81.5092 41.5653 81.7166 41.2812C81.9268 40.9972 82.2124 40.7741 82.5732 40.6122C82.9368 40.4503 83.3487 40.3693 83.8089 40.3693C84.4567 40.3693 84.9652 40.5114 85.3345 40.7955C85.7067 41.0795 85.9709 41.4545 86.1271 41.9205ZM92.6183 47L90.6239 40.4545H91.6808L93.0955 45.4659H93.1637L94.5614 40.4545H95.6353L97.016 45.4489H97.0842L98.4989 40.4545H99.5558L97.5614 47H96.5728L95.141 41.9716H95.0387L93.6069 47H92.6183ZM103.322 47.1364C102.731 47.1364 102.212 46.9957 101.766 46.7145C101.323 46.4332 100.977 46.0398 100.727 45.5341C100.479 45.0284 100.356 44.4375 100.356 43.7614C100.356 43.0795 100.479 42.4844 100.727 41.9759C100.977 41.4673 101.323 41.0724 101.766 40.7912C102.212 40.5099 102.731 40.3693 103.322 40.3693C103.913 40.3693 104.43 40.5099 104.873 40.7912C105.319 41.0724 105.665 41.4673 105.913 41.9759C106.163 42.4844 106.288 43.0795 106.288 43.7614C106.288 44.4375 106.163 45.0284 105.913 45.5341C105.665 46.0398 105.319 46.4332 104.873 46.7145C104.43 46.9957 103.913 47.1364 103.322 47.1364ZM103.322 46.233C103.771 46.233 104.14 46.1179 104.43 45.8878C104.719 45.6577 104.934 45.3551 105.073 44.9801C105.212 44.6051 105.282 44.1989 105.282 43.7614C105.282 43.3239 105.212 42.9162 105.073 42.5384C104.934 42.1605 104.719 41.8551 104.43 41.6222C104.14 41.3892 103.771 41.2727 103.322 41.2727C102.873 41.2727 102.504 41.3892 102.214 41.6222C101.924 41.8551 101.71 42.1605 101.57 42.5384C101.431 42.9162 101.362 43.3239 101.362 43.7614C101.362 44.1989 101.431 44.6051 101.57 44.9801C101.71 45.3551 101.924 45.6577 102.214 45.8878C102.504 46.1179 102.873 46.233 103.322 46.233ZM108.828 43.0625V47H107.823V40.4545H108.794V41.4773H108.88C109.033 41.1449 109.266 40.8778 109.578 40.6761C109.891 40.4716 110.294 40.3693 110.789 40.3693C111.232 40.3693 111.62 40.4602 111.952 40.642C112.284 40.821 112.543 41.0938 112.728 41.4602C112.912 41.8239 113.005 42.2841 113.005 42.8409V47H111.999V42.9091C111.999 42.3949 111.865 41.9943 111.598 41.7074C111.331 41.4176 110.965 41.2727 110.499 41.2727C110.178 41.2727 109.891 41.3423 109.638 41.4815C109.388 41.6207 109.191 41.8239 109.046 42.0909C108.901 42.358 108.828 42.6818 108.828 43.0625ZM118.217 47V40.4545H119.189V41.4432H119.257C119.376 41.1193 119.592 40.8565 119.905 40.6548C120.217 40.4531 120.57 40.3523 120.962 40.3523C121.036 40.3523 121.128 40.3537 121.239 40.3565C121.349 40.3594 121.433 40.3636 121.49 40.3693V41.392C121.456 41.3835 121.378 41.3707 121.256 41.3537C121.136 41.3338 121.01 41.3239 120.876 41.3239C120.558 41.3239 120.274 41.3906 120.024 41.5241C119.777 41.6548 119.581 41.8366 119.436 42.0696C119.294 42.2997 119.223 42.5625 119.223 42.858V47H118.217ZM125.227 47.1364C124.597 47.1364 124.053 46.9972 123.595 46.7188C123.141 46.4375 122.79 46.0455 122.543 45.5426C122.298 45.0369 122.176 44.4489 122.176 43.7784C122.176 43.108 122.298 42.517 122.543 42.0057C122.79 41.4915 123.134 41.0909 123.574 40.804C124.017 40.5142 124.534 40.3693 125.125 40.3693C125.466 40.3693 125.803 40.4261 126.135 40.5398C126.467 40.6534 126.77 40.8381 127.043 41.0938C127.315 41.3466 127.533 41.6818 127.695 42.0994C127.857 42.517 127.938 43.0312 127.938 43.642V44.0682H122.892V43.1989H126.915C126.915 42.8295 126.841 42.5 126.693 42.2102C126.548 41.9205 126.341 41.6918 126.071 41.5241C125.804 41.3565 125.489 41.2727 125.125 41.2727C124.724 41.2727 124.378 41.3722 124.085 41.571C123.795 41.767 123.572 42.0227 123.416 42.3381C123.26 42.6534 123.182 42.9915 123.182 43.3523V43.9318C123.182 44.4261 123.267 44.8452 123.438 45.1889C123.611 45.5298 123.851 45.7898 124.158 45.9688C124.464 46.1449 124.821 46.233 125.227 46.233C125.491 46.233 125.73 46.196 125.943 46.1222C126.159 46.0455 126.345 45.9318 126.501 45.7812C126.658 45.6278 126.778 45.4375 126.864 45.2102L127.835 45.483C127.733 45.8125 127.561 46.1023 127.32 46.3523C127.078 46.5994 126.78 46.7926 126.425 46.9318C126.07 47.0682 125.67 47.1364 125.227 47.1364ZM134.62 40.4545L132.2 47H131.177L128.757 40.4545H129.848L131.654 45.6705H131.723L133.529 40.4545H134.62ZM135.948 47V40.4545H136.953V47H135.948ZM136.459 39.3636C136.263 39.3636 136.094 39.2969 135.952 39.1634C135.813 39.0298 135.743 38.8693 135.743 38.6818C135.743 38.4943 135.813 38.3338 135.952 38.2003C136.094 38.0668 136.263 38 136.459 38C136.655 38 136.823 38.0668 136.962 38.2003C137.104 38.3338 137.175 38.4943 137.175 38.6818C137.175 38.8693 137.104 39.0298 136.962 39.1634C136.823 39.2969 136.655 39.3636 136.459 39.3636ZM141.54 47.1364C140.909 47.1364 140.365 46.9972 139.908 46.7188C139.453 46.4375 139.102 46.0455 138.855 45.5426C138.611 45.0369 138.489 44.4489 138.489 43.7784C138.489 43.108 138.611 42.517 138.855 42.0057C139.102 41.4915 139.446 41.0909 139.886 40.804C140.33 40.5142 140.847 40.3693 141.438 40.3693C141.778 40.3693 142.115 40.4261 142.447 40.5398C142.78 40.6534 143.082 40.8381 143.355 41.0938C143.628 41.3466 143.845 41.6818 144.007 42.0994C144.169 42.517 144.25 43.0312 144.25 43.642V44.0682H139.205V43.1989H143.227C143.227 42.8295 143.153 42.5 143.006 42.2102C142.861 41.9205 142.653 41.6918 142.384 41.5241C142.116 41.3565 141.801 41.2727 141.438 41.2727C141.037 41.2727 140.69 41.3722 140.398 41.571C140.108 41.767 139.885 42.0227 139.729 42.3381C139.572 42.6534 139.494 42.9915 139.494 43.3523V43.9318C139.494 44.4261 139.58 44.8452 139.75 45.1889C139.923 45.5298 140.163 45.7898 140.47 45.9688C140.777 46.1449 141.134 46.233 141.54 46.233C141.804 46.233 142.043 46.196 142.256 46.1222C142.472 46.0455 142.658 45.9318 142.814 45.7812C142.97 45.6278 143.091 45.4375 143.176 45.2102L144.148 45.483C144.045 45.8125 143.874 46.1023 143.632 46.3523C143.391 46.5994 143.092 46.7926 142.737 46.9318C142.382 47.0682 141.983 47.1364 141.54 47.1364ZM147.263 47L145.268 40.4545H146.325L147.74 45.4659H147.808L149.206 40.4545H150.28L151.661 45.4489H151.729L153.143 40.4545H154.2L152.206 47H151.217L149.786 41.9716H149.683L148.251 47H147.263Z" fill="white"/>
<path d="M36 70L26.4737 58L45.5263 58L36 70Z" fill="#031B07"/>
</g>
<defs>
<filter id="filter0_d_3863_85253" x="0" y="0" width="270" height="84" filterUnits="userSpaceOnUse" color-interpolation-filters="sRGB">
<feFlood flood-opacity="0" result="BackgroundImageFix"/>
<feColorMatrix in="SourceAlpha" type="matrix" values="0 0 0 0 0 0 0 0 0 0 0 0 0 0 0 0 0 0 127 0" result="hardAlpha"/>
<feOffset dx="4" dy="4"/>
<feGaussianBlur stdDeviation="5"/>
<feComposite in2="hardAlpha" operator="out"/>
<feColorMatrix type="matrix" values="0 0 0 0 0 0 0 0 0 0 0 0 0 0 0 0 0 0 0.1 0"/>
<feBlend mode="normal" in2="BackgroundImageFix" result="effect1_dropShadow_3863_85253"/>
<feBlend mode="normal" in="SourceGraphic" in2="effect1_dropShadow_3863_85253" result="shape"/>
</filter>
</defs>
</svg>
