<svg width="152" height="41" viewBox="0 0 152 41" fill="none" xmlns="http://www.w3.org/2000/svg">
<path d="M101.307 0.543457H94.9338V35.9332C100.726 36.131 106.494 36.4215 112.239 36.8015V30.5664C108.605 30.3257 104.961 30.1221 101.307 29.953V0.543457ZM151.96 0.547159H144.958L140.343 11.1673L136.197 0.547159H129.301L136.711 19.5238L128.622 38.1405C130.86 38.3573 133.091 38.5884 135.321 38.8328L140.026 28.0082L144.686 39.9405C147.113 40.2503 149.533 40.5736 151.949 40.9162L151.96 40.9121L143.657 19.6521L151.96 0.547159ZM73.055 35.6239L79.429 35.6226V21.2272H88.0693V14.992H79.429V6.83869H90.8482V0.54757H73.055V35.6239ZM49.2537 6.83828H55.9247V35.9945C58.0456 35.9151 60.1707 35.8497 62.2983 35.7946V6.83828H68.9689V0.547159H49.2537V6.83828ZM27.4631 37.8069C33.3378 37.2771 39.2394 36.8402 45.1676 36.5013V30.2653C41.3798 30.4829 37.6029 30.7399 33.8371 31.0341V21.5945C36.3081 21.5702 39.5618 21.4954 42.4442 21.5307V15.2951C40.1414 15.2898 36.4403 15.3272 33.8371 15.3601V6.83869H45.1676V0.54757H27.4631V37.8069ZM14.9604 23.3925L6.65899 0.547159H0.601562V40.9171C2.72208 40.6172 4.84674 40.3305 6.97554 40.0549V18.1022L14.3567 39.1536C16.6782 38.8862 19.0038 38.6333 21.3344 38.3951V0.547159H14.9604V23.3925ZM117.493 37.1771C119.621 37.3388 121.746 37.5119 123.868 37.6995V0.547159H117.493V37.1771Z" fill="#ED1C24"/>
</svg>
