<svg width="161" height="64" viewBox="0 0 161 64" fill="none" xmlns="http://www.w3.org/2000/svg">
<g clip-path="url(#clip0_3561_60799)">
<path d="M21.3317 13.9888C10.054 13.9888 0.65625 18.7605 0.65625 33.1564C0.65625 44.5612 6.97553 51.7432 21.6229 51.7432C38.8635 51.7432 39.9687 40.4169 39.9687 40.4169H31.6148C31.6148 40.4169 29.8237 46.5157 21.1133 46.5157C14.0189 46.5157 8.91638 41.7361 8.91638 35.0369H40.8423V30.8331C40.8423 24.2054 36.6236 13.9888 21.3317 13.9888ZM21.0405 19.3615C27.7936 19.3615 32.3974 23.4875 32.3974 29.6714H9.10115C9.10115 23.1064 15.1103 19.3615 21.0405 19.3615Z" fill="#E53238"/>
<path d="M40.8213 0.0512695V44.5162C40.8213 47.0402 40.6406 50.5842 40.6406 50.5842H48.6085C48.6085 50.5842 48.8945 48.0389 48.8945 45.7127C48.8945 45.7127 52.8311 51.8547 63.5351 51.8547C74.8069 51.8547 82.4633 44.0502 82.4633 32.8686C82.4633 22.4665 75.4306 14.1003 63.5533 14.1003C52.4311 14.1003 48.9749 20.0902 48.9749 20.0902V0.0512695H40.8213ZM61.4967 19.6001C69.1511 19.6001 74.0185 25.2657 74.0185 32.8686C74.0185 41.0214 68.3968 46.3549 61.5513 46.3549C53.3818 46.3549 48.9749 39.9934 48.9749 32.9412C48.9749 26.37 52.9293 19.6001 61.4967 19.6001Z" fill="#0064D2"/>
<path d="M102.269 13.9888C85.3027 13.9888 84.2146 23.2538 84.2146 24.7343H92.6595C92.6595 24.7343 93.1023 19.3252 101.687 19.3252C107.265 19.3252 111.588 21.8716 111.588 26.7672V28.5097H101.687C88.5426 28.5097 81.5938 32.3445 81.5938 40.1265C81.5938 47.785 88.0143 51.952 96.6908 51.952C108.516 51.952 112.325 45.4357 112.325 45.4357C112.325 48.0275 112.525 50.5815 112.525 50.5815H120.033C120.033 50.5815 119.741 47.4157 119.741 45.3903V27.8835C119.741 16.4045 110.457 13.9888 102.269 13.9888ZM111.588 33.7373V36.0606C111.588 39.0909 109.713 46.6246 98.6747 46.6246C92.6302 46.6246 90.0387 43.6161 90.0387 40.1265C90.0387 33.7781 98.766 33.7373 111.588 33.7373Z" fill="#F5AF02"/>
<path d="M115.195 15.4497H124.696L138.33 42.6921L151.934 15.4497H160.54L135.762 63.9497H126.734L133.884 50.4296L115.195 15.4497Z" fill="#86B817"/>
</g>
<defs>
<clipPath id="clip0_3561_60799">
<rect width="160" height="64" fill="white" transform="translate(0.59375 0.000488281)"/>
</clipPath>
</defs>
</svg>
