<svg width="136" height="31" viewBox="0 0 136 31" fill="none" xmlns="http://www.w3.org/2000/svg">
<path fill-rule="evenodd" clip-rule="evenodd" d="M55.6075 4.3919C52.6527 1.46689 48.7888 0.00439453 44.887 0.00439453C41.0231 0.00439453 37.1213 1.46689 34.1665 4.3919C28.257 10.2419 28.257 19.7294 34.1665 25.6169C40.076 31.4669 49.6601 31.4669 55.6075 25.6169C61.517 19.7669 61.517 10.2419 55.6075 4.3919ZM51.3269 21.3794C47.766 24.9044 42.008 24.9044 38.485 21.3794C34.9242 17.8544 34.9242 12.1544 38.485 8.6669C42.0459 5.1419 47.8039 5.1419 51.3269 8.6669C54.8498 12.1544 54.8498 17.8544 51.3269 21.3794Z" fill="#2D8CFF"/>
<path fill-rule="evenodd" clip-rule="evenodd" d="M87.4356 4.3919C84.4808 1.46689 80.6169 0.00439453 76.7151 0.00439453C72.8512 0.00439453 68.9494 1.46689 65.9946 4.3919C60.0851 10.2419 60.0851 19.7294 65.9946 25.6169C71.9042 31.4669 81.4882 31.4669 87.4356 25.6169C93.3451 19.7669 93.3451 10.2419 87.4356 4.3919ZM83.155 21.3794C79.5941 24.9044 73.8361 24.9044 70.3131 21.3794C66.7523 17.8544 66.7523 12.1544 70.3131 8.6669C73.874 5.1419 79.632 5.1419 83.155 8.6669C86.678 12.1544 86.678 17.8544 83.155 21.3794Z" fill="#2D8CFF"/>
<path fill-rule="evenodd" clip-rule="evenodd" d="M7.01417 29.9294L8.52944 30.0044H31.2584L31.1826 28.5044C30.9932 26.0294 29.2128 24.2294 26.7126 24.0794L25.1973 24.0044H11.56L29.7431 6.0044L29.6673 4.5044C29.5537 2.0294 27.6975 0.191894 25.1973 0.0793934L23.6821 0.00439453H0.953125L1.02889 1.5044C1.21829 3.9419 3.03661 5.7794 5.49891 5.9294L7.01417 6.0044H20.6515L2.46839 24.0044L2.54415 25.5044C2.69568 27.9794 4.51399 29.7794 7.01417 29.9294Z" fill="#2D8CFF"/>
<path fill-rule="evenodd" clip-rule="evenodd" d="M110.733 9.0044C111.263 9.9044 111.414 10.8794 111.49 12.0044L111.566 13.5044V24.0044L111.642 25.5044C111.793 27.9419 113.612 29.7794 116.112 29.9294L117.627 30.0044V13.5044L117.703 12.0044C117.779 10.8794 117.93 9.8669 118.46 8.9669C119.521 7.1669 121.453 6.0044 123.688 6.0044C125.923 6.0044 127.893 7.2044 128.954 9.0044C129.484 9.9044 129.635 10.9169 129.673 12.0044L129.749 13.5044V24.0044L129.825 25.5044C129.976 27.9794 131.795 29.7794 134.295 29.9294L135.81 30.0044V13.5044V12.0044C135.81 5.3669 130.393 0.00439453 123.688 0.00439453C120.051 0.00439453 116.832 1.5794 114.596 4.0544C112.361 1.5794 109.142 0.00439453 105.505 0.00439453C103.005 0.00439453 100.656 0.754395 98.7241 2.0669C97.5498 0.754395 94.8981 0.00439453 93.3828 0.00439453V30.0044L94.8981 29.9294C97.4361 29.7794 99.2545 27.9794 99.3681 25.5044L99.4439 24.0044V13.5044L99.5196 12.0044C99.5954 10.8794 99.7469 9.8669 100.277 9.0044C101.338 7.2044 103.27 6.0044 105.505 6.0044C107.74 6.0044 109.71 7.2044 110.733 9.0044Z" fill="#2D8CFF"/>
</svg>
