<svg width="178" height="45" viewBox="0 0 178 45" fill="none" xmlns="http://www.w3.org/2000/svg">
<path d="M57.0938 35.1384L59.3074 30.044C61.6996 31.8129 64.8773 32.7327 68.0192 32.7327C70.34 32.7327 71.8039 31.8483 71.8039 30.504C71.7682 26.754 57.9149 29.6903 57.8078 20.2799C57.7721 15.504 62.0566 11.8247 68.1264 11.8247C71.7325 11.8247 75.3386 12.7091 77.9093 14.7257L75.8385 19.9261C73.482 18.4403 70.5542 17.379 67.7693 17.379C65.877 17.379 64.6273 18.2634 64.6273 19.3955C64.663 23.0747 78.6234 21.0582 78.7662 30.044C78.7662 34.9261 74.5888 38.3577 68.5905 38.3577C64.1989 38.3577 60.1643 37.3318 57.0938 35.1384Z" fill="#031B07"/>
<path d="M142.037 28.2044C140.93 30.1148 138.859 31.4238 136.467 31.4238C132.933 31.4238 130.076 28.5936 130.076 25.0912C130.076 21.5889 132.933 18.7587 136.467 18.7587C138.859 18.7587 140.93 20.0676 142.037 21.978L148.143 18.6172C145.857 14.5841 141.466 11.8247 136.467 11.8247C129.076 11.8247 123.078 17.7681 123.078 25.0912C123.078 32.4143 129.076 38.3577 136.467 38.3577C141.502 38.3577 145.857 35.6337 148.143 31.5653L142.037 28.2044Z" fill="#031B07"/>
<path d="M89.4767 0.820801H81.8359V37.8609H89.4767V0.820801Z" fill="#031B07"/>
<path d="M151.141 0.820801V37.8609H158.781V26.7524L167.85 37.8609H177.633L166.101 24.6651L176.776 12.3538H167.422L158.781 22.5779V0.820801H151.141Z" fill="#031B07"/>
<path d="M112.18 28.2752C111.073 30.0794 108.788 31.4238 106.217 31.4238C102.682 31.4238 99.8261 28.5936 99.8261 25.0912C99.8261 21.5889 102.682 18.7587 106.217 18.7587C108.788 18.7587 111.073 20.1738 112.18 22.0134V28.2752ZM112.18 12.3554V15.3624C110.93 13.2752 107.824 11.8247 104.575 11.8247C97.8624 11.8247 92.5781 17.6973 92.5781 25.0558C92.5781 32.4143 97.8624 38.3577 104.575 38.3577C107.824 38.3577 110.93 36.9073 112.18 34.82V37.8271H119.82V12.3554H112.18Z" fill="#031B07"/>
<path d="M9.8478 28.2406C9.8478 30.8232 7.74125 32.9104 5.13484 32.9104C2.52843 32.9104 0.421875 30.8232 0.421875 28.2406C0.421875 25.6581 2.52843 23.5708 5.13484 23.5708H9.8478V28.2406Z" fill="#E01E5A"/>
<path d="M12.2031 28.2406C12.2031 25.6581 14.3097 23.5708 16.9161 23.5708C19.5225 23.5708 21.629 25.6581 21.629 28.2406V39.9151C21.629 42.4977 19.5225 44.5849 16.9161 44.5849C14.3097 44.5849 12.2031 42.4977 12.2031 39.9151V28.2406Z" fill="#E01E5A"/>
<path d="M16.9239 9.48855C14.3175 9.48855 12.2109 7.40129 12.2109 4.81874C12.2109 2.23619 14.3175 0.148926 16.9239 0.148926C19.5303 0.148926 21.6369 2.23619 21.6369 4.81874V9.48855H16.9239Z" fill="#36C5F0"/>
<path d="M16.9217 11.856C19.5281 11.856 21.6346 13.9432 21.6346 16.5258C21.6346 19.1083 19.5281 21.1956 16.9217 21.1956H5.10358C2.49717 21.1956 0.390625 19.1083 0.390625 16.5258C0.390625 13.9432 2.49717 11.856 5.10358 11.856H16.9217Z" fill="#36C5F0"/>
<path d="M35.8125 16.5297C35.8125 13.9471 37.9191 11.8599 40.5255 11.8599C43.1319 11.8599 45.2384 13.9471 45.2384 16.5297C45.2384 19.1122 43.1319 21.1995 40.5255 21.1995H35.8125V16.5297Z" fill="#2EB67D"/>
<path d="M33.4572 16.5286C33.4572 19.1112 31.3506 21.1984 28.7442 21.1984C26.1378 21.1984 24.0312 19.1112 24.0312 16.5286V4.81874C24.0312 2.23619 26.1378 0.148926 28.7442 0.148926C31.3506 0.148926 33.4572 2.23619 33.4572 4.81874V16.5286Z" fill="#2EB67D"/>
<path d="M28.7442 35.2505C31.3506 35.2505 33.4572 37.3378 33.4572 39.9203C33.4572 42.5028 31.3506 44.5901 28.7442 44.5901C26.1378 44.5901 24.0312 42.5028 24.0312 39.9203V35.2505H28.7442Z" fill="#ECB22E"/>
<path d="M28.7442 32.9104C26.1378 32.9104 24.0312 30.8232 24.0312 28.2406C24.0312 25.6581 26.1378 23.5708 28.7442 23.5708H40.5623C43.1687 23.5708 45.2753 25.6581 45.2753 28.2406C45.2753 30.8232 43.1687 32.9104 40.5623 32.9104H28.7442Z" fill="#ECB22E"/>
</svg>
