<svg width="170" height="53" viewBox="0 0 170 53" fill="none" xmlns="http://www.w3.org/2000/svg">
<path d="M21.9557 18.9119V24.5732H35.5476C35.1867 27.705 34.1042 30.1141 32.4202 31.68C30.4957 33.6073 27.3684 35.7755 21.9557 35.7755C13.6562 35.7755 7.16094 29.03 7.16094 20.7187C7.16094 12.4073 13.5359 5.66185 21.9557 5.66185C26.4061 5.66185 29.774 7.46867 32.1797 9.75731L36.149 5.78231C32.7811 2.53003 28.2104 0.000488281 21.9557 0.000488281C10.5288 0.000488281 0.90625 9.27549 0.90625 20.7187C0.90625 32.1619 10.5288 41.4369 21.9557 41.4369C28.0901 41.4369 32.7811 39.3891 36.3896 35.655C40.1183 31.9209 41.3211 26.6209 41.3211 22.405C41.3211 21.08 41.2009 19.8755 41.0806 18.9119H21.9557Z" fill="#4285F4"/>
<path d="M58.1669 14.2114C50.8297 14.2114 44.6953 19.8728 44.6953 27.5819C44.6953 35.291 50.7094 40.9523 58.1669 40.9523C65.6244 40.9523 71.6386 35.4114 71.6386 27.7023C71.6386 19.8728 65.6244 14.2114 58.1669 14.2114ZM58.1669 35.7728C54.0773 35.7728 50.5891 32.4001 50.5891 27.7023C50.5891 22.8842 54.0773 19.6319 58.1669 19.6319C62.2565 19.6319 65.7447 22.8842 65.7447 27.7023C65.7447 32.4001 62.2565 35.7728 58.1669 35.7728Z" fill="#EA4335"/>
<path d="M123.956 17.2228H123.715C122.392 15.6569 119.866 14.2114 116.619 14.2114C109.883 14.2114 104.109 19.9932 104.109 27.5819C104.109 35.0501 109.883 40.9523 116.619 40.9523C119.866 40.9523 122.392 39.5069 123.715 37.941H123.956V39.8682C123.956 44.9273 121.189 47.6978 116.859 47.6978C113.251 47.6978 111.086 45.1682 110.123 42.8796L105.072 45.0478C106.515 48.541 110.484 52.9978 116.98 52.9978C123.836 52.9978 129.73 48.9023 129.73 39.0251V14.9342H124.197V17.2228H123.956ZM117.22 35.7728C113.131 35.7728 110.123 32.2796 110.123 27.7023C110.123 23.0046 113.251 19.6319 117.22 19.6319C121.189 19.6319 124.317 23.1251 124.317 27.8228C124.437 32.4001 121.31 35.7728 117.22 35.7728Z" fill="#4285F4"/>
<path d="M88.1123 14.2114C80.775 14.2114 74.6406 19.8728 74.6406 27.5819C74.6406 35.291 80.6547 40.9523 88.1123 40.9523C95.5698 40.9523 101.584 35.4114 101.584 27.7023C101.584 19.8728 95.5698 14.2114 88.1123 14.2114ZM88.1123 35.7728C84.0227 35.7728 80.5345 32.4001 80.5345 27.7023C80.5345 22.8842 84.0227 19.6319 88.1123 19.6319C92.2019 19.6319 95.69 22.8842 95.69 27.7023C95.69 32.4001 92.2019 35.7728 88.1123 35.7728Z" fill="#FBBC05"/>
<path d="M134.18 0.605957H139.953V41.0787H134.18V0.605957Z" fill="#34A853"/>
<path d="M157.754 35.7728C154.747 35.7728 152.703 34.4478 151.259 31.6773L169.181 24.3296L168.58 22.7637C167.497 19.7523 164.009 14.2114 157.153 14.2114C150.297 14.2114 144.523 19.6319 144.523 27.5819C144.523 35.0501 150.177 40.9523 157.754 40.9523C163.889 40.9523 167.377 37.2182 168.941 35.0501L164.37 32.0387C162.806 34.3273 160.762 35.7728 157.754 35.7728ZM157.394 19.2705C159.799 19.2705 161.844 20.4751 162.446 22.1614L150.417 27.2205C150.297 21.6796 154.387 19.2705 157.394 19.2705Z" fill="#EA4335"/>
</svg>
